<svg width="413" height="206" viewBox="0 0 413 206" fill="none" xmlns="http://www.w3.org/2000/svg"><rect x="0" y="0" width="413" height="206" fill="#00AEEF"/>
<path d="M53.5065 124.512C41.2711 115.422 26.3108 120.676 14.612 129.231C14.5717 128.479 14.5506 127.727 14.4966 126.964C13.8562 117.492 -0.60632 117.441 0.0197492 126.964C1.42961 148.059 0.149472 169.174 0.0197492 190.28C-0.0205261 199.844 14.442 199.844 14.4966 190.28C14.5717 176.259 15.1507 162.256 15.1234 148.253C22.865 140.187 39.5478 127.083 47.8622 139.81C56.5508 153.183 52.3287 176.876 51.4985 191.944C50.9803 201.464 65.4497 201.416 65.974 191.944C67.0774 171.997 72.0552 138.281 53.5065 124.512Z" fill="white"/>
<path d="M303.255 128.532C303.173 142.542 302.581 156.549 302.608 170.58C294.894 178.624 278.191 191.739 269.884 179.006C269.025 177.685 268.303 176.214 267.684 174.685C267.636 173.113 267.112 171.604 266.2 170.341C262.666 156.883 265.58 139.053 266.22 126.874C266.765 117.345 252.288 117.395 251.77 126.874C251.062 139.53 248.835 157.737 252.016 172.878C243.64 180.8 229.164 190.565 221.64 179.006C212.91 165.636 217.125 141.943 217.976 126.874C218.5 117.345 204.024 117.395 203.52 126.874C202.403 146.805 197.432 180.535 215.974 194.293C229.239 204.17 245.717 197.156 257.763 187.357C259.513 190.002 261.616 192.342 264.239 194.293C276.461 203.396 291.448 198.15 303.133 189.581C303.173 190.327 303.208 191.078 303.255 191.838C303.861 201.32 318.331 201.374 317.718 191.838C316.316 170.753 317.595 149.644 317.718 128.532C317.759 118.99 303.29 118.99 303.255 128.532Z" fill="white"/>
<path d="M348.344 180.136C347.677 179.765 347.03 179.318 346.423 178.855C334.147 169.306 338.838 148.868 349.788 140.567C359.832 132.989 375.207 134.065 381.914 145.721C384.842 150.812 386.095 157.141 385.85 162.987C385.734 166.064 385.209 169.204 383.915 172.019C378.57 183.472 358.905 186.207 348.344 180.136ZM401.831 128.532C401.872 118.989 387.409 118.989 387.354 128.532C387.354 128.988 387.354 129.458 387.348 129.925C375.929 116.327 351.497 118.918 339.281 130.292C323.491 144.959 319.084 171.982 334.834 188.433C346.853 200.982 372.476 199.386 387.272 190.02C387.313 190.615 387.313 191.232 387.354 191.838C387.994 201.32 402.478 201.374 401.831 191.838C400.421 170.753 401.715 149.644 401.831 128.532Z" fill="white"/>
<path d="M155.724 62.0909C147.961 55.6151 136.733 66.6803 144.55 73.2278C171.542 95.7699 191.281 136.25 171.971 169.517C153.537 201.266 102.468 192.311 90.5319 159.862C78.7382 127.776 110.571 111.655 125.116 88.92C140.314 65.125 143.501 31.8202 134.254 5.40347C130.917 -4.11192 115.657 -0.0161274 119.015 9.59827C125.722 28.7902 124.292 48.7788 117.816 67.8382C110.871 88.255 92.6491 97.9793 81.4685 115.234C64.1186 141.942 73.3657 175.986 98.2332 193.819C129.522 216.253 172.604 204.207 189.191 170.797C207.801 133.349 185.221 86.7372 155.724 62.0909Z" fill="white"/>
<path d="M108.31 164.41C108.842 164.89 109.413 165.315 109.945 165.677C125.252 176.452 154.123 177.01 166.108 160.682C168.981 156.774 171.35 151.258 166.066 148.123C162.056 145.756 157.48 151.524 154.729 153.604C145.945 160.155 128.453 159.507 119.144 154.598C115.174 152.508 109.203 146.92 105.022 150.972C100.554 155.265 104.396 161.016 108.31 164.41Z" fill="white"/>
<path d="M122.285 126.362C121.433 124.554 119.97 123.202 117.688 123.298C113.985 123.475 112.085 126.923 111.594 130.049C111.131 133.109 111.587 138.057 115.271 139.191C122.543 141.444 124.375 130.955 122.285 126.362Z" fill="white"/>
<path d="M163.67 126.362C162.839 124.554 161.376 123.202 159.081 123.298C155.39 123.475 153.483 126.923 153 130.049C152.537 133.109 153 138.057 156.677 139.191C163.949 141.444 165.781 130.955 163.67 126.362Z" fill="white"/>
<path d="M108.004 40.891C107.337 40.5912 106.69 40.3427 106.084 40.1413C100.214 38.2802 83.5791 35.4911 86.2486 47.3975C87.5349 53.1441 95.3182 52.2491 99.5055 52.882C104.048 53.5565 111.783 58.5542 115.024 52.7386C118.054 47.2671 112.695 42.933 108.004 40.891Z" fill="white"/>
<path d="M163.58 46.3121C164.049 45.757 164.471 45.1848 164.819 44.6441C168.292 39.4963 175.836 24.056 163.92 23.1268C158.187 22.6905 156.696 30.5523 154.877 34.4535C152.91 38.6954 145.944 44.7766 150.417 49.6623C154.632 54.2278 160.249 50.2918 163.58 46.3121Z" fill="white"/>
<path d="M407.48 117.5L409.272 121.077H409.759L411.559 117.5V121.527H412.429V116.371H411.08L409.523 119.609L407.967 116.371H406.61V121.527H407.48V117.5ZM405.85 117.168V116.371H401.852V117.168H403.416V121.527H404.286V117.168H405.85Z" fill="white"/>
</svg>
