<svg width="262" height="51" viewBox="0 0 262 51" fill="none" xmlns="http://www.w3.org/2000/svg">
<path d="M45.114 29.2241C43.0791 40.1469 32.5789 47.2628 21.6514 45.1136C16.0505 44.0128 11.4319 40.6842 8.52942 36.2351L15.4891 30.5804L17.9834 36.1434C18.1046 36.4186 18.347 36.589 18.6213 36.5824C18.7935 36.5824 18.953 36.5103 19.0933 36.3924C19.0933 36.3924 19.0997 36.3924 19.1061 36.3858L29.1533 27.1863L31.5264 32.5461C31.6476 32.8213 31.89 32.9917 32.1643 32.9852C32.4322 32.9852 32.6045 32.8541 32.8532 32.651L45.3437 23.3859C45.5414 25.2861 45.484 27.2453 45.114 29.211M5.5631 21.453C7.59806 10.5302 18.0982 3.41427 29.0194 5.56345C33.7846 6.50044 37.8481 9.04932 40.7379 12.5286L32.5407 20.326L30.3462 15.4444C30.3462 15.4444 30.3335 15.4182 30.3271 15.4051C30.3143 15.3593 30.3016 15.3134 30.2824 15.2675C30.2442 15.1889 30.1995 15.1168 30.1421 15.0513C29.8805 14.7695 29.4723 14.7564 29.1725 15.0185L19.004 23.9167L16.8096 19.0351C16.6884 18.7665 16.4524 18.5961 16.1844 18.5961C15.9165 18.5961 15.6613 18.7534 15.5082 19.022L5.51845 28.6344C5.11018 26.3214 5.1038 23.897 5.55672 21.453M25.4853 0.000479415C11.4894 -0.0847015 0.0833838 11.1919 0.000454414 25.1813C-0.0824749 39.1772 11.1959 50.5914 25.1918 50.6766C39.1878 50.7618 50.5937 39.4851 50.6767 25.4958C50.7532 11.4999 39.4748 0.0856603 25.4853 0.000479415Z" fill="#FAB500"></path>
<path d="M84.3904 23.8499L73.8749 9.90103H67.3946V42.0746H74.0903V20.8916L83.8077 33.8713H84.6692L94.3865 21.3414V42.0746H101.082V9.90103H94.6019L84.3904 23.8499Z" fill="white"></path>
<path d="M121.891 19.0546C120.365 18.3388 118.61 17.9777 116.621 17.9777C114.949 17.9777 113.409 18.2374 112.003 18.7568C110.59 19.2763 109.381 20.0111 108.373 20.9613C107.366 21.9115 106.631 23.0517 106.169 24.3757L111.351 26.8398C111.756 25.801 112.396 24.9711 113.27 24.3377C114.151 23.7042 115.164 23.3875 116.317 23.3875C117.527 23.3875 118.483 23.6915 119.187 24.2933C119.89 24.8951 120.244 25.6489 120.244 26.5358V27.1629L113.726 28.2145C111.851 28.4995 110.293 28.9936 109.038 29.6841C107.784 30.3746 106.859 31.2297 106.251 32.2559C105.649 33.2758 105.345 34.4541 105.345 35.778C105.345 37.1906 105.675 38.4069 106.34 39.4268C107.005 40.4466 107.949 41.2321 109.191 41.7769C110.426 42.3217 111.895 42.6004 113.593 42.6004C114.86 42.6004 116.013 42.4357 117.045 42.1063C118.084 41.7769 119.016 41.2701 119.852 40.5923C120.137 40.3643 120.409 40.1046 120.675 39.8322V42.081H126.718V26.5358C126.718 24.8381 126.294 23.3495 125.445 22.0635C124.596 20.7839 123.405 19.7831 121.885 19.0609L121.891 19.0546ZM119.586 35.2712C119.136 36.0631 118.515 36.6902 117.704 37.1526C116.9 37.615 115.962 37.8431 114.898 37.8431C114.094 37.8431 113.416 37.6404 112.871 37.2413C112.326 36.8359 112.054 36.2784 112.054 35.5563C112.054 34.7771 112.301 34.1817 112.789 33.7636C113.276 33.3455 113.986 33.0541 114.904 32.8767L120.257 31.9202V32.6614C120.257 33.6116 120.035 34.4857 119.586 35.2712Z" fill="white"></path>
<path d="M139.666 19.2953C138.761 19.8337 138.045 20.7396 137.525 22.0192V18.4971H131.482V42.0746H137.962V29.38C137.962 27.6253 138.45 26.2634 139.432 25.3005C140.408 24.3377 141.694 23.8562 143.277 23.8562H145.311V18.2437H143.93C142.289 18.2437 140.87 18.5985 139.679 19.3016L139.666 19.2953Z" fill="white"></path>
<path d="M162.617 18.4971L154.629 26.9855V9.38159H148.149V42.0746H154.629V34.8595L157.232 32.0216L163.219 42.0746H170.56L162.053 27.9991L170.605 18.4971H162.617Z" fill="white"></path>
<path d="M189.045 19.0546C187.518 18.3388 185.764 17.9777 183.774 17.9777C182.102 17.9777 180.563 18.2374 179.157 18.7568C177.744 19.2763 176.534 20.0111 175.527 20.9613C174.52 21.9115 173.785 23.0517 173.322 24.3757L178.504 26.8398C178.909 25.801 179.549 24.9711 180.423 24.3377C181.304 23.7042 182.317 23.3875 183.47 23.3875C184.68 23.3875 185.637 23.6915 186.34 24.2933C187.043 24.8951 187.398 25.6489 187.398 26.5358V27.1629L180.88 28.2145C179.004 28.4995 177.446 28.9936 176.192 29.6841C174.938 30.3746 174.013 31.2297 173.405 32.2559C172.797 33.2822 172.499 34.4541 172.499 35.778C172.499 37.1906 172.828 38.4069 173.493 39.4268C174.158 40.4466 175.102 41.2321 176.344 41.7769C177.579 42.3217 179.049 42.6004 180.747 42.6004C182.013 42.6004 183.166 42.4357 184.199 42.1063C185.238 41.7769 186.169 41.2701 187.005 40.5923C187.29 40.3643 187.563 40.1046 187.829 39.8322V42.081H193.872V26.5358C193.872 24.8381 193.447 23.3495 192.599 22.0635C191.75 20.7839 190.565 19.7831 189.039 19.0609L189.045 19.0546ZM186.733 35.2712C186.283 36.0631 185.662 36.6902 184.851 37.1526C184.047 37.615 183.109 37.8431 182.045 37.8431C181.241 37.8431 180.563 37.6404 180.018 37.2413C179.473 36.8359 179.201 36.2784 179.201 35.5563C179.201 34.7771 179.442 34.1817 179.936 33.7636C180.423 33.3455 181.127 33.0541 182.051 32.8767L187.404 31.9202V32.6614C187.404 33.6116 187.182 34.4857 186.733 35.2712Z" fill="white"></path>
<path d="M217.975 19.6184C216.163 18.5225 214.13 17.9777 211.888 17.9777C210.158 17.9777 208.625 18.3008 207.289 18.9469C206.446 19.3523 205.73 19.8781 205.11 20.4989V9.38159H198.629V42.0746H204.672V39.8195C205.414 40.6177 206.307 41.2511 207.371 41.7072C208.739 42.2963 210.228 42.5941 211.843 42.5941C214.143 42.5941 216.201 42.0493 218.019 40.9534C219.831 39.8575 221.263 38.3752 222.314 36.5065C223.366 34.6378 223.892 32.56 223.892 30.2859C223.892 28.0117 223.36 25.9023 222.295 24.0463C221.231 22.1902 219.793 20.7142 217.975 19.6184ZM216.423 33.6559C215.904 34.6378 215.182 35.3979 214.263 35.9427C213.338 36.4875 212.274 36.7662 211.07 36.7662C209.867 36.7662 208.891 36.4938 207.985 35.9427C207.08 35.3979 206.37 34.6314 205.87 33.6559C205.363 32.6804 205.116 31.5528 205.116 30.2859C205.116 29.019 205.369 27.8977 205.87 26.9159C206.37 25.9403 207.08 25.1738 207.985 24.6291C208.891 24.0843 209.924 23.8055 211.07 23.8055C212.28 23.8055 213.345 24.0843 214.263 24.6481C215.182 25.2118 215.904 25.972 216.423 26.9349C216.943 27.8977 217.202 29.0126 217.202 30.2795C217.202 31.5465 216.943 32.6677 216.423 33.6496V33.6559Z" fill="white"></path>
<path d="M234.173 9.38159H227.692V42.0746H234.173V9.38159Z" fill="white"></path>
<path d="M260.728 25.0408C260.208 23.6472 259.454 22.4119 258.46 21.3477C257.465 20.2835 256.249 19.4537 254.811 18.8645C253.373 18.2754 251.713 17.9777 249.845 17.9777C247.602 17.9777 245.581 18.5098 243.801 19.574C242.015 20.6382 240.596 22.0952 239.551 23.9386C238.499 25.782 237.974 27.8851 237.974 30.2415C237.974 32.598 238.474 34.5871 239.488 36.4621C240.495 38.3372 241.92 39.8258 243.763 40.9344C245.607 42.043 247.78 42.5941 250.282 42.5941C251.891 42.5941 253.373 42.3534 254.729 41.8846C256.084 41.4095 257.256 40.738 258.251 39.8765C259.245 39.015 259.967 38.0078 260.43 36.8549L255.248 34.3907C254.786 35.1952 254.146 35.8287 253.329 36.2911C252.505 36.7535 251.523 36.9816 250.37 36.9816C249.104 36.9816 248.02 36.7029 247.133 36.1391C246.24 35.5753 245.581 34.7961 245.144 33.7889C244.923 33.2695 244.777 32.7057 244.695 32.1039H261.209C261.323 31.7872 261.405 31.4071 261.45 30.9573C261.494 30.5139 261.513 30.0578 261.513 29.5954C261.513 27.9547 261.253 26.4344 260.734 25.0408H260.728ZM246.956 23.9829C247.761 23.4381 248.73 23.1658 249.851 23.1658C250.972 23.1658 251.973 23.4445 252.765 24.0083C253.557 24.572 254.108 25.3322 254.425 26.2951C254.532 26.6308 254.596 26.9855 254.634 27.3529H244.866C244.942 27.0172 245.03 26.7005 245.144 26.4027C245.55 25.3385 246.152 24.534 246.956 23.9829Z" fill="white"></path>
</svg>