<svg width="262" height="51" viewBox="0 0 262 51" fill="none" xmlns="http://www.w3.org/2000/svg">
<path d="M45.114 29.2241C43.0791 40.1469 32.5789 47.2628 21.6514 45.1136C16.0505 44.0128 11.4319 40.6842 8.52942 36.2351L15.4891 30.5804L17.9834 36.1434C18.1046 36.4186 18.347 36.589 18.6213 36.5824C18.7935 36.5824 18.953 36.5103 19.0933 36.3924C19.0933 36.3924 19.0997 36.3924 19.1061 36.3858L29.1533 27.1863L31.5264 32.5461C31.6476 32.8213 31.89 32.9917 32.1643 32.9852C32.4322 32.9852 32.6045 32.8541 32.8532 32.651L45.3437 23.3859C45.5414 25.2861 45.484 27.2453 45.114 29.211M5.5631 21.453C7.59806 10.5302 18.0982 3.41427 29.0194 5.56345C33.7846 6.50044 37.8481 9.04932 40.7379 12.5286L32.5407 20.326L30.3462 15.4444C30.3462 15.4444 30.3335 15.4182 30.3271 15.4051C30.3143 15.3593 30.3016 15.3134 30.2824 15.2675C30.2442 15.1889 30.1995 15.1168 30.1421 15.0513C29.8805 14.7695 29.4723 14.7564 29.1725 15.0185L19.004 23.9167L16.8096 19.0351C16.6884 18.7665 16.4524 18.5961 16.1844 18.5961C15.9165 18.5961 15.6613 18.7534 15.5082 19.022L5.51845 28.6344C5.11018 26.3214 5.1038 23.897 5.55672 21.453M25.4853 0.000479415C11.4894 -0.0847015 0.0833838 11.1919 0.000454414 25.1813C-0.0824749 39.1772 11.1959 50.5914 25.1918 50.6766C39.1878 50.7618 50.5937 39.4851 50.6767 25.4958C50.7532 11.4999 39.4748 0.0856603 25.4853 0.000479415Z" fill="#212121"></path>
<path d="M84.5673 24.6924L74.0519 10.7435H67.5715V42.9171H74.2672V21.7341L83.9846 34.7138H84.8461L94.5634 22.1839V42.9171H101.259V10.7435H94.7788L84.5673 24.6924Z" fill="#212121"></path>
<path d="M122.068 19.8971C120.542 19.1813 118.787 18.8202 116.798 18.8202C115.126 18.8202 113.586 19.0799 112.18 19.5994C110.767 20.1188 109.557 20.8536 108.55 21.8038C107.543 22.754 106.808 23.8943 106.346 25.2182L111.528 27.6824C111.933 26.6435 112.573 25.8136 113.447 25.1802C114.327 24.5467 115.341 24.23 116.494 24.23C117.704 24.23 118.66 24.534 119.363 25.1358C120.067 25.7376 120.421 26.4915 120.421 27.3783V28.0054L113.903 29.057C112.028 29.342 110.47 29.8361 109.215 30.5266C107.961 31.2171 107.036 32.0723 106.428 33.0985C105.826 34.1183 105.522 35.2966 105.522 36.6205C105.522 38.0331 105.852 39.2494 106.517 40.2693C107.182 41.2891 108.126 42.0746 109.367 42.6194C110.603 43.1642 112.072 43.4429 113.77 43.4429C115.037 43.4429 116.19 43.2782 117.222 42.9488C118.261 42.6194 119.192 42.1126 120.029 41.4348C120.314 41.2068 120.586 40.9471 120.852 40.6747V42.9235H126.895V27.3783C126.895 25.6806 126.471 24.192 125.622 22.906C124.773 21.6264 123.582 20.6256 122.062 19.9034L122.068 19.8971ZM119.763 36.1137C119.313 36.9056 118.692 37.5327 117.881 37.9951C117.077 38.4576 116.139 38.6856 115.075 38.6856C114.27 38.6856 113.593 38.4829 113.048 38.0838C112.503 37.6784 112.231 37.121 112.231 36.3988C112.231 35.6197 112.478 35.0242 112.966 34.6061C113.453 34.188 114.163 33.8966 115.081 33.7193L120.434 32.7627V33.5039C120.434 34.4541 120.212 35.3283 119.763 36.1137Z" fill="#212121"></path>
<path d="M139.843 20.1378C138.937 20.6762 138.222 21.5821 137.702 22.8617V19.3396H131.659V42.9171H138.139V30.2225C138.139 28.4678 138.627 27.1059 139.609 26.143C140.584 25.1802 141.87 24.6987 143.454 24.6987H145.488V19.0862H144.107C142.466 19.0862 141.047 19.441 139.856 20.1441L139.843 20.1378Z" fill="#212121"></path>
<path d="M162.794 19.3397L154.806 27.8281V10.2241H148.325V42.9172H154.806V35.702L157.409 32.8641L163.396 42.9172H170.737L162.23 28.8416L170.782 19.3397H162.794Z" fill="#212121"></path>
<path d="M189.222 19.8971C187.695 19.1813 185.94 18.8202 183.951 18.8202C182.279 18.8202 180.74 19.0799 179.333 19.5994C177.921 20.1188 176.711 20.8536 175.704 21.8038C174.696 22.754 173.962 23.8943 173.499 25.2182L178.681 27.6824C179.086 26.6435 179.726 25.8136 180.6 25.1802C181.481 24.5467 182.494 24.23 183.647 24.23C184.857 24.23 185.814 24.534 186.517 25.1358C187.22 25.7376 187.575 26.4915 187.575 27.3783V28.0054L181.056 29.057C179.181 29.342 177.623 29.8361 176.369 30.5266C175.115 31.2171 174.19 32.0723 173.582 33.0985C172.973 34.1247 172.676 35.2966 172.676 36.6205C172.676 38.0331 173.005 39.2494 173.67 40.2693C174.335 41.2891 175.279 42.0746 176.521 42.6194C177.756 43.1642 179.226 43.4429 180.923 43.4429C182.19 43.4429 183.343 43.2782 184.376 42.9488C185.415 42.6194 186.346 42.1126 187.182 41.4348C187.467 41.2068 187.739 40.9471 188.006 40.6747V42.9235H194.049V27.3783C194.049 25.6806 193.624 24.192 192.776 22.906C191.927 21.6264 190.742 20.6256 189.215 19.9034L189.222 19.8971ZM186.91 36.1137C186.46 36.9056 185.839 37.5327 185.028 37.9951C184.224 38.4576 183.286 38.6856 182.222 38.6856C181.418 38.6856 180.74 38.4829 180.195 38.0838C179.65 37.6784 179.378 37.121 179.378 36.3988C179.378 35.6197 179.618 35.0242 180.113 34.6061C180.6 34.188 181.304 33.8966 182.228 33.7193L187.581 32.7627V33.5039C187.581 34.4541 187.359 35.3283 186.91 36.1137Z" fill="#212121"></path>
<path d="M218.152 20.4609C216.34 19.365 214.307 18.8202 212.064 18.8202C210.335 18.8202 208.802 19.1433 207.466 19.7894C206.623 20.1948 205.907 20.7206 205.286 21.3414V10.2241H198.806V42.9172H204.849V40.662C205.59 41.4602 206.484 42.0936 207.548 42.5497C208.916 43.1389 210.405 43.4366 212.02 43.4366C214.32 43.4366 216.378 42.8918 218.196 41.7959C220.008 40.7 221.44 39.2177 222.491 37.349C223.543 35.4803 224.069 33.4025 224.069 31.1284C224.069 28.8543 223.537 26.7448 222.472 24.8888C221.408 23.0327 219.97 21.5568 218.152 20.4609ZM216.6 34.4984C216.081 35.4803 215.358 36.2404 214.44 36.7852C213.515 37.33 212.451 37.6087 211.247 37.6087C210.044 37.6087 209.068 37.3363 208.162 36.7852C207.257 36.2404 206.547 35.474 206.047 34.4984C205.54 33.5229 205.293 32.3953 205.293 31.1284C205.293 29.8615 205.546 28.7402 206.047 27.7584C206.547 26.7828 207.257 26.0163 208.162 25.4716C209.068 24.9268 210.101 24.6481 211.247 24.6481C212.457 24.6481 213.521 24.9268 214.44 25.4906C215.358 26.0544 216.081 26.8145 216.6 27.7774C217.12 28.7402 217.379 29.8551 217.379 31.1221C217.379 32.389 217.12 33.5102 216.6 34.4921V34.4984Z" fill="#212121"></path>
<path d="M234.35 10.2241H227.869V42.9172H234.35V10.2241Z" fill="#212121"></path>
<path d="M260.905 25.8833C260.385 24.4897 259.631 23.2545 258.637 22.1902C257.642 21.126 256.426 20.2962 254.988 19.7071C253.55 19.1179 251.89 18.8202 250.022 18.8202C247.779 18.8202 245.758 19.3523 243.978 20.4165C242.192 21.4807 240.773 22.9377 239.728 24.7811C238.676 26.6245 238.151 28.7276 238.151 31.084C238.151 33.4405 238.651 35.4296 239.664 37.3047C240.672 39.1797 242.097 40.6683 243.94 41.7769C245.784 42.8855 247.957 43.4366 250.459 43.4366C252.068 43.4366 253.55 43.1959 254.906 42.7271C256.261 42.252 257.433 41.5805 258.428 40.719C259.422 39.8575 260.144 38.8503 260.607 37.6974L255.425 35.2332C254.963 36.0377 254.323 36.6712 253.506 37.1336C252.682 37.5961 251.7 37.8241 250.547 37.8241C249.28 37.8241 248.197 37.5454 247.31 36.9816C246.417 36.4178 245.758 35.6386 245.321 34.6314C245.1 34.112 244.954 33.5482 244.872 32.9464H261.386C261.5 32.6297 261.582 32.2496 261.627 31.7999C261.671 31.3564 261.69 30.9003 261.69 30.4379C261.69 28.7972 261.43 27.2769 260.911 25.8833H260.905ZM247.133 24.8254C247.938 24.2806 248.907 24.0083 250.028 24.0083C251.149 24.0083 252.15 24.287 252.942 24.8508C253.734 25.4146 254.285 26.1747 254.602 27.1376C254.709 27.4733 254.773 27.828 254.811 28.1955H245.043C245.119 27.8597 245.207 27.543 245.321 27.2453C245.727 26.181 246.329 25.3765 247.133 24.8254Z" fill="#212121"></path>
</svg>