<svg width="160" height="93" viewBox="0 0 160 93" fill="none" xmlns="http://www.w3.org/2000/svg">
<path d="M101.182 30.5637C99.0537 41.9872 88.0723 49.4292 76.6439 47.1815C70.7862 46.0303 65.956 42.5491 62.9204 37.8961L70.1991 31.9822L72.8077 37.8002C72.9345 38.088 73.188 38.2661 73.4748 38.2593C73.655 38.2593 73.8218 38.1839 73.9685 38.0606C73.9685 38.0606 73.9752 38.0606 73.9819 38.0537L84.4896 28.4325L86.9715 34.038C87.0982 34.3258 87.3518 34.504 87.6386 34.4971C87.9188 34.4971 88.099 34.3601 88.3592 34.1476L101.422 24.4579C101.629 26.4452 101.569 28.4941 101.182 30.55M59.8181 22.4363C61.9463 11.0128 72.9278 3.57077 84.3495 5.81847C89.3332 6.79841 93.583 9.46412 96.6053 13.1029L88.0323 21.2577L85.7372 16.1524C85.7372 16.1524 85.7239 16.125 85.7172 16.1113C85.7039 16.0633 85.6905 16.0153 85.6705 15.9674C85.6305 15.8851 85.5838 15.8097 85.5237 15.7412C85.2502 15.4466 84.8232 15.4328 84.5097 15.707L73.8751 25.013L71.5801 19.9077C71.4534 19.6267 71.2065 19.4485 70.9263 19.4485C70.6461 19.4485 70.3792 19.613 70.2191 19.894L59.7714 29.9469C59.3444 27.5279 59.3377 24.9924 59.8114 22.4363M80.6535 0.000501391C66.016 -0.0885841 54.0872 11.705 54.0005 26.3355C53.9137 40.973 65.7091 52.9104 80.3466 52.9995C94.9841 53.0886 106.913 41.295 107 26.6645C107.08 12.027 95.2843 0.0895869 80.6535 0.000501391Z" fill="#212121"></path>
<path d="M14.0086 76.9254L5.34134 65.4282H0V91.9469H5.51886V74.487L13.5283 85.1854H14.2383L22.2477 74.8577V91.9469H27.7666V65.4282H22.4253L14.0086 76.9254Z" fill="#212121"></path>
<path d="M44.9184 72.9728C43.6601 72.3828 42.2138 72.0852 40.5743 72.0852C39.1959 72.0852 37.9272 72.2993 36.768 72.7275C35.6037 73.1556 34.6065 73.7613 33.7763 74.5444C32.9461 75.3276 32.3404 76.2675 31.9593 77.3587L36.2303 79.3898C36.5644 78.5335 37.0918 77.8495 37.8123 77.3274C38.5381 76.8052 39.3735 76.5442 40.3237 76.5442C41.321 76.5442 42.1094 76.7948 42.689 77.2908C43.2685 77.7868 43.5609 78.4082 43.5609 79.1391V79.6561L38.1882 80.5228C36.6427 80.7577 35.3583 81.165 34.3245 81.7341C33.2907 82.3032 32.5284 83.0081 32.0272 83.8539C31.5311 84.6946 31.2805 85.6657 31.2805 86.757C31.2805 87.9213 31.552 88.9238 32.1003 89.7644C32.6485 90.605 33.4265 91.2524 34.4498 91.7015C35.468 92.1505 36.6793 92.3802 38.0786 92.3802C39.1228 92.3802 40.0731 92.2445 40.9242 91.973C41.7805 91.7015 42.548 91.2838 43.2372 90.7251C43.4721 90.5371 43.6967 90.3231 43.9159 90.0986V91.9521H48.897V79.1391C48.897 77.7399 48.5472 76.5129 47.8475 75.4529C47.1479 74.3983 46.1663 73.5733 44.9132 72.9781L44.9184 72.9728ZM43.0179 86.3393C42.6472 86.9919 42.1355 87.5088 41.4672 87.89C40.8041 88.2711 40.0313 88.4591 39.1542 88.4591C38.4911 88.4591 37.9324 88.292 37.4834 87.9631C37.0343 87.6289 36.8098 87.1694 36.8098 86.5742C36.8098 85.932 37.0135 85.4412 37.4155 85.0966C37.8175 84.752 38.4023 84.5118 39.1594 84.3656L43.5713 83.5772V84.1881C43.5713 84.9713 43.3886 85.6918 43.0179 86.3393Z" fill="#212121"></path>
<path d="M59.5692 73.1713C58.8226 73.6151 58.2326 74.3617 57.8045 75.4164V72.5134H52.8234V91.9469H58.1647V81.4835C58.1647 80.0372 58.5668 78.9146 59.376 78.121C60.1801 77.3274 61.24 76.9306 62.5454 76.9306H64.2214V72.3045H63.0831C61.7308 72.3045 60.5613 72.5969 59.5797 73.1765L59.5692 73.1713Z" fill="#212121"></path>
<path d="M78.4858 72.5134L71.9018 79.5099V65H66.5605V91.9469H71.9018V85.9999L74.0478 83.6607L78.9819 91.9469H85.0333L78.0212 80.3453L85.0698 72.5134H78.4858Z" fill="#212121"></path>
<path d="M100.269 72.9728C99.0106 72.3828 97.5643 72.0852 95.9248 72.0852C94.5464 72.0852 93.2776 72.2993 92.1185 72.7275C90.9542 73.1556 89.9569 73.7613 89.1267 74.5444C88.2966 75.3276 87.6909 76.2675 87.3098 77.3587L91.5807 79.3898C91.9149 78.5335 92.4422 77.8495 93.1628 77.3274C93.8885 76.8052 94.7239 76.5442 95.6742 76.5442C96.6715 76.5442 97.4599 76.7948 98.0394 77.2908C98.619 77.7868 98.9114 78.4082 98.9114 79.1391V79.6561L93.5387 80.5228C91.9932 80.7577 90.7088 81.165 89.675 81.7341C88.6412 82.3032 87.8789 83.0081 87.3776 83.8539C86.8764 84.6998 86.631 85.6657 86.631 86.757C86.631 87.9213 86.9025 88.9238 87.4507 89.7644C87.999 90.605 88.7769 91.2524 89.8003 91.7015C90.8184 92.1505 92.0298 92.3802 93.4291 92.3802C94.4733 92.3802 95.4236 92.2445 96.2746 91.973C97.1309 91.7015 97.8984 91.2838 98.5876 90.7251C98.8226 90.5371 99.0471 90.3231 99.2664 90.0986V91.9521H104.247V79.1391C104.247 77.7399 103.898 76.5129 103.198 75.4529C102.498 74.3983 101.522 73.5733 100.264 72.9781L100.269 72.9728ZM98.3631 86.3393C97.9924 86.9919 97.4807 87.5088 96.8124 87.89C96.1493 88.2711 95.3766 88.4591 94.4994 88.4591C93.8363 88.4591 93.2776 88.292 92.8286 87.9631C92.3796 87.6289 92.1551 87.1694 92.1551 86.5742C92.1551 85.932 92.3535 85.4412 92.7607 85.0966C93.1628 84.752 93.7423 84.5118 94.5046 84.3656L98.9166 83.5772V84.1881C98.9166 84.9713 98.7338 85.6918 98.3631 86.3393Z" fill="#212121"></path>
<path d="M124.114 73.4375C122.621 72.5343 120.945 72.0852 119.097 72.0852C117.671 72.0852 116.408 72.3515 115.306 72.8841C114.612 73.2182 114.022 73.6516 113.51 74.1633V65H108.169V91.9469H113.15V90.0881C113.761 90.746 114.497 91.2681 115.374 91.644C116.502 92.1296 117.729 92.375 119.06 92.375C120.955 92.375 122.652 91.926 124.151 91.0227C125.644 90.1194 126.824 88.8977 127.691 87.3574C128.558 85.8171 128.991 84.1046 128.991 82.2301C128.991 80.3557 128.552 78.617 127.675 77.0872C126.798 75.5574 125.613 74.3408 124.114 73.4375ZM122.835 85.0078C122.407 85.8171 121.812 86.4437 121.055 86.8927C120.292 87.3417 119.415 87.5715 118.423 87.5715C117.431 87.5715 116.627 87.347 115.88 86.8927C115.134 86.4437 114.549 85.8119 114.137 85.0078C113.719 84.2038 113.515 83.2744 113.515 82.2301C113.515 81.1859 113.724 80.2617 114.137 79.4524C114.549 78.6483 115.134 78.0166 115.88 77.5675C116.627 77.1185 117.478 76.8888 118.423 76.8888C119.42 76.8888 120.298 77.1185 121.055 77.5832C121.812 78.0479 122.407 78.6745 122.835 79.4681C123.263 80.2617 123.477 81.1807 123.477 82.2249C123.477 83.2692 123.263 84.1933 122.835 85.0026V85.0078Z" fill="#212121"></path>
<path d="M137.465 65H132.124V91.9469H137.465V65Z" fill="#212121"></path>
<path d="M159.353 77.9069C158.924 76.7583 158.303 75.7401 157.483 74.8629C156.664 73.9858 155.661 73.3018 154.476 72.8162C153.291 72.3306 151.923 72.0852 150.382 72.0852C148.534 72.0852 146.869 72.5238 145.401 73.401C143.929 74.2782 142.759 75.479 141.898 76.9984C141.031 78.5178 140.598 80.2513 140.598 82.1936C140.598 84.1359 141.01 85.7754 141.846 87.3208C142.676 88.8663 143.851 90.0933 145.37 91.0071C146.889 91.9208 148.68 92.375 150.743 92.375C152.069 92.375 153.291 92.1766 154.408 91.7902C155.525 91.3986 156.491 90.8452 157.311 90.1351C158.131 89.425 158.726 88.5948 159.107 87.6446L154.836 85.6135C154.455 86.2766 153.928 86.7987 153.254 87.1799C152.575 87.561 151.766 87.749 150.816 87.749C149.772 87.749 148.879 87.5193 148.148 87.0546C147.412 86.5899 146.869 85.9477 146.508 85.1175C146.326 84.6893 146.205 84.2246 146.138 83.7286H159.749C159.843 83.4676 159.911 83.1543 159.948 82.7836C159.984 82.4181 160 82.0422 160 81.661C160 80.3087 159.786 79.0556 159.358 77.9069H159.353ZM148.002 77.035C148.665 76.586 149.464 76.3614 150.388 76.3614C151.312 76.3614 152.137 76.5912 152.789 77.0559C153.442 77.5206 153.896 78.1471 154.157 78.9407C154.246 79.2175 154.298 79.5099 154.33 79.8127H146.279C146.341 79.536 146.414 79.2749 146.508 79.0295C146.842 78.1523 147.338 77.4892 148.002 77.035Z" fill="#212121"></path>
</svg>