<svg width="51" height="51" viewBox="0 0 51 51" fill="none" xmlns="http://www.w3.org/2000/svg">
<path d="M45.114 29.2241C43.0791 40.1469 32.5789 47.2628 21.6514 45.1136C16.0505 44.0128 11.4319 40.6842 8.52942 36.2351L15.4891 30.5804L17.9834 36.1434C18.1046 36.4186 18.347 36.589 18.6213 36.5824C18.7935 36.5824 18.953 36.5103 19.0933 36.3924C19.0933 36.3924 19.0997 36.3924 19.1061 36.3858L29.1533 27.1863L31.5264 32.5461C31.6476 32.8213 31.89 32.9917 32.1643 32.9852C32.4322 32.9852 32.6045 32.8541 32.8532 32.651L45.3437 23.3859C45.5414 25.2861 45.484 27.2453 45.114 29.211M5.5631 21.453C7.59806 10.5302 18.0982 3.41427 29.0194 5.56345C33.7846 6.50044 37.8481 9.04932 40.7379 12.5286L32.5407 20.326L30.3462 15.4444C30.3462 15.4444 30.3335 15.4182 30.3271 15.4051C30.3143 15.3593 30.3016 15.3134 30.2824 15.2675C30.2442 15.1889 30.1995 15.1168 30.1421 15.0513C29.8805 14.7695 29.4723 14.7564 29.1725 15.0185L19.004 23.9167L16.8096 19.0351C16.6884 18.7665 16.4524 18.5961 16.1844 18.5961C15.9165 18.5961 15.6613 18.7534 15.5082 19.022L5.51845 28.6344C5.11018 26.3214 5.1038 23.897 5.55672 21.453M25.4853 0.000479415C11.4894 -0.0847015 0.0833838 11.1919 0.000454414 25.1813C-0.0824749 39.1772 11.1959 50.5914 25.1918 50.6766C39.1878 50.7618 50.5937 39.4851 50.6767 25.4958C50.7532 11.4999 39.4748 0.0856603 25.4853 0.000479415Z" fill="#FAB500"></path>
</svg>