<svg width="229" height="86" viewBox="0 0 229 86" fill="none" xmlns="http://www.w3.org/2000/svg">
<path d="M209.514 55.0489C205.929 55.0489 202.692 54.2273 199.804 52.584C196.966 50.891 194.7 48.5755 193.007 45.6376C191.364 42.6498 190.542 39.2388 190.542 35.4046C190.542 31.4707 191.364 28.0348 193.007 25.0969C194.7 22.1092 196.991 19.7937 199.879 18.1504C202.767 16.4574 206.004 15.6109 209.589 15.6109C213.224 15.6109 216.461 16.4574 219.299 18.1504C222.187 19.7937 224.453 22.1092 226.096 25.0969C227.789 28.0348 228.636 31.4458 228.636 35.3299C228.636 39.2139 227.789 42.6498 226.096 45.6376C224.453 48.5755 222.187 50.891 219.299 52.584C216.411 54.2273 213.149 55.0489 209.514 55.0489ZM209.514 46.3098C211.207 46.3098 212.701 45.9114 213.996 45.1147C215.34 44.318 216.386 43.098 217.133 41.4547C217.93 39.8115 218.328 37.7699 218.328 35.3299C218.328 32.8899 217.93 30.8732 217.133 29.2797C216.386 27.6365 215.34 26.4165 213.996 25.6198C212.701 24.7732 211.232 24.35 209.589 24.35C207.996 24.35 206.527 24.7732 205.182 25.6198C203.838 26.4165 202.767 27.6365 201.97 29.2797C201.223 30.8732 200.85 32.8899 200.85 35.3299C200.85 37.7699 201.223 39.8115 201.97 41.4547C202.767 43.098 203.813 44.318 205.107 45.1147C206.452 45.9114 207.921 46.3098 209.514 46.3098Z" fill="white"/>
<path d="M174.452 54.1526V16.5072H184.536V54.1526H174.452ZM179.531 11.3534C177.739 11.3534 176.245 10.8305 175.05 9.78481C173.904 8.68931 173.332 7.31994 173.332 5.67669C173.332 4.03343 173.904 2.68896 175.05 1.64325C176.245 0.547751 177.739 0 179.531 0C181.374 0 182.868 0.547751 184.013 1.64325C185.208 2.68896 185.806 4.03343 185.806 5.67669C185.806 7.31994 185.208 8.68931 184.013 9.78481C182.868 10.8305 181.374 11.3534 179.531 11.3534Z" fill="white"/>
<path d="M146.148 55.0489C143.011 55.0489 140.422 54.5509 138.38 53.555C136.338 52.5093 134.82 51.14 133.824 49.4469C132.878 47.7041 132.405 45.7869 132.405 43.6955C132.405 41.4049 132.977 39.3882 134.122 37.6454C135.318 35.9025 137.085 34.5332 139.426 33.5372C141.816 32.5413 144.804 32.0434 148.389 32.0434H157.726C157.726 30.2009 157.477 28.6822 156.979 27.4871C156.481 26.2422 155.709 25.321 154.663 24.7234C153.617 24.1259 152.223 23.8271 150.48 23.8271C148.588 23.8271 146.97 24.2504 145.625 25.0969C144.331 25.8936 143.534 27.1385 143.235 28.8316H133.45C133.699 26.1426 134.571 23.8271 136.065 21.8851C137.608 19.8933 139.625 18.3496 142.115 17.2541C144.654 16.1586 147.468 15.6109 150.555 15.6109C154.09 15.6109 157.153 16.2084 159.742 17.4035C162.332 18.5986 164.323 20.3165 165.718 22.5573C167.112 24.7981 167.809 27.5618 167.809 30.8483V54.1526H159.294L158.174 48.4012C157.626 49.3971 156.979 50.2934 156.232 51.0902C155.485 51.8869 154.613 52.584 153.617 53.1816C152.622 53.7791 151.501 54.2273 150.256 54.5261C149.011 54.8746 147.642 55.0489 146.148 55.0489ZM148.538 47.2808C149.833 47.2808 150.978 47.0567 151.974 46.6086C153.02 46.1106 153.916 45.4633 154.663 44.6665C155.41 43.82 155.983 42.8739 156.381 41.8282C156.829 40.7327 157.128 39.5625 157.277 38.3176V38.2429H149.584C148.04 38.2429 146.771 38.4421 145.775 38.8405C144.829 39.189 144.131 39.7119 143.683 40.409C143.235 41.1062 143.011 41.9029 143.011 42.7992C143.011 43.7951 143.235 44.6167 143.683 45.2641C144.131 45.9114 144.779 46.4094 145.625 46.7579C146.472 47.1065 147.443 47.2808 148.538 47.2808Z" fill="white"/>
<path d="M91 54.1526V1.86733H110.495C114.728 1.86733 118.213 2.58937 120.952 4.03344C123.691 5.47751 125.732 7.41953 127.077 9.85951C128.421 12.2497 129.094 14.9138 129.094 17.8517C129.094 20.6402 128.446 23.2545 127.152 25.6945C125.857 28.0847 123.815 30.0267 121.027 31.5206C118.288 32.9646 114.752 33.6867 110.42 33.6867H101.084V54.1526H91ZM118.114 54.1526L107.358 31.1471H118.263L129.616 54.1526H118.114ZM101.084 26.3667H109.897C112.935 26.3667 115.176 25.6198 116.62 24.1259C118.064 22.6321 118.786 20.6651 118.786 18.2252C118.786 15.7852 118.064 13.868 116.62 12.4738C115.226 11.0297 112.985 10.3077 109.897 10.3077H101.084V26.3667Z" fill="white"/>
<path d="M59.4658 2.08893C67.0444 2.08909 73.1883 8.23297 73.1885 15.8116V40.9698C73.1885 48.5486 67.0446 54.6933 59.4658 54.6934H46.2471L52.4297 47.0694H59.4658C62.8341 47.0692 65.5645 44.3381 65.5645 40.9698V15.8116C65.5642 12.4435 62.8339 9.71311 59.4658 9.71295H13.7227C10.3545 9.71304 7.62425 12.4434 7.62402 15.8116V40.9698C7.62402 44.3381 10.3543 47.0693 13.7227 47.0694H17.5205L15.167 54.6934H13.7227C6.14383 54.6933 0 48.5486 0 40.9698V15.8116C0.000223228 8.23293 6.14397 2.08901 13.7227 2.08893H59.4658Z" fill="#FAB500"/>
<path d="M49.9118 42.2747L28.0624 69.2283C27.3526 70.3975 26.1867 71.0889 24.7672 71.0889C24.2983 71.0889 23.8294 71.0889 23.3604 70.8501C21.4847 70.146 20.5342 68.2854 21.0031 66.4123L24.7419 54.6955H15.5534C14.3748 54.6955 12.968 54.2303 12.2583 53.0612C11.5485 52.1309 11.3204 50.7228 11.5485 49.5663L21.0918 18.9417C21.5608 17.0811 23.2083 15.9119 25.0967 15.9119H36.9466C38.3534 15.9119 39.5321 16.6159 40.2418 17.5462C40.9515 18.4765 41.1797 20.1109 40.7107 21.28L35.0456 36.4289L46.3886 36.19C47.7953 36.19 49.2148 36.894 49.9118 38.2895C50.6216 39.4586 50.6216 40.8541 49.9118 42.2621V42.2747Z" fill="#FAB500"/>
<path d="M91.314 81V68.4H95.616C96.624 68.4 97.452 68.568 98.1 68.904C98.748 69.24 99.228 69.69 99.54 70.254C99.852 70.818 100.008 71.46 100.008 72.18C100.008 72.864 99.852 73.494 99.54 74.07C99.24 74.634 98.766 75.09 98.118 75.438C97.47 75.774 96.636 75.942 95.616 75.942H93.114V81H91.314ZM93.114 74.448H95.544C96.492 74.448 97.164 74.244 97.56 73.836C97.968 73.416 98.172 72.864 98.172 72.18C98.172 71.448 97.968 70.884 97.56 70.488C97.164 70.092 96.492 69.894 95.544 69.894H93.114V74.448ZM109.473 81.216C108.585 81.216 107.781 81.042 107.061 80.694C106.341 80.334 105.765 79.794 105.333 79.074C104.913 78.342 104.703 77.412 104.703 76.284V68.4H106.503V76.302C106.503 77.058 106.629 77.682 106.881 78.174C107.133 78.654 107.481 79.014 107.925 79.254C108.381 79.482 108.909 79.596 109.509 79.596C110.121 79.596 110.649 79.482 111.093 79.254C111.537 79.014 111.879 78.654 112.119 78.174C112.371 77.682 112.497 77.058 112.497 76.302V68.4H114.297V76.284C114.297 77.412 114.081 78.342 113.649 79.074C113.217 79.794 112.635 80.334 111.903 80.694C111.171 81.042 110.361 81.216 109.473 81.216ZM119.679 81V68.4H124.341C125.217 68.4 125.949 68.544 126.537 68.832C127.125 69.108 127.563 69.492 127.851 69.984C128.151 70.464 128.301 71.01 128.301 71.622C128.301 72.258 128.163 72.792 127.887 73.224C127.611 73.656 127.245 73.992 126.789 74.232C126.345 74.46 125.865 74.592 125.349 74.628L125.601 74.448C126.153 74.46 126.657 74.61 127.113 74.898C127.569 75.174 127.929 75.546 128.193 76.014C128.457 76.482 128.589 76.998 128.589 77.562C128.589 78.21 128.433 78.798 128.121 79.326C127.809 79.842 127.347 80.25 126.735 80.55C126.123 80.85 125.373 81 124.485 81H119.679ZM121.479 79.506H124.251C125.043 79.506 125.655 79.326 126.087 78.966C126.531 78.594 126.753 78.072 126.753 77.4C126.753 76.74 126.525 76.212 126.069 75.816C125.625 75.42 125.007 75.222 124.215 75.222H121.479V79.506ZM121.479 73.836H124.143C124.899 73.836 125.475 73.662 125.871 73.314C126.267 72.954 126.465 72.462 126.465 71.838C126.465 71.238 126.267 70.764 125.871 70.416C125.475 70.056 124.881 69.876 124.089 69.876H121.479V73.836ZM133.616 81V68.4H135.416V79.578H141.176V81H133.616ZM146.164 81V68.4H147.964V81H146.164ZM159 81.216C157.764 81.216 156.696 80.946 155.796 80.406C154.908 79.854 154.218 79.092 153.726 78.12C153.246 77.136 153.006 75.996 153.006 74.7C153.006 73.416 153.246 72.282 153.726 71.298C154.218 70.314 154.908 69.552 155.796 69.012C156.696 68.46 157.764 68.184 159 68.184C160.476 68.184 161.67 68.538 162.582 69.246C163.506 69.954 164.094 70.95 164.346 72.234H162.366C162.186 71.49 161.814 70.896 161.25 70.452C160.698 70.008 159.948 69.786 159 69.786C158.148 69.786 157.41 69.984 156.786 70.38C156.162 70.776 155.682 71.34 155.346 72.072C155.01 72.804 154.842 73.68 154.842 74.7C154.842 75.72 155.01 76.602 155.346 77.346C155.682 78.078 156.162 78.642 156.786 79.038C157.41 79.422 158.148 79.614 159 79.614C159.948 79.614 160.698 79.404 161.25 78.984C161.814 78.552 162.186 77.97 162.366 77.238H164.346C164.094 78.486 163.506 79.464 162.582 80.172C161.67 80.868 160.476 81.216 159 81.216ZM168.323 81L172.949 68.4H174.911L179.537 81H177.611L173.921 70.56L170.213 81H168.323ZM170.411 77.886L170.915 76.446H176.837L177.341 77.886H170.411ZM184.212 81V68.4H188.082C189.546 68.4 190.758 68.658 191.718 69.174C192.678 69.69 193.386 70.422 193.842 71.37C194.31 72.306 194.544 73.422 194.544 74.718C194.544 76.014 194.31 77.13 193.842 78.066C193.386 79.002 192.678 79.728 191.718 80.244C190.77 80.748 189.558 81 188.082 81H184.212ZM186.012 79.488H188.01C189.174 79.488 190.098 79.296 190.782 78.912C191.466 78.528 191.952 77.982 192.24 77.274C192.54 76.554 192.69 75.702 192.69 74.718C192.69 73.722 192.54 72.864 192.24 72.144C191.952 71.424 191.466 70.872 190.782 70.488C190.098 70.104 189.174 69.912 188.01 69.912H186.012V79.488ZM205.26 81.216C204.048 81.216 202.98 80.946 202.056 80.406C201.144 79.854 200.424 79.092 199.896 78.12C199.38 77.136 199.122 75.996 199.122 74.7C199.122 73.416 199.38 72.288 199.896 71.316C200.424 70.332 201.144 69.564 202.056 69.012C202.98 68.46 204.048 68.184 205.26 68.184C206.496 68.184 207.576 68.46 208.5 69.012C209.424 69.564 210.138 70.332 210.642 71.316C211.158 72.288 211.416 73.416 211.416 74.7C211.416 75.996 211.158 77.136 210.642 78.12C210.138 79.092 209.424 79.854 208.5 80.406C207.576 80.946 206.496 81.216 205.26 81.216ZM205.278 79.614C206.142 79.614 206.898 79.416 207.546 79.02C208.194 78.624 208.692 78.06 209.04 77.328C209.4 76.596 209.58 75.72 209.58 74.7C209.58 73.68 209.4 72.804 209.04 72.072C208.692 71.34 208.194 70.782 207.546 70.398C206.898 70.002 206.142 69.804 205.278 69.804C204.414 69.804 203.658 70.002 203.01 70.398C202.362 70.782 201.858 71.34 201.498 72.072C201.138 72.804 200.958 73.68 200.958 74.7C200.958 75.72 201.138 76.596 201.498 77.328C201.858 78.06 202.362 78.624 203.01 79.02C203.658 79.416 204.414 79.614 205.278 79.614ZM216.463 81V68.4H220.729C221.725 68.4 222.541 68.568 223.177 68.904C223.813 69.24 224.281 69.69 224.581 70.254C224.893 70.806 225.049 71.436 225.049 72.144C225.049 72.816 224.893 73.44 224.581 74.016C224.281 74.58 223.807 75.036 223.159 75.384C222.511 75.72 221.683 75.888 220.675 75.888H218.263V81H216.463ZM223.087 81L220.369 75.402H222.349L225.175 81H223.087ZM218.263 74.52H220.603C221.491 74.52 222.145 74.304 222.565 73.872C222.985 73.428 223.195 72.864 223.195 72.18C223.195 71.484 222.991 70.932 222.583 70.524C222.175 70.116 221.515 69.912 220.603 69.912H218.263V74.52Z" fill="#848484"/>
</svg>
