<svg width="388" height="72" viewBox="0 0 388 72" fill="none" xmlns="http://www.w3.org/2000/svg">
<path d="M209.514 55.0489C205.929 55.0489 202.692 54.2273 199.804 52.584C196.966 50.891 194.7 48.5755 193.007 45.6376C191.364 42.6498 190.542 39.2388 190.542 35.4046C190.542 31.4707 191.364 28.0348 193.007 25.0969C194.7 22.1092 196.991 19.7937 199.879 18.1504C202.767 16.4574 206.004 15.6109 209.589 15.6109C213.224 15.6109 216.461 16.4574 219.299 18.1504C222.187 19.7937 224.453 22.1092 226.096 25.0969C227.789 28.0348 228.636 31.4458 228.636 35.3299C228.636 39.2139 227.789 42.6498 226.096 45.6376C224.453 48.5755 222.187 50.891 219.299 52.584C216.411 54.2273 213.149 55.0489 209.514 55.0489ZM209.514 46.3098C211.207 46.3098 212.701 45.9114 213.996 45.1147C215.34 44.318 216.386 43.098 217.133 41.4547C217.93 39.8115 218.328 37.7699 218.328 35.3299C218.328 32.8899 217.93 30.8732 217.133 29.2797C216.386 27.6365 215.34 26.4165 213.996 25.6198C212.701 24.7732 211.232 24.35 209.589 24.35C207.996 24.35 206.527 24.7732 205.182 25.6198C203.838 26.4165 202.767 27.6365 201.97 29.2797C201.223 30.8732 200.85 32.8899 200.85 35.3299C200.85 37.7699 201.223 39.8115 201.97 41.4547C202.767 43.098 203.813 44.318 205.107 45.1147C206.452 45.9114 207.921 46.3098 209.514 46.3098Z" fill="white"/>
<path d="M174.452 54.1526V16.5072H184.536V54.1526H174.452ZM179.531 11.3534C177.739 11.3534 176.245 10.8305 175.05 9.78481C173.904 8.68931 173.332 7.31994 173.332 5.67669C173.332 4.03343 173.904 2.68896 175.05 1.64325C176.245 0.547751 177.739 0 179.531 0C181.374 0 182.868 0.547751 184.013 1.64325C185.208 2.68896 185.806 4.03343 185.806 5.67669C185.806 7.31994 185.208 8.68931 184.013 9.78481C182.868 10.8305 181.374 11.3534 179.531 11.3534Z" fill="white"/>
<path d="M146.148 55.0489C143.011 55.0489 140.422 54.5509 138.38 53.555C136.338 52.5093 134.82 51.14 133.824 49.4469C132.878 47.7041 132.405 45.7869 132.405 43.6955C132.405 41.4049 132.977 39.3882 134.122 37.6454C135.318 35.9025 137.085 34.5332 139.426 33.5372C141.816 32.5413 144.804 32.0434 148.389 32.0434H157.726C157.726 30.2009 157.477 28.6822 156.979 27.4871C156.481 26.2422 155.709 25.321 154.663 24.7234C153.617 24.1259 152.223 23.8271 150.48 23.8271C148.588 23.8271 146.97 24.2504 145.625 25.0969C144.331 25.8936 143.534 27.1385 143.235 28.8316H133.45C133.699 26.1426 134.571 23.8271 136.065 21.8851C137.608 19.8933 139.625 18.3496 142.115 17.2541C144.654 16.1586 147.468 15.6109 150.555 15.6109C154.09 15.6109 157.153 16.2084 159.742 17.4035C162.332 18.5986 164.323 20.3165 165.718 22.5573C167.112 24.7981 167.809 27.5618 167.809 30.8483V54.1526H159.294L158.174 48.4012C157.626 49.3971 156.979 50.2934 156.232 51.0902C155.485 51.8869 154.613 52.584 153.617 53.1816C152.622 53.7791 151.501 54.2273 150.256 54.5261C149.011 54.8746 147.642 55.0489 146.148 55.0489ZM148.538 47.2808C149.833 47.2808 150.978 47.0567 151.974 46.6086C153.02 46.1106 153.916 45.4633 154.663 44.6665C155.41 43.82 155.983 42.8739 156.381 41.8282C156.829 40.7327 157.128 39.5625 157.277 38.3176V38.2429H149.584C148.04 38.2429 146.771 38.4421 145.775 38.8405C144.829 39.189 144.131 39.7119 143.683 40.409C143.235 41.1062 143.011 41.9029 143.011 42.7992C143.011 43.7951 143.235 44.6167 143.683 45.2641C144.131 45.9114 144.779 46.4094 145.625 46.7579C146.472 47.1065 147.443 47.2808 148.538 47.2808Z" fill="white"/>
<path d="M91 54.1526V1.86733H110.495C114.728 1.86733 118.213 2.58937 120.952 4.03344C123.691 5.47751 125.732 7.41953 127.077 9.85951C128.421 12.2497 129.094 14.9138 129.094 17.8517C129.094 20.6402 128.446 23.2545 127.152 25.6945C125.857 28.0847 123.815 30.0267 121.027 31.5206C118.288 32.9646 114.752 33.6867 110.42 33.6867H101.084V54.1526H91ZM118.114 54.1526L107.358 31.1471H118.263L129.616 54.1526H118.114ZM101.084 26.3667H109.897C112.935 26.3667 115.176 25.6198 116.62 24.1259C118.064 22.6321 118.786 20.6651 118.786 18.2252C118.786 15.7852 118.064 13.868 116.62 12.4738C115.226 11.0297 112.985 10.3077 109.897 10.3077H101.084V26.3667Z" fill="white"/>
<path d="M59.4658 2.08893C67.0444 2.08909 73.1883 8.23297 73.1885 15.8116V40.9698C73.1885 48.5486 67.0446 54.6933 59.4658 54.6934H46.2471L52.4297 47.0694H59.4658C62.8341 47.0692 65.5645 44.3381 65.5645 40.9698V15.8116C65.5642 12.4435 62.8339 9.71311 59.4658 9.71295H13.7227C10.3545 9.71304 7.62425 12.4434 7.62402 15.8116V40.9698C7.62402 44.3381 10.3543 47.0693 13.7227 47.0694H17.5205L15.167 54.6934H13.7227C6.14383 54.6933 0 48.5486 0 40.9698V15.8116C0.000223228 8.23293 6.14397 2.08901 13.7227 2.08893H59.4658Z" fill="#FAB500"/>
<path d="M49.9118 42.2747L28.0624 69.2283C27.3526 70.3975 26.1867 71.0889 24.7672 71.0889C24.2983 71.0889 23.8294 71.0889 23.3604 70.8501C21.4847 70.146 20.5342 68.2854 21.0031 66.4123L24.7419 54.6955H15.5534C14.3748 54.6955 12.968 54.2303 12.2583 53.0612C11.5485 52.1309 11.3204 50.7228 11.5485 49.5663L21.0918 18.9417C21.5608 17.0811 23.2083 15.9119 25.0967 15.9119H36.9466C38.3534 15.9119 39.5321 16.6159 40.2418 17.5462C40.9515 18.4765 41.1797 20.1109 40.7107 21.28L35.0456 36.4289L46.3886 36.19C47.7953 36.19 49.2148 36.894 49.9118 38.2895C50.6216 39.4586 50.6216 40.8541 49.9118 42.2621V42.2747Z" fill="#FAB500"/>
<path d="M245.387 55V41.7H249.928C250.992 41.7 251.866 41.8773 252.55 42.232C253.234 42.5867 253.741 43.0617 254.07 43.657C254.399 44.2523 254.564 44.93 254.564 45.69C254.564 46.412 254.399 47.077 254.07 47.685C253.753 48.2803 253.253 48.7617 252.569 49.129C251.885 49.4837 251.005 49.661 249.928 49.661H247.287V55H245.387ZM247.287 48.084H249.852C250.853 48.084 251.562 47.8687 251.98 47.438C252.411 46.9947 252.626 46.412 252.626 45.69C252.626 44.9173 252.411 44.322 251.98 43.904C251.562 43.486 250.853 43.277 249.852 43.277H247.287V48.084ZM264.555 55.228C263.617 55.228 262.769 55.0443 262.009 54.677C261.249 54.297 260.641 53.727 260.185 52.967C259.741 52.1943 259.52 51.2127 259.52 50.022V41.7H261.42V50.041C261.42 50.839 261.553 51.4977 261.819 52.017C262.085 52.5237 262.452 52.9037 262.921 53.157C263.402 53.3977 263.959 53.518 264.593 53.518C265.239 53.518 265.796 53.3977 266.265 53.157C266.733 52.9037 267.094 52.5237 267.348 52.017C267.614 51.4977 267.747 50.839 267.747 50.041V41.7H269.647V50.022C269.647 51.2127 269.419 52.1943 268.963 52.967C268.507 53.727 267.892 54.297 267.12 54.677C266.347 55.0443 265.492 55.228 264.555 55.228ZM275.328 55V41.7H280.249C281.174 41.7 281.947 41.852 282.567 42.156C283.188 42.4473 283.65 42.8527 283.954 43.372C284.271 43.8787 284.429 44.455 284.429 45.101C284.429 45.7723 284.284 46.336 283.992 46.792C283.701 47.248 283.315 47.6027 282.833 47.856C282.365 48.0967 281.858 48.236 281.313 48.274L281.579 48.084C282.162 48.0967 282.694 48.255 283.175 48.559C283.657 48.8503 284.037 49.243 284.315 49.737C284.594 50.231 284.733 50.7757 284.733 51.371C284.733 52.055 284.569 52.6757 284.239 53.233C283.91 53.7777 283.422 54.2083 282.776 54.525C282.13 54.8417 281.339 55 280.401 55H275.328ZM277.228 53.423H280.154C280.99 53.423 281.636 53.233 282.092 52.853C282.561 52.4603 282.795 51.9093 282.795 51.2C282.795 50.5033 282.555 49.946 282.073 49.528C281.605 49.11 280.952 48.901 280.116 48.901H277.228V53.423ZM277.228 47.438H280.04C280.838 47.438 281.446 47.2543 281.864 46.887C282.282 46.507 282.491 45.9877 282.491 45.329C282.491 44.6957 282.282 44.1953 281.864 43.828C281.446 43.448 280.819 43.258 279.983 43.258H277.228V47.438ZM290.039 55V41.7H291.939V53.499H298.019V55H290.039ZM303.284 55V41.7H305.184V55H303.284ZM316.833 55.228C315.528 55.228 314.401 54.943 313.451 54.373C312.514 53.7903 311.785 52.986 311.266 51.96C310.759 50.9213 310.506 49.718 310.506 48.35C310.506 46.9947 310.759 45.7977 311.266 44.759C311.785 43.7203 312.514 42.916 313.451 42.346C314.401 41.7633 315.528 41.472 316.833 41.472C318.391 41.472 319.651 41.8457 320.614 42.593C321.589 43.3403 322.21 44.3917 322.476 45.747H320.386C320.196 44.9617 319.803 44.3347 319.208 43.866C318.625 43.3973 317.834 43.163 316.833 43.163C315.934 43.163 315.155 43.372 314.496 43.79C313.837 44.208 313.331 44.8033 312.976 45.576C312.621 46.3487 312.444 47.2733 312.444 48.35C312.444 49.4267 312.621 50.3577 312.976 51.143C313.331 51.9157 313.837 52.511 314.496 52.929C315.155 53.3343 315.934 53.537 316.833 53.537C317.834 53.537 318.625 53.3153 319.208 52.872C319.803 52.416 320.196 51.8017 320.386 51.029H322.476C322.21 52.3463 321.589 53.3787 320.614 54.126C319.651 54.8607 318.391 55.228 316.833 55.228ZM326.674 55L331.557 41.7H333.628L338.511 55H336.478L332.583 43.98L328.669 55H326.674ZM328.878 51.713L329.41 50.193H335.661L336.193 51.713H328.878ZM343.446 55V41.7H347.531C349.077 41.7 350.356 41.9723 351.369 42.517C352.383 43.0617 353.13 43.8343 353.611 44.835C354.105 45.823 354.352 47.001 354.352 48.369C354.352 49.737 354.105 50.915 353.611 51.903C353.13 52.891 352.383 53.6573 351.369 54.202C350.369 54.734 349.089 55 347.531 55H343.446ZM345.346 53.404H347.455C348.684 53.404 349.659 53.2013 350.381 52.796C351.103 52.3907 351.616 51.8143 351.92 51.067C352.237 50.307 352.395 49.4077 352.395 48.369C352.395 47.3177 352.237 46.412 351.92 45.652C351.616 44.892 351.103 44.3093 350.381 43.904C349.659 43.4987 348.684 43.296 347.455 43.296H345.346V53.404ZM365.664 55.228C364.384 55.228 363.257 54.943 362.282 54.373C361.319 53.7903 360.559 52.986 360.002 51.96C359.457 50.9213 359.185 49.718 359.185 48.35C359.185 46.9947 359.457 45.804 360.002 44.778C360.559 43.7393 361.319 42.9287 362.282 42.346C363.257 41.7633 364.384 41.472 365.664 41.472C366.968 41.472 368.108 41.7633 369.084 42.346C370.059 42.9287 370.813 43.7393 371.345 44.778C371.889 45.804 372.162 46.9947 372.162 48.35C372.162 49.718 371.889 50.9213 371.345 51.96C370.813 52.986 370.059 53.7903 369.084 54.373C368.108 54.943 366.968 55.228 365.664 55.228ZM365.683 53.537C366.595 53.537 367.393 53.328 368.077 52.91C368.761 52.492 369.286 51.8967 369.654 51.124C370.034 50.3513 370.224 49.4267 370.224 48.35C370.224 47.2733 370.034 46.3487 369.654 45.576C369.286 44.8033 368.761 44.2143 368.077 43.809C367.393 43.391 366.595 43.182 365.683 43.182C364.771 43.182 363.973 43.391 363.289 43.809C362.605 44.2143 362.073 44.8033 361.693 45.576C361.313 46.3487 361.123 47.2733 361.123 48.35C361.123 49.4267 361.313 50.3513 361.693 51.124C362.073 51.8967 362.605 52.492 363.289 52.91C363.973 53.328 364.771 53.537 365.683 53.537ZM377.488 55V41.7H381.991C383.043 41.7 383.904 41.8773 384.575 42.232C385.247 42.5867 385.741 43.0617 386.057 43.657C386.387 44.2397 386.551 44.9047 386.551 45.652C386.551 46.3613 386.387 47.02 386.057 47.628C385.741 48.2233 385.24 48.7047 384.556 49.072C383.872 49.4267 382.998 49.604 381.934 49.604H379.388V55H377.488ZM384.48 55L381.611 49.091H383.701L386.684 55H384.48ZM379.388 48.16H381.858C382.796 48.16 383.486 47.932 383.929 47.476C384.373 47.0073 384.594 46.412 384.594 45.69C384.594 44.9553 384.379 44.3727 383.948 43.942C383.518 43.5113 382.821 43.296 381.858 43.296H379.388V48.16Z" fill="#848484"/>
</svg>
