<svg width="387" height="79" viewBox="0 0 387 79" fill="none" xmlns="http://www.w3.org/2000/svg">
<path d="M208.514 62.8984C204.929 62.8984 201.692 62.0768 198.804 60.4335C195.966 58.7405 193.7 56.425 192.007 53.487C190.364 50.4993 189.542 47.0883 189.542 43.2541C189.542 39.3202 190.364 35.8843 192.007 32.9464C193.7 29.9587 195.991 27.6432 198.879 25.9999C201.767 24.3069 205.003 23.4604 208.589 23.4604C212.224 23.4604 215.461 24.3069 218.299 25.9999C221.187 27.6432 223.453 29.9587 225.096 32.9464C226.789 35.8843 227.636 39.2953 227.636 43.1794C227.636 47.0634 226.789 50.4993 225.096 53.487C223.453 56.425 221.187 58.7405 218.299 60.4335C215.411 62.0768 212.149 62.8984 208.514 62.8984ZM208.514 54.1593C210.207 54.1593 211.701 53.7609 212.996 52.9642C214.34 52.1675 215.386 50.9475 216.133 49.3042C216.93 47.661 217.328 45.6194 217.328 43.1794C217.328 40.7394 216.93 38.7227 216.133 37.1292C215.386 35.486 214.34 34.266 212.996 33.4693C211.701 32.6227 210.232 32.1995 208.589 32.1995C206.995 32.1995 205.526 32.6227 204.182 33.4693C202.837 34.266 201.767 35.486 200.97 37.1292C200.223 38.7227 199.85 40.7394 199.85 43.1794C199.85 45.6194 200.223 47.661 200.97 49.3042C201.767 50.9475 202.812 52.1675 204.107 52.9642C205.452 53.7609 206.921 54.1593 208.514 54.1593Z" fill="white"/>
<path d="M173.452 62.0021V24.3567H183.536V62.0021H173.452ZM178.532 19.2029C176.739 19.2029 175.245 18.68 174.05 17.6343C172.905 16.5388 172.332 15.1694 172.332 13.5262C172.332 11.8829 172.905 10.5384 174.05 9.49274C175.245 8.39724 176.739 7.84949 178.532 7.84949C180.374 7.84949 181.868 8.39724 183.013 9.49274C184.208 10.5384 184.806 11.8829 184.806 13.5262C184.806 15.1694 184.208 16.5388 183.013 17.6343C181.868 18.68 180.374 19.2029 178.532 19.2029Z" fill="white"/>
<path d="M145.148 62.8984C142.011 62.8984 139.421 62.4004 137.38 61.4045C135.338 60.3588 133.819 58.9894 132.823 57.2964C131.877 55.5536 131.404 53.6364 131.404 51.545C131.404 49.2544 131.977 47.2377 133.122 45.4949C134.317 43.752 136.085 42.3826 138.425 41.3867C140.816 40.3908 143.803 39.8929 147.389 39.8929H156.725C156.725 38.0504 156.476 36.5317 155.978 35.3366C155.48 34.0917 154.709 33.1705 153.663 32.5729C152.617 31.9754 151.223 31.6766 149.48 31.6766C147.588 31.6766 145.969 32.0999 144.625 32.9464C143.33 33.7431 142.534 34.988 142.235 36.6811H132.45C132.699 33.9921 133.57 31.6766 135.064 29.7346C136.608 27.7428 138.625 26.1991 141.114 25.1036C143.654 24.0081 146.467 23.4604 149.555 23.4604C153.09 23.4604 156.153 24.0579 158.742 25.253C161.331 26.4481 163.323 28.166 164.717 30.4068C166.112 32.6476 166.809 35.4113 166.809 38.6978V62.0021H158.294L157.173 56.2507C156.626 57.2466 155.978 58.1429 155.231 58.9397C154.485 59.7364 153.613 60.4335 152.617 61.0311C151.621 61.6286 150.501 62.0768 149.256 62.3755C148.011 62.7241 146.642 62.8984 145.148 62.8984ZM147.538 55.1303C148.833 55.1303 149.978 54.9062 150.974 54.4581C152.02 53.9601 152.916 53.3128 153.663 52.516C154.41 51.6695 154.982 50.7234 155.381 49.6777C155.829 48.5822 156.128 47.412 156.277 46.1671V46.0924H148.584C147.04 46.0924 145.77 46.2916 144.774 46.69C143.828 47.0385 143.131 47.5614 142.683 48.2585C142.235 48.9557 142.011 49.7524 142.011 50.6487C142.011 51.6446 142.235 52.4662 142.683 53.1136C143.131 53.7609 143.778 54.2589 144.625 54.6074C145.472 54.956 146.443 55.1303 147.538 55.1303Z" fill="white"/>
<path d="M90 62.0021V9.71683H109.495C113.728 9.71683 117.213 10.4389 119.952 11.8829C122.691 13.327 124.732 15.269 126.077 17.709C127.421 20.0992 128.094 22.7633 128.094 25.7012C128.094 28.4897 127.446 31.104 126.152 33.544C124.857 35.9342 122.815 37.8762 120.027 39.37C117.288 40.8141 113.752 41.5362 109.42 41.5362H100.084V62.0021H90ZM117.114 62.0021L106.358 38.9966H117.263L128.616 62.0021H117.114ZM100.084 34.2162H108.897C111.935 34.2162 114.176 33.4693 115.62 31.9754C117.064 30.4816 117.786 28.5146 117.786 26.0746C117.786 23.6347 117.064 21.7175 115.62 20.3233C114.226 18.8792 111.985 18.1572 108.897 18.1572H100.084V34.2162Z" fill="white"/>
<path d="M244.387 62.8495V49.5495H248.928C249.992 49.5495 250.866 49.7268 251.55 50.0815C252.234 50.4362 252.741 50.9112 253.07 51.5065C253.399 52.1018 253.564 52.7795 253.564 53.5395C253.564 54.2615 253.399 54.9265 253.07 55.5345C252.753 56.1298 252.253 56.6112 251.569 56.9785C250.885 57.3332 250.005 57.5105 248.928 57.5105H246.287V62.8495H244.387ZM246.287 55.9335H248.852C249.853 55.9335 250.562 55.7182 250.98 55.2875C251.411 54.8442 251.626 54.2615 251.626 53.5395C251.626 52.7668 251.411 52.1715 250.98 51.7535C250.562 51.3355 249.853 51.1265 248.852 51.1265H246.287V55.9335ZM263.555 63.0775C262.617 63.0775 261.769 62.8938 261.009 62.5265C260.249 62.1465 259.641 61.5765 259.185 60.8165C258.741 60.0438 258.52 59.0622 258.52 57.8715V49.5495H260.42V57.8905C260.42 58.6885 260.553 59.3472 260.819 59.8665C261.085 60.3732 261.452 60.7532 261.921 61.0065C262.402 61.2472 262.959 61.3675 263.593 61.3675C264.239 61.3675 264.796 61.2472 265.265 61.0065C265.733 60.7532 266.094 60.3732 266.348 59.8665C266.614 59.3472 266.747 58.6885 266.747 57.8905V49.5495H268.647V57.8715C268.647 59.0622 268.419 60.0438 267.963 60.8165C267.507 61.5765 266.892 62.1465 266.12 62.5265C265.347 62.8938 264.492 63.0775 263.555 63.0775ZM274.328 62.8495V49.5495H279.249C280.174 49.5495 280.947 49.7015 281.567 50.0055C282.188 50.2968 282.65 50.7022 282.954 51.2215C283.271 51.7282 283.429 52.3045 283.429 52.9505C283.429 53.6218 283.284 54.1855 282.992 54.6415C282.701 55.0975 282.315 55.4522 281.833 55.7055C281.365 55.9462 280.858 56.0855 280.313 56.1235L280.579 55.9335C281.162 55.9462 281.694 56.1045 282.175 56.4085C282.657 56.6998 283.037 57.0925 283.315 57.5865C283.594 58.0805 283.733 58.6252 283.733 59.2205C283.733 59.9045 283.569 60.5252 283.239 61.0825C282.91 61.6272 282.422 62.0578 281.776 62.3745C281.13 62.6912 280.339 62.8495 279.401 62.8495H274.328ZM276.228 61.2725H279.154C279.99 61.2725 280.636 61.0825 281.092 60.7025C281.561 60.3098 281.795 59.7588 281.795 59.0495C281.795 58.3528 281.555 57.7955 281.073 57.3775C280.605 56.9595 279.952 56.7505 279.116 56.7505H276.228V61.2725ZM276.228 55.2875H279.04C279.838 55.2875 280.446 55.1038 280.864 54.7365C281.282 54.3565 281.491 53.8372 281.491 53.1785C281.491 52.5452 281.282 52.0448 280.864 51.6775C280.446 51.2975 279.819 51.1075 278.983 51.1075H276.228V55.2875ZM289.039 62.8495V49.5495H290.939V61.3485H297.019V62.8495H289.039ZM302.284 62.8495V49.5495H304.184V62.8495H302.284ZM315.833 63.0775C314.528 63.0775 313.401 62.7925 312.451 62.2225C311.514 61.6398 310.785 60.8355 310.266 59.8095C309.759 58.7708 309.506 57.5675 309.506 56.1995C309.506 54.8442 309.759 53.6472 310.266 52.6085C310.785 51.5698 311.514 50.7655 312.451 50.1955C313.401 49.6128 314.528 49.3215 315.833 49.3215C317.391 49.3215 318.651 49.6952 319.614 50.4425C320.589 51.1898 321.21 52.2412 321.476 53.5965H319.386C319.196 52.8112 318.803 52.1842 318.208 51.7155C317.625 51.2468 316.834 51.0125 315.833 51.0125C314.934 51.0125 314.155 51.2215 313.496 51.6395C312.837 52.0575 312.331 52.6528 311.976 53.4255C311.621 54.1982 311.444 55.1228 311.444 56.1995C311.444 57.2762 311.621 58.2072 311.976 58.9925C312.331 59.7652 312.837 60.3605 313.496 60.7785C314.155 61.1838 314.934 61.3865 315.833 61.3865C316.834 61.3865 317.625 61.1648 318.208 60.7215C318.803 60.2655 319.196 59.6512 319.386 58.8785H321.476C321.21 60.1958 320.589 61.2282 319.614 61.9755C318.651 62.7102 317.391 63.0775 315.833 63.0775ZM325.674 62.8495L330.557 49.5495H332.628L337.511 62.8495H335.478L331.583 51.8295L327.669 62.8495H325.674ZM327.878 59.5625L328.41 58.0425H334.661L335.193 59.5625H327.878ZM342.446 62.8495V49.5495H346.531C348.077 49.5495 349.356 49.8218 350.369 50.3665C351.383 50.9112 352.13 51.6838 352.611 52.6845C353.105 53.6725 353.352 54.8505 353.352 56.2185C353.352 57.5865 353.105 58.7645 352.611 59.7525C352.13 60.7405 351.383 61.5068 350.369 62.0515C349.369 62.5835 348.089 62.8495 346.531 62.8495H342.446ZM344.346 61.2535H346.455C347.684 61.2535 348.659 61.0508 349.381 60.6455C350.103 60.2402 350.616 59.6638 350.92 58.9165C351.237 58.1565 351.395 57.2572 351.395 56.2185C351.395 55.1672 351.237 54.2615 350.92 53.5015C350.616 52.7415 350.103 52.1588 349.381 51.7535C348.659 51.3482 347.684 51.1455 346.455 51.1455H344.346V61.2535ZM364.664 63.0775C363.384 63.0775 362.257 62.7925 361.282 62.2225C360.319 61.6398 359.559 60.8355 359.002 59.8095C358.457 58.7708 358.185 57.5675 358.185 56.1995C358.185 54.8442 358.457 53.6535 359.002 52.6275C359.559 51.5888 360.319 50.7782 361.282 50.1955C362.257 49.6128 363.384 49.3215 364.664 49.3215C365.968 49.3215 367.108 49.6128 368.084 50.1955C369.059 50.7782 369.813 51.5888 370.345 52.6275C370.889 53.6535 371.162 54.8442 371.162 56.1995C371.162 57.5675 370.889 58.7708 370.345 59.8095C369.813 60.8355 369.059 61.6398 368.084 62.2225C367.108 62.7925 365.968 63.0775 364.664 63.0775ZM364.683 61.3865C365.595 61.3865 366.393 61.1775 367.077 60.7595C367.761 60.3415 368.286 59.7462 368.654 58.9735C369.034 58.2008 369.224 57.2762 369.224 56.1995C369.224 55.1228 369.034 54.1982 368.654 53.4255C368.286 52.6528 367.761 52.0638 367.077 51.6585C366.393 51.2405 365.595 51.0315 364.683 51.0315C363.771 51.0315 362.973 51.2405 362.289 51.6585C361.605 52.0638 361.073 52.6528 360.693 53.4255C360.313 54.1982 360.123 55.1228 360.123 56.1995C360.123 57.2762 360.313 58.2008 360.693 58.9735C361.073 59.7462 361.605 60.3415 362.289 60.7595C362.973 61.1775 363.771 61.3865 364.683 61.3865ZM376.488 62.8495V49.5495H380.991C382.043 49.5495 382.904 49.7268 383.575 50.0815C384.247 50.4362 384.741 50.9112 385.057 51.5065C385.387 52.0892 385.551 52.7542 385.551 53.5015C385.551 54.2108 385.387 54.8695 385.057 55.4775C384.741 56.0728 384.24 56.5542 383.556 56.9215C382.872 57.2762 381.998 57.4535 380.934 57.4535H378.388V62.8495H376.488ZM383.48 62.8495L380.611 56.9405H382.701L385.684 62.8495H383.48ZM378.388 56.0095H380.858C381.796 56.0095 382.486 55.7815 382.929 55.3255C383.373 54.8568 383.594 54.2615 383.594 53.5395C383.594 52.8048 383.379 52.2222 382.948 51.7915C382.518 51.3608 381.821 51.1455 380.858 51.1455H378.388V56.0095Z" fill="#848484"/>
<path d="M69.6268 33.9936C69.62 33.6463 69.6082 33.2984 69.5906 32.9497C69.5798 32.7258 69.5685 32.5021 69.5533 32.2791C69.5368 32.0431 69.5143 31.8066 69.4928 31.5702C69.4469 31.0564 69.3896 30.5455 69.3209 30.0372C69.3059 29.9265 69.2919 29.816 69.2757 29.7052C69.2247 29.3538 69.169 29.004 69.1074 28.6556C69.1052 28.6435 69.1037 28.6314 69.1016 28.6193C69.0982 28.6003 69.0934 28.5819 69.09 28.5629C68.9923 28.0192 68.882 27.4795 68.7587 26.9436C68.744 26.8795 68.728 26.8161 68.713 26.7521C68.5991 26.2702 68.4762 25.7914 68.3421 25.3164C68.3067 25.1905 68.2691 25.0656 68.2323 24.9403C68.114 24.5391 67.9901 24.1404 67.8576 23.7448C67.7946 23.5556 67.7287 23.368 67.6625 23.1804C67.5478 22.8566 67.4295 22.5345 67.3053 22.2147C67.2116 21.9726 67.1147 21.7324 67.0159 21.4932C66.9072 21.2309 66.7958 20.9702 66.6808 20.711C66.5588 20.4355 66.4336 20.1623 66.3049 19.891C66.1979 19.6658 66.0883 19.4422 65.9765 19.2194C65.8338 18.9351 65.6883 18.6529 65.5382 18.3734C65.4219 18.1568 65.3026 17.9422 65.1818 17.7282C65.0319 17.4628 64.88 17.199 64.7234 16.9384C64.5803 16.6997 64.4331 16.4638 64.2843 16.2286C64.1458 16.0102 64.0067 15.7924 63.8636 15.5776C63.6715 15.2882 63.4734 15.0032 63.2728 14.7197C63.1697 14.5748 63.0676 14.4295 62.9624 14.2863C62.695 13.9205 62.4194 13.561 62.1379 13.2058C62.0988 13.1567 62.0604 13.107 62.0211 13.0582C56.684 6.39704 48.8949 1.65815 39.7693 0.353997C31.7119 -0.797509 23.897 0.914505 17.3535 4.69985C17.3428 4.70601 17.332 4.7121 17.3214 4.71827C16.8429 4.99571 16.3717 5.28413 15.9073 5.58357C15.8965 5.59051 15.8856 5.59734 15.8748 5.60432C8.50569 10.3674 2.97161 17.8574 0.893276 26.8679C0.872136 26.9583 0.852829 27.0493 0.832391 27.14C0.739523 27.5581 0.651842 27.9782 0.573989 28.4025C0.533113 28.6222 0.497698 28.8433 0.461112 29.0642C0.426008 29.2788 0.382792 29.4902 0.35155 29.7063C0.332633 29.8371 0.319683 29.9674 0.302326 30.0981C0.282005 30.2494 0.263556 30.4009 0.245264 30.5527C0.200721 30.9249 0.162926 31.2965 0.130631 31.6675C0.116862 31.8249 0.100715 31.9816 0.0891305 32.1394C0.0528957 32.6342 0.026451 33.1277 0.0116295 33.6196C0.00745605 33.7579 0.00843115 33.897 0.0059739 34.0356C-0.000929811 34.4201 -0.00213894 34.8036 0.00386768 35.186C0.00659797 35.3585 0.0106154 35.5311 0.0159589 35.704C0.0285962 36.1147 0.0487223 36.5239 0.0759861 36.9318C0.0833579 37.0424 0.0874533 37.1526 0.0959562 37.2633C0.134531 37.7665 0.18586 38.2669 0.246278 38.765C0.266989 38.9366 0.292029 39.1085 0.315354 39.2803C0.361691 39.6189 0.412825 39.9561 0.469108 40.2921C0.491847 40.4291 0.507098 40.5657 0.531514 40.7029C0.549729 40.8051 0.572507 40.9054 0.59158 41.0073C0.595325 41.027 0.599498 41.0465 0.603242 41.0662C3.15606 54.5638 13.3297 64.7904 25.899 68.1225L13.5313 50.3663C13.2292 49.9632 12.9367 49.5518 12.6574 49.1302L12.6421 49.1096L12.6427 49.1087C11.4685 47.3326 10.5024 45.3959 9.77964 43.3288L9.66052 42.9285C9.50037 42.4516 9.35196 41.9699 9.21919 41.4826L9.21112 41.4583L9.21202 41.4576C9.09875 41.0402 8.99574 40.6192 8.90303 40.1949C8.90197 40.1899 8.90104 40.185 8.89998 40.1801C8.8125 39.7788 8.73558 39.3741 8.66693 38.9671C8.65164 38.8754 8.63944 38.7839 8.62516 38.6923C8.57301 38.3617 8.52496 38.0301 8.48549 37.6963C8.46864 37.5524 8.45678 37.4091 8.44235 37.2654C8.41294 36.9752 8.38462 36.6848 8.36489 36.3925C8.35381 36.2272 8.34862 36.0625 8.3407 35.8974C8.32744 35.6227 8.31442 35.3479 8.30985 35.0715C8.307 34.897 8.31013 34.7234 8.31083 34.5494C8.3118 34.2824 8.31293 34.0154 8.32214 33.7471C8.32861 33.5608 8.3409 33.3755 8.35131 33.1899C8.36535 32.9376 8.37979 32.6854 8.40124 32.4323C8.41949 32.2186 8.4434 32.0062 8.46688 31.7937C8.4904 31.5784 8.51427 31.363 8.54325 31.1471C8.58038 30.8739 8.6229 30.6021 8.66857 30.331C8.69084 30.1971 8.7128 30.0631 8.73699 29.93C8.80353 29.5695 8.87576 29.2106 8.95708 28.8546C8.96317 28.8275 8.9691 28.8003 8.97526 28.7733C11.2933 18.7722 19.4064 10.5985 30.1915 8.69792C40.531 6.87589 50.5561 11.3077 56.329 19.2549C56.3383 19.2677 56.3474 19.2807 56.3566 19.2936C56.5803 19.6026 56.7962 19.918 57.0068 20.2375C57.0559 20.3124 57.1042 20.3879 57.1526 20.4633C57.3245 20.7299 57.4914 21.0002 57.654 21.2737C57.7227 21.3897 57.79 21.5065 57.857 21.6235C57.9975 21.8686 58.1344 22.1162 58.2673 22.3665C58.3398 22.5032 58.4108 22.6407 58.4809 22.7787C58.6054 23.0237 58.7264 23.2707 58.8435 23.5204C58.9077 23.6571 58.9705 23.7945 59.0324 23.9323C59.1517 24.1987 59.2671 24.4674 59.3779 24.7389C59.4262 24.857 59.4738 24.9753 59.5204 25.0942C59.6398 25.3995 59.7541 25.7077 59.8626 26.0191C59.8923 26.1043 59.9221 26.1894 59.951 26.275C60.0709 26.631 60.1841 26.9905 60.2892 27.354C60.3019 27.3978 60.315 27.4414 60.3274 27.4852C60.4435 27.8945 60.5511 28.3079 60.6481 28.7263C60.6488 28.7297 60.6497 28.733 60.6505 28.7364C60.7515 29.1732 60.842 29.6147 60.9214 30.0608C61.1231 31.1929 61.2442 32.3205 61.2969 33.4395C61.3021 33.554 61.3052 33.6689 61.3088 33.7837C61.3225 34.1876 61.3242 34.5898 61.3192 34.9909C61.3167 35.1592 61.3167 35.327 61.3111 35.4958C61.2987 35.8798 61.2736 36.2614 61.2445 36.6421C61.2225 36.9258 61.1952 37.2099 61.1638 37.4946C61.1273 37.8265 61.0891 38.1579 61.0401 38.4867C60.9882 38.8357 60.922 39.179 60.8569 39.5226C60.8152 39.7409 60.7785 39.9605 60.7313 40.1772C60.6726 40.4492 60.6023 40.716 60.5354 40.9844C60.4622 41.2757 60.3918 41.5678 60.3088 41.8557C60.2547 42.0446 60.1927 42.2296 60.1347 42.4166C60.0215 42.7784 59.907 43.1397 59.7786 43.4955C59.7344 43.6185 59.6854 43.739 59.6395 43.861C59.4853 44.2691 59.3253 44.6746 59.1514 45.0737C59.1133 45.1614 59.0723 45.2473 59.0332 45.3344C58.8457 45.7524 58.6495 46.1662 58.4408 46.5732C58.3955 46.6614 58.3481 46.7479 58.3019 46.8355C58.0974 47.2235 57.8842 47.6066 57.6609 47.9838C57.5889 48.1049 57.5146 48.2244 57.4408 48.3443C57.2423 48.6677 57.037 48.9866 56.8248 49.3012C56.704 49.4796 56.5806 49.6559 56.4556 49.831C56.2899 50.0643 56.1199 50.2945 55.9467 50.5224C55.755 50.773 55.5606 51.0212 55.3604 51.2644C55.2554 51.3929 55.1481 51.5194 55.0408 51.646C54.7583 51.9762 54.4716 52.3028 54.1736 52.6183C54.1581 52.6349 54.1422 52.6512 54.1267 52.6677C51.9711 54.9386 49.4242 56.8189 46.6124 58.2134L48.1712 66.5823C51.3583 65.2597 54.3233 63.4737 56.9735 61.3017L56.9924 61.3288C58.8898 59.7638 60.6062 58.0046 62.1235 56.0926C62.1457 56.0648 62.1677 56.0371 62.1897 56.0093C62.3587 55.795 62.5252 55.5792 62.6891 55.3611C62.7925 55.2244 62.8944 55.0866 62.9958 54.9482C63.0815 54.8307 63.1667 54.7128 63.2509 54.5941C63.418 54.3599 63.582 54.1233 63.7434 53.8846C63.7648 53.8528 63.7862 53.8211 63.8075 53.7893C65.4497 51.3435 66.7906 48.6675 67.7716 45.8046C67.7765 45.7904 67.7812 45.7761 67.7861 45.7619C67.8918 45.4519 67.9936 45.14 68.0909 44.8257C68.1201 44.7316 68.1484 44.6372 68.1769 44.5429C68.2474 44.3077 68.3163 44.0718 68.382 43.8343C68.4325 43.6532 68.4805 43.4713 68.528 43.2891C68.5681 43.1343 68.6081 42.9795 68.6461 42.8237C68.7121 42.5556 68.774 42.2862 68.8336 42.016C68.8505 41.9388 68.8678 41.8618 68.8842 41.7843C68.9577 41.4398 69.0255 41.0938 69.0885 40.7462C69.0907 40.7335 69.0932 40.7209 69.0954 40.7082C69.3663 39.2026 69.5374 37.6699 69.6033 36.1175C69.6053 36.0705 69.608 36.0236 69.6099 35.9767C69.6301 35.4502 69.6397 34.922 69.6353 34.3915C69.6345 34.2584 69.6292 34.1263 69.6268 33.9936Z" fill="#FAB500"/>
<path d="M42.2131 79L37.4908 49.9778H49L43.9309 21H24.8554L28.0735 39.1947H15L42.2131 79Z" fill="#FAB500"/>
</svg>
