<svg width="430" height="72" viewBox="0 0 430 72" fill="none" xmlns="http://www.w3.org/2000/svg">
<path d="M418.606 48.8071V27.4231H421.321L421.534 31.5386C421.986 30.5486 422.594 29.7142 423.358 29.0354C424.122 28.3565 425.041 27.8332 426.116 27.4655C427.191 27.0978 428.407 26.9139 429.765 26.9139V30.0112H428.619C427.714 30.0112 426.837 30.1385 425.989 30.3931C425.14 30.6194 424.39 31.0154 423.74 31.5811C423.089 32.1468 422.566 32.9105 422.17 33.8722C421.774 34.8339 421.576 36.0361 421.576 37.4786V48.8071H418.606Z" fill="#848484"/>
<path d="M404.696 49.3162C402.744 49.3162 400.976 48.8636 399.393 47.9585C397.837 47.0251 396.606 45.7239 395.701 44.0551C394.796 42.3579 394.344 40.3921 394.344 38.1575C394.344 35.8381 394.796 33.8439 395.701 32.1751C396.635 30.5062 397.893 29.2192 399.477 28.3141C401.061 27.3806 402.829 26.9139 404.781 26.9139C406.817 26.9139 408.614 27.3806 410.169 28.3141C411.725 29.2192 412.955 30.5062 413.861 32.1751C414.766 33.8439 415.218 35.8381 415.218 38.1575C415.218 40.3921 414.752 42.3579 413.818 44.0551C412.913 45.7239 411.668 47.0251 410.084 47.9585C408.529 48.8636 406.733 49.3162 404.696 49.3162ZM404.738 46.7705C406.068 46.7705 407.284 46.4452 408.387 45.7946C409.519 45.1441 410.424 44.1823 411.103 42.9095C411.81 41.6083 412.163 40.0102 412.163 38.1151C412.163 36.1916 411.824 34.5935 411.145 33.3206C410.466 32.0478 409.561 31.1002 408.43 30.4779C407.327 29.8274 406.11 29.5021 404.781 29.5021C403.508 29.5021 402.306 29.8274 401.175 30.4779C400.043 31.1285 399.124 32.0902 398.417 33.3631C397.738 34.6076 397.398 36.1916 397.398 38.1151C397.398 40.0102 397.738 41.6083 398.417 42.9095C399.095 44.1823 399.986 45.1441 401.09 45.7946C402.221 46.4452 403.437 46.7705 404.738 46.7705Z" fill="#848484"/>
<path d="M380.04 49.3162C377.947 49.3162 376.122 48.8353 374.567 47.8736C373.039 46.8836 371.851 45.54 371.003 43.8429C370.154 42.1458 369.73 40.2223 369.73 38.0726C369.73 35.9229 370.154 34.0136 371.003 32.3448C371.851 30.6476 373.053 29.3182 374.609 28.3565C376.165 27.3948 377.989 26.9139 380.082 26.9139C381.864 26.9139 383.434 27.3099 384.792 28.1019C386.178 28.8656 387.239 29.9546 387.974 31.3689V18.2585H390.944V48.807H388.229L387.974 44.946C387.55 45.6815 386.97 46.3886 386.234 47.0675C385.499 47.7463 384.608 48.2979 383.561 48.7222C382.543 49.1182 381.369 49.3162 380.04 49.3162ZM380.252 46.728C381.751 46.728 383.052 46.3745 384.155 45.6673C385.287 44.9319 386.178 43.9277 386.828 42.6549C387.479 41.3538 387.804 39.8405 387.804 38.115C387.804 36.3896 387.479 34.8763 386.828 33.5752C386.178 32.274 385.287 31.2699 384.155 30.5628C383.052 29.8556 381.751 29.502 380.252 29.502C378.809 29.502 377.508 29.8556 376.349 30.5628C375.217 31.2699 374.326 32.274 373.676 33.5752C373.053 34.848 372.742 36.3613 372.742 38.115C372.742 39.8688 373.067 41.3962 373.718 42.6973C374.369 43.9702 375.26 44.9602 376.391 45.6673C377.522 46.3745 378.809 46.728 380.252 46.728Z" fill="#848484"/>
<path d="M356.651 49.3162C354.926 49.3162 353.483 49.0051 352.324 48.3828C351.192 47.7605 350.344 46.9543 349.778 45.9643C349.24 44.9743 348.972 43.8853 348.972 42.6973C348.972 41.2265 349.339 39.9819 350.075 38.9636C350.839 37.9453 351.899 37.1816 353.257 36.6725C354.643 36.1633 356.227 35.9088 358.009 35.9088H363.779C363.779 34.5228 363.567 33.3489 363.143 32.3872C362.719 31.4255 362.096 30.7042 361.276 30.2234C360.484 29.7142 359.466 29.4596 358.221 29.4596C356.75 29.4596 355.492 29.8274 354.445 30.5628C353.398 31.2982 352.748 32.3731 352.493 33.7873H349.396C349.566 32.2882 350.075 31.0295 350.923 30.0112C351.8 28.9929 352.875 28.2292 354.148 27.7201C355.449 27.1826 356.807 26.9139 358.221 26.9139C360.173 26.9139 361.771 27.2958 363.016 28.0595C364.288 28.7949 365.222 29.8132 365.816 31.1143C366.438 32.4155 366.749 33.9146 366.749 35.6118V48.8071H364.034L363.907 44.9036C363.624 45.4976 363.256 46.0633 362.803 46.6008C362.379 47.1382 361.87 47.6049 361.276 48.0009C360.71 48.3969 360.046 48.7081 359.282 48.9343C358.518 49.1889 357.641 49.3162 356.651 49.3162ZM356.991 46.6856C358.066 46.6856 359.013 46.4735 359.833 46.0492C360.654 45.6249 361.361 45.0592 361.955 44.3521C362.549 43.6449 363.001 42.8388 363.313 41.9336C363.624 41.0285 363.779 40.1092 363.779 39.1758V38.4121H358.221C356.722 38.4121 355.52 38.5959 354.615 38.9636C353.71 39.3313 353.059 39.8263 352.663 40.4486C352.267 41.0709 352.069 41.7922 352.069 42.6125C352.069 43.4328 352.253 44.1541 352.621 44.7763C353.017 45.3703 353.582 45.8371 354.318 46.1765C355.053 46.5159 355.944 46.6856 356.991 46.6856Z" fill="#848484"/>
<path d="M337.029 49.3162C335.077 49.3162 333.309 48.8495 331.725 47.9161C330.17 46.9826 328.939 45.6815 328.034 44.0126C327.129 42.3155 326.676 40.3638 326.676 38.1575C326.676 35.8663 327.129 33.9005 328.034 32.2599C328.939 30.5911 330.17 29.2899 331.725 28.3565C333.309 27.3948 335.077 26.9139 337.029 26.9139C339.518 26.9139 341.583 27.5645 343.223 28.8656C344.892 30.1385 345.953 31.8356 346.406 33.9571H343.436C343.124 32.5428 342.375 31.4538 341.187 30.6901C340.027 29.8981 338.641 29.5021 337.029 29.5021C335.728 29.5021 334.526 29.8274 333.422 30.4779C332.319 31.1002 331.428 32.0478 330.749 33.3206C330.071 34.5935 329.731 36.2058 329.731 38.1575C329.731 39.6001 329.929 40.8588 330.325 41.9336C330.721 43.0085 331.259 43.9136 331.937 44.6491C332.645 45.3562 333.422 45.8936 334.271 46.2613C335.148 46.6291 336.067 46.8129 337.029 46.8129C338.075 46.8129 339.037 46.6432 339.914 46.3038C340.819 45.9361 341.583 45.4128 342.205 44.7339C342.827 44.0551 343.238 43.2348 343.436 42.2731H346.406C345.981 44.3379 344.935 46.0351 343.266 47.3645C341.597 48.6656 339.518 49.3162 337.029 49.3162Z" fill="#848484"/>
<path d="M319.911 48.8072V27.4233H322.881V48.8072H319.911ZM321.396 22.3743C320.802 22.3743 320.293 22.1763 319.869 21.7803C319.444 21.356 319.232 20.8327 319.232 20.2104C319.232 19.5598 319.43 19.0507 319.826 18.683C320.25 18.287 320.774 18.089 321.396 18.089C321.962 18.089 322.457 18.287 322.881 18.683C323.305 19.0507 323.517 19.5598 323.517 20.2104C323.517 20.8327 323.305 21.356 322.881 21.7803C322.485 22.1763 321.99 22.3743 321.396 22.3743Z" fill="#848484"/>
<path d="M312.193 48.807V18.2585H315.163V48.807H312.193Z" fill="#848484"/>
<path d="M298.483 49.3162C297.239 49.3162 296.093 49.1323 295.047 48.7646C294.028 48.3686 293.137 47.8453 292.374 47.1947C291.61 46.5159 291.002 45.7522 290.549 44.9036L290.295 48.807H287.579V18.2585H290.549V31.284C291.256 30.0678 292.275 29.0353 293.604 28.1868C294.934 27.3382 296.56 26.9139 298.483 26.9139C300.577 26.9139 302.401 27.4089 303.957 28.3989C305.512 29.3606 306.7 30.69 307.521 32.3872C308.369 34.056 308.794 35.9653 308.794 38.115C308.794 40.2648 308.369 42.1882 307.521 43.8853C306.672 45.5825 305.47 46.9119 303.914 47.8736C302.387 48.8353 300.577 49.3162 298.483 49.3162ZM298.271 46.728C299.77 46.728 301.072 46.3745 302.175 45.6673C303.306 44.9319 304.183 43.9277 304.805 42.6549C305.456 41.3538 305.781 39.8405 305.781 38.115C305.781 36.3613 305.456 34.848 304.805 33.5752C304.183 32.274 303.306 31.2699 302.175 30.5628C301.043 29.8556 299.742 29.502 298.271 29.502C296.8 29.502 295.485 29.8556 294.325 30.5628C293.194 31.2699 292.303 32.274 291.652 33.5752C291.03 34.8763 290.719 36.3896 290.719 38.115C290.719 39.8688 291.03 41.3962 291.652 42.6973C292.303 43.9702 293.194 44.9602 294.325 45.6673C295.485 46.3745 296.8 46.728 298.271 46.728Z" fill="#848484"/>
<path d="M273.091 49.3163C271.479 49.3163 270.051 49.0051 268.806 48.3828C267.59 47.7323 266.642 46.7423 265.963 45.4128C265.284 44.0834 264.945 42.4004 264.945 40.3638V27.4231H267.915V40.0244C267.915 42.2873 268.41 43.9703 269.4 45.0734C270.418 46.1765 271.818 46.7281 273.6 46.7281C274.873 46.7281 276.005 46.4311 276.995 45.8371C278.013 45.2148 278.805 44.3238 279.371 43.1641C279.965 42.0044 280.262 40.576 280.262 38.8788V27.4231H283.232V48.8071H280.516L280.347 44.9885C279.668 46.3463 278.678 47.407 277.377 48.1707C276.104 48.9344 274.675 49.3163 273.091 49.3163Z" fill="#848484"/>
<path d="M243 48.807V19.107H252.334C254.625 19.107 256.521 19.4889 258.02 20.2526C259.519 20.988 260.622 22.0063 261.329 23.3075C262.036 24.5803 262.39 26.037 262.39 27.6776C262.39 29.2899 262.036 30.7466 261.329 32.0477C260.622 33.3489 259.519 34.3813 258.02 35.145C256.549 35.8805 254.654 36.2482 252.334 36.2482H245.97V48.807H243ZM245.97 33.7449H252.334C254.852 33.7449 256.648 33.2075 257.723 32.1326C258.798 31.0295 259.335 29.5445 259.335 27.6776C259.335 25.7542 258.798 24.2692 257.723 23.2226C256.648 22.1478 254.852 21.6103 252.334 21.6103H245.97V33.7449Z" fill="#848484"/>
<path d="M209.514 55.0489C205.929 55.0489 202.692 54.2273 199.804 52.584C196.966 50.891 194.7 48.5755 193.007 45.6375C191.364 42.6498 190.542 39.2388 190.542 35.4046C190.542 31.4707 191.364 28.0348 193.007 25.0969C194.7 22.1092 196.991 19.7937 199.879 18.1504C202.767 16.4574 206.004 15.6109 209.589 15.6109C213.224 15.6109 216.461 16.4574 219.299 18.1504C222.187 19.7937 224.453 22.1092 226.096 25.0969C227.789 28.0348 228.636 31.4458 228.636 35.3299C228.636 39.2139 227.789 42.6498 226.096 45.6375C224.453 48.5755 222.187 50.891 219.299 52.584C216.411 54.2273 213.149 55.0489 209.514 55.0489ZM209.514 46.3098C211.207 46.3098 212.701 45.9114 213.996 45.1147C215.34 44.318 216.386 43.098 217.133 41.4547C217.93 39.8115 218.328 37.7699 218.328 35.3299C218.328 32.8899 217.93 30.8732 217.133 29.2797C216.386 27.6365 215.34 26.4165 213.996 25.6198C212.701 24.7732 211.232 24.35 209.589 24.35C207.996 24.35 206.527 24.7732 205.182 25.6198C203.838 26.4165 202.767 27.6365 201.97 29.2797C201.223 30.8732 200.85 32.8899 200.85 35.3299C200.85 37.7699 201.223 39.8115 201.97 41.4547C202.767 43.098 203.813 44.318 205.107 45.1147C206.452 45.9114 207.921 46.3098 209.514 46.3098Z" fill="white"/>
<path d="M174.452 54.1526V16.5072H184.536V54.1526H174.452ZM179.531 11.3534C177.739 11.3534 176.245 10.8305 175.05 9.78481C173.904 8.68931 173.332 7.31994 173.332 5.67669C173.332 4.03343 173.904 2.68896 175.05 1.64325C176.245 0.547751 177.739 0 179.531 0C181.374 0 182.868 0.547751 184.013 1.64325C185.208 2.68896 185.806 4.03343 185.806 5.67669C185.806 7.31994 185.208 8.68931 184.013 9.78481C182.868 10.8305 181.374 11.3534 179.531 11.3534Z" fill="white"/>
<path d="M146.148 55.0489C143.011 55.0489 140.422 54.5509 138.38 53.555C136.338 52.5093 134.82 51.1399 133.824 49.4469C132.878 47.7041 132.405 45.7869 132.405 43.6955C132.405 41.4049 132.977 39.3882 134.122 37.6454C135.318 35.9025 137.085 34.5331 139.426 33.5372C141.816 32.5413 144.804 32.0434 148.389 32.0434H157.726C157.726 30.2009 157.477 28.6822 156.979 27.4871C156.481 26.2422 155.709 25.321 154.663 24.7234C153.617 24.1259 152.223 23.8271 150.48 23.8271C148.588 23.8271 146.97 24.2504 145.625 25.0969C144.331 25.8936 143.534 27.1385 143.235 28.8316H133.45C133.699 26.1426 134.571 23.8271 136.065 21.8851C137.608 19.8933 139.625 18.3496 142.115 17.2541C144.654 16.1586 147.468 15.6109 150.555 15.6109C154.09 15.6109 157.153 16.2084 159.742 17.4035C162.332 18.5986 164.323 20.3165 165.718 22.5573C167.112 24.7981 167.809 27.5618 167.809 30.8483V54.1526H159.294L158.174 48.4012C157.626 49.3971 156.979 50.2934 156.232 51.0902C155.485 51.8869 154.613 52.584 153.617 53.1816C152.622 53.7791 151.501 54.2273 150.256 54.526C149.011 54.8746 147.642 55.0489 146.148 55.0489ZM148.538 47.2808C149.833 47.2808 150.978 47.0567 151.974 46.6086C153.02 46.1106 153.916 45.4633 154.663 44.6665C155.41 43.82 155.983 42.8739 156.381 41.8282C156.829 40.7327 157.128 39.5625 157.277 38.3176V38.2429H149.584C148.04 38.2429 146.771 38.4421 145.775 38.8405C144.829 39.189 144.131 39.7119 143.683 40.409C143.235 41.1062 143.011 41.9029 143.011 42.7992C143.011 43.7951 143.235 44.6167 143.683 45.2641C144.131 45.9114 144.779 46.4094 145.625 46.7579C146.472 47.1065 147.443 47.2808 148.538 47.2808Z" fill="white"/>
<path d="M91 54.1526V1.86732H110.495C114.728 1.86732 118.213 2.58936 120.952 4.03343C123.691 5.4775 125.732 7.41952 127.077 9.8595C128.421 12.2497 129.094 14.9137 129.094 17.8517C129.094 20.6402 128.446 23.2545 127.152 25.6945C125.857 28.0847 123.815 30.0267 121.027 31.5205C118.288 32.9646 114.752 33.6867 110.42 33.6867H101.084V54.1526H91ZM118.114 54.1526L107.358 31.1471H118.263L129.616 54.1526H118.114ZM101.084 26.3667H109.897C112.935 26.3667 115.176 25.6198 116.62 24.1259C118.064 22.6321 118.786 20.6651 118.786 18.2251C118.786 15.7852 118.064 13.868 116.62 12.4738C115.226 11.0297 112.985 10.3077 109.897 10.3077H101.084V26.3667Z" fill="white"/>
<path d="M59.4658 2.08893C67.0444 2.08909 73.1883 8.23297 73.1885 15.8116V40.9698C73.1885 48.5486 67.0446 54.6933 59.4658 54.6934H46.2471L52.4297 47.0694H59.4658C62.8341 47.0692 65.5645 44.3381 65.5645 40.9698V15.8116C65.5642 12.4435 62.8339 9.71311 59.4658 9.71295H13.7227C10.3545 9.71304 7.62425 12.4434 7.62402 15.8116V40.9698C7.62402 44.3381 10.3543 47.0693 13.7227 47.0694H17.5205L15.167 54.6934H13.7227C6.14383 54.6933 0 48.5486 0 40.9698V15.8116C0.000223228 8.23293 6.14397 2.08901 13.7227 2.08893H59.4658Z" fill="white"/>
<path d="M49.9117 42.2747L28.0623 69.2283C27.3525 70.3975 26.1865 71.0889 24.7671 71.0889C24.2982 71.0889 23.8292 71.0889 23.3603 70.8501C21.4846 70.146 20.5341 68.2854 21.003 66.4123L24.7417 54.6955H15.5533C14.3747 54.6955 12.9679 54.2303 12.2581 53.0612C11.5484 52.1309 11.3203 50.7228 11.5484 49.5663L21.0917 18.9417C21.5606 17.0811 23.2082 15.9119 25.0966 15.9119H36.9465C38.3533 15.9119 39.532 16.6159 40.2417 17.5462C40.9514 18.4765 41.1795 20.1109 40.7106 21.28L35.0455 36.4289L46.3884 36.19C47.7952 36.19 49.2147 36.894 49.9117 38.2895C50.6215 39.4586 50.6215 40.8541 49.9117 42.2621V42.2747Z" fill="#FAB500"/>
</svg>
