<svg width="32" height="32" viewBox="0 0 32 32" fill="none" xmlns="http://www.w3.org/2000/svg">
<rect width="32" height="32" rx="4" fill="#212121"/>
<path d="M23.2764 5.06931C25.6773 5.06944 27.6238 7.01601 27.624 9.41696V17.3877C27.624 19.7888 25.6775 21.7362 23.2764 21.7363H19.0889L21.0479 19.3203H23.2764C24.3435 19.3201 25.208 18.4548 25.208 17.3877V9.41696C25.2078 8.35003 24.3433 7.48448 23.2764 7.48434H8.7832C7.7162 7.48443 6.85081 8.35 6.85059 9.41696V17.3877C6.85059 18.4548 7.71606 19.3202 8.7832 19.3203H9.98633L9.24023 21.7363H8.7832C6.38204 21.7362 4.43555 19.7888 4.43555 17.3877V9.41696C4.43578 7.01598 6.38218 5.0694 8.7832 5.06931H23.2764Z" fill="white"/>
<path d="M20.2493 17.8014L13.3267 26.3412C13.1019 26.7116 12.7324 26.9307 12.2827 26.9307C12.1341 26.9307 11.9856 26.9307 11.837 26.855C11.2427 26.632 10.9415 26.0425 11.0901 25.449L12.2747 21.7367H9.36348C8.99005 21.7367 8.54434 21.5894 8.31947 21.2189C8.09461 20.9242 8.02233 20.4781 8.09461 20.1116L11.1182 10.4088C11.2668 9.8193 11.7888 9.44887 12.3871 9.44887H16.1415C16.5872 9.44887 16.9607 9.67192 17.1855 9.96667C17.4104 10.2614 17.4827 10.7792 17.3341 11.1497L15.5392 15.9493L19.133 15.8736C19.5787 15.8736 20.0285 16.0967 20.2493 16.5388C20.4742 16.9092 20.4742 17.3513 20.2493 17.7974V17.8014Z" fill="#FAB500"/>
</svg>
