<svg width="32" height="32" viewBox="0 0 32 32" fill="none" xmlns="http://www.w3.org/2000/svg">
<rect width="32" height="32" rx="4" fill="black"/>
<path d="M24.1367 3.77199C26.8226 3.77224 28.9999 5.95029 29 8.63625V17.5532C28.9998 20.2391 26.8226 22.4163 24.1367 22.4165H19.4512L21.6416 19.7144H24.1367C25.3303 19.7141 26.2977 18.7468 26.2979 17.5532V8.63625C26.2977 7.44264 25.3303 6.47439 24.1367 6.47414H7.92383C6.73003 6.47414 5.76186 7.44249 5.76172 8.63625V17.5532C5.76191 18.747 6.73007 19.7144 7.92383 19.7144H9.26953L8.43555 22.4165H7.92383C5.23772 22.4165 3.05976 20.2393 3.05957 17.5532V8.63625C3.05971 5.95014 5.23769 3.77199 7.92383 3.77199H24.1367Z" fill="white"/>
<path d="M20.75 18.0152L13.0058 27.5685C12.7543 27.9829 12.341 28.228 11.8379 28.228C11.6717 28.228 11.5055 28.228 11.3393 28.1433C10.6745 27.8938 10.3376 27.2344 10.5038 26.5704L11.8289 22.4176H8.57222C8.15446 22.4176 7.65585 22.2527 7.40429 21.8383C7.15274 21.5086 7.07188 21.0096 7.15274 20.5996L10.5352 9.7452C10.7014 9.08573 11.2854 8.67134 11.9547 8.67134H16.1547C16.6533 8.67134 17.0711 8.92087 17.3226 9.2506C17.5742 9.58033 17.6551 10.1596 17.4888 10.574L15.4809 15.9433L19.5013 15.8586C19.9999 15.8586 20.503 16.1081 20.75 16.6027C21.0016 17.0171 21.0016 17.5117 20.75 18.0108V18.0152Z" fill="#FAB500"/>
</svg>
