<svg width="32" height="32" viewBox="0 0 32 32" fill="none" xmlns="http://www.w3.org/2000/svg">
  <rect width="32" height="32" rx="7" fill="#1A1A1A"/>
  <svg x="4" y="3" width="24" height="26" viewBox="0 0 73.19 71.09">
    <path d="M49.9117 42.2747L28.0623 69.2283C27.3525 70.3975 26.1865 71.0889 24.7671 71.0889C24.2982 71.0889 23.8292 71.0889 23.3603 70.8501C21.4846 70.146 20.5341 68.2854 21.003 66.4123L24.7417 54.6955H15.5533C14.3747 54.6955 12.9679 54.2303 12.2581 53.0612C11.5484 52.1309 11.3203 50.7228 11.5484 49.5663L21.0917 18.9417C21.5606 17.0811 23.2082 15.9119 25.0966 15.9119H36.9465C38.3533 15.9119 39.532 16.6159 40.2417 17.5462C40.9514 18.4765 41.1795 20.1109 40.7106 21.28L35.0455 36.4289L46.3884 36.19C47.7952 36.19 49.2147 36.894 49.9117 38.2895C50.6215 39.4586 50.6215 40.8541 49.9117 42.2621V42.2747Z" fill="#FAB500"/>
  </svg>
</svg>
