<svg width="21" height="9" viewBox="0 0 21 9" fill="none" xmlns="http://www.w3.org/2000/svg">
<path d="M16.0914 2.53016C16.0914 2.66968 16.0473 2.75982 15.9561 2.75982C15.8649 2.75982 15.8209 2.6686 15.8209 2.53016V2.48294C15.8209 2.3445 15.8649 2.25435 15.9561 2.25435C16.0473 2.25435 16.0914 2.34664 16.0914 2.48401V2.53123M16.1965 2.51943V2.4926C16.1965 2.29406 16.1042 2.17493 15.9561 2.17493C15.808 2.17493 15.7157 2.29406 15.7157 2.49367V2.5205C15.7157 2.71904 15.808 2.83817 15.9561 2.83817C16.1042 2.83817 16.1965 2.71904 16.1965 2.51943ZM15.6782 2.63748L15.5848 2.61387C15.5666 2.70724 15.529 2.75982 15.4592 2.75982C15.3659 2.75982 15.324 2.66431 15.324 2.53016V2.48294C15.324 2.34879 15.3659 2.25435 15.4592 2.25435C15.5258 2.25435 15.5612 2.3005 15.5794 2.39386L15.676 2.37025C15.6524 2.25435 15.588 2.176 15.4592 2.176C15.3111 2.176 15.2188 2.29513 15.2188 2.49474V2.52157C15.2188 2.72012 15.3111 2.83924 15.4571 2.83924C15.5837 2.83924 15.6535 2.7609 15.6792 2.63748M15.1824 2.82851V2.78451H15.0933V2.22966H15.1824V2.18566H14.9012V2.22966H14.9902V2.78451H14.9012V2.82851H15.1824ZM14.8271 2.82851V2.18566H14.6683L14.5127 2.69758H14.5062L14.3506 2.18566H14.1896V2.82744H14.2819V2.29191H14.2895L14.4547 2.82744H14.5599L14.7241 2.29191H14.7316V2.82744H14.8271M14.0115 2.53016C14.0115 2.66968 13.9675 2.75982 13.8763 2.75982C13.785 2.75982 13.741 2.6686 13.741 2.53016V2.48294C13.741 2.3445 13.785 2.25435 13.8763 2.25435C13.9675 2.25435 14.0115 2.34664 14.0115 2.48401V2.53123M14.1167 2.51943V2.4926C14.1167 2.29406 14.0244 2.17493 13.8763 2.17493C13.7282 2.17493 13.6359 2.29406 13.6359 2.49367V2.5205C13.6359 2.71904 13.7282 2.83817 13.8763 2.83817C14.0244 2.83817 14.1167 2.71904 14.1167 2.51943ZM14.019 2.14488L13.9138 2H13.8387L13.7325 2.14488H13.7797L13.8752 2.06117L13.9707 2.14488H14.0201H14.019ZM13.564 2.82744V2.18566H13.4695V2.65894H13.4631L13.2259 2.18566H13.1122V2.82744H13.2055V2.33591H13.212L13.4588 2.82744H13.5629M12.9329 2.53016C12.9329 2.66968 12.8889 2.75982 12.7977 2.75982C12.7065 2.75982 12.6625 2.6686 12.6625 2.53016V2.48294C12.6625 2.3445 12.7065 2.25435 12.7977 2.25435C12.8889 2.25435 12.9329 2.34664 12.9329 2.48401V2.53123M13.0381 2.51943V2.4926C13.0381 2.29406 12.9458 2.17493 12.7966 2.17493C12.6475 2.17493 12.5562 2.29406 12.5562 2.49367V2.5205C12.5562 2.71904 12.6485 2.83817 12.7966 2.83817C12.9447 2.83817 13.0381 2.71904 13.0381 2.51943ZM12.5197 2.63748L12.4264 2.61387C12.4081 2.70724 12.3706 2.75982 12.3008 2.75982C12.2074 2.75982 12.1656 2.66431 12.1656 2.53016V2.48294C12.1656 2.34879 12.2074 2.25435 12.3008 2.25435C12.3674 2.25435 12.4028 2.3005 12.421 2.39386L12.5176 2.37025C12.494 2.25435 12.4296 2.176 12.3008 2.176C12.1527 2.176 12.0604 2.29513 12.0604 2.49474V2.52157C12.0604 2.72012 12.1527 2.83924 12.2987 2.83924C12.4253 2.83924 12.4951 2.7609 12.5208 2.63748M12.0475 2.82851V2.74909H11.7428V2.53231H11.9767V2.45611H11.7428V2.26508H12.0368V2.18566H11.6429V2.82744H12.0475" fill="white"></path>
<path d="M15.4034 3.83732C15.4034 3.82766 15.3959 3.81907 15.3852 3.81907H14.8861C14.8765 3.81907 14.8679 3.81156 14.8679 3.80083V3.70317C14.8679 3.69351 14.8765 3.68492 14.8861 3.68492H15.7586C15.8992 3.68492 16.0785 3.66775 16.1579 3.66775C16.1729 3.66775 16.1826 3.67848 16.1826 3.69243V4.35352H16.203C16.3564 3.97576 16.6784 3.63233 17.1796 3.63233C17.6496 3.63233 17.802 3.92424 17.802 4.21293C17.802 4.52846 17.6657 4.67978 17.362 4.67978C17.1023 4.67978 16.9585 4.52631 16.9585 4.27089C16.9585 4.09918 17.0078 3.98112 17.0078 3.89205C17.0078 3.84375 16.966 3.82444 16.9156 3.82444C16.7396 3.82444 16.5625 4.02834 16.4283 4.21723C16.3113 4.37284 16.2019 4.67656 16.2019 5.14018V6.79183C16.2019 6.80149 16.2094 6.81007 16.2201 6.81007H16.731C16.7406 6.81007 16.7492 6.81759 16.7492 6.82832V6.9292C16.7492 6.93886 16.7417 6.94744 16.731 6.94744H14.8786C14.869 6.94744 14.8604 6.93886 14.8604 6.9292V6.82832C14.8604 6.81866 14.869 6.81007 14.8786 6.81007H15.3862C15.3959 6.81007 15.4045 6.80256 15.4045 6.79183V3.83946M7.29755 2.43894C7.32116 2.37455 7.34799 2.33377 7.42848 2.33377H7.82235C7.83201 2.33377 7.84059 2.32518 7.84059 2.31552V2.21786C7.84059 2.2082 7.83201 2.19962 7.82235 2.19962H6.6429C6.63324 2.19962 6.62466 2.20713 6.62466 2.21786V2.31552C6.62466 2.32518 6.63217 2.33377 6.6429 2.33377H7.09365C7.13443 2.33377 7.1634 2.35523 7.1634 2.38313C7.1634 2.39708 7.15696 2.42821 7.14945 2.44967L5.93137 5.72078H5.9142L4.68324 2.3724C4.6811 2.36596 4.68002 2.35952 4.68002 2.3563C4.68002 2.34342 4.68646 2.33377 4.70578 2.33377H5.20052C5.21018 2.33377 5.21877 2.32625 5.21877 2.31659V2.21893C5.21877 2.20927 5.21018 2.20069 5.20052 2.20069H3.21618C3.20652 2.20069 3.19794 2.2082 3.19794 2.21893V2.31659C3.19794 2.32625 3.20545 2.33377 3.21618 2.33377H3.65619C3.68088 2.33377 3.6959 2.35094 3.70341 2.37133L5.4656 6.93242C5.46882 6.941 5.47956 6.94959 5.48921 6.94959H5.61049C5.62015 6.94959 5.6298 6.94315 5.6341 6.93242L7.29755 2.43894Z" fill="white"></path>
<path d="M13.9996 5.3269C13.9996 4.42112 13.8483 4.02726 13.6391 3.87272C13.5468 3.8051 13.3826 3.7654 13.2398 3.7654C13.0971 3.7654 12.9329 3.80618 12.8406 3.87272C12.6302 4.02726 12.4789 4.42112 12.4789 5.3269C12.4789 6.23268 12.6302 6.60508 12.8406 6.75962C12.9329 6.82723 13.0971 6.86694 13.2398 6.86694C13.3826 6.86694 13.5468 6.82616 13.6391 6.75962C13.8494 6.60508 13.9996 6.23268 13.9996 5.3269ZM13.2398 7.00001C12.2686 7.00001 11.6 6.34322 11.6 5.3269C11.6 4.31058 12.2718 3.63339 13.2398 3.63339C14.2078 3.63339 14.8797 4.31058 14.8797 5.3269C14.8797 6.34322 14.2111 7.00001 13.2398 7.00001Z" fill="white"></path>
<path d="M8.76354 5.00495C8.64119 5.0468 8.38363 5.11441 8.15825 5.16807C7.7762 5.26895 7.64419 5.47179 7.64419 6.04917C7.64419 6.50528 7.80625 6.80792 8.0842 6.80792C8.53602 6.80792 8.76354 6.41513 8.76354 6.07492V5.00602M11.1493 6.79289C11.1493 6.80255 11.1578 6.81114 11.1675 6.81114H11.6783C11.688 6.81114 11.6966 6.81972 11.6966 6.82938V6.93026C11.6966 6.93992 11.688 6.94851 11.6783 6.94851H9.44717C8.93847 6.94851 8.80647 6.72206 8.77856 6.54069H8.7571C8.62188 6.80363 8.3128 7.00002 7.91357 7.00002C7.30506 7.00002 6.78778 6.68557 6.78778 6.04165C6.78778 5.59198 7.0754 5.2389 7.94898 5.07578C8.15718 5.03714 8.41797 4.96953 8.565 4.92875C8.74851 4.87831 8.76139 4.84611 8.76139 4.76348V4.45761C8.76139 3.97038 8.57466 3.76862 8.1486 3.76862C7.92859 3.76862 7.78907 3.83194 7.78907 4.01975C7.78907 4.16034 7.80947 4.28054 7.80947 4.3943C7.80947 4.60894 7.67532 4.75811 7.40702 4.75811C7.13872 4.75811 6.99598 4.57674 6.99598 4.39215C6.99598 3.84911 7.61522 3.63662 8.18079 3.63662C9.24648 3.63662 9.57058 4.00687 9.57058 4.85684V6.37435C9.57058 6.73494 9.71117 6.81328 9.97947 6.81328H10.3347C10.3444 6.81328 10.3529 6.80577 10.3529 6.79504V2.352C10.3529 2.34234 10.3454 2.33376 10.3347 2.33376H9.83566C9.826 2.33376 9.81742 2.32517 9.81742 2.31551V2.21785C9.81742 2.20819 9.82493 2.19961 9.83566 2.19961H10.7275C10.8681 2.19961 11.0473 2.18243 11.1267 2.18243C11.1417 2.18243 11.1514 2.19317 11.1514 2.20712V6.79182L11.1493 6.79289Z" fill="white"></path>
</svg>