<svg width="22" height="9" viewBox="0 0 22 9" fill="none" xmlns="http://www.w3.org/2000/svg">
<path d="M12.0702 3.80135C12.0702 3.3329 12.0783 2.89676 12.1025 2.49292L10.8668 2.72715V2.84022L10.9879 2.85637C11.0767 2.86445 11.1333 2.89676 11.1656 2.94522C11.1979 3.00175 11.2221 3.08252 11.2383 3.20367C11.2544 3.4379 11.2706 3.97096 11.2625 4.81095C11.2625 5.64285 11.2544 6.16784 11.2383 6.36976C11.6825 6.46668 12.0298 6.50706 12.2883 6.50706C12.7729 6.50706 13.1525 6.36976 13.4271 6.08707C13.7017 5.81246 13.8471 5.42478 13.8471 4.94825C13.8471 4.56864 13.7421 4.25365 13.5321 4.00327C13.3221 3.75289 13.0555 3.63174 12.7406 3.63174C12.5306 3.63174 12.3125 3.68828 12.0702 3.80135ZM12.0944 6.28899C12.0783 6.03053 12.0621 5.25517 12.0621 3.98712C12.1348 3.96289 12.2317 3.94673 12.3529 3.94673C12.5467 3.94673 12.7002 4.04366 12.8132 4.24557C12.9263 4.44749 12.9829 4.68979 12.9829 4.99671C12.9829 5.37632 12.9182 5.68323 12.789 5.94169C12.6598 6.19207 12.4983 6.3213 12.2963 6.3213C12.2317 6.30514 12.1671 6.29707 12.0944 6.28899ZM6.2307 2.57369H3V2.73522L3.16961 2.75138C3.29884 2.77561 3.38768 2.82407 3.44422 2.89676C3.50076 2.97752 3.53307 3.10675 3.54114 3.28444C3.60576 4.15673 3.60576 4.97248 3.54114 5.72362C3.52499 5.90131 3.49268 6.03053 3.44422 6.1113C3.38768 6.19207 3.29884 6.24053 3.16961 6.25668L3 6.28091V6.44245H5.0838V6.28091L4.86573 6.26476C4.7365 6.24861 4.64766 6.19207 4.59112 6.11938C4.53458 6.03861 4.50227 5.90938 4.4942 5.73169C4.46997 5.40863 4.45381 5.03709 4.45381 4.62518L4.88996 4.63326C5.12418 4.64133 5.28572 4.81902 5.36649 5.1744H5.52802V3.85789H5.36649C5.28572 4.20519 5.13226 4.38288 4.88996 4.39096L4.45381 4.39903C4.45381 3.67212 4.46997 3.15521 4.4942 2.84022H5.13226C5.58456 2.84022 5.89148 3.13098 6.06916 3.71251L6.26301 3.65597L6.2307 2.57369ZM5.85109 5.06133C5.85109 5.48132 5.97224 5.82862 6.20647 6.10323C6.44069 6.37783 6.78799 6.50706 7.22414 6.50706C7.66028 6.50706 8.01566 6.36976 8.27412 6.08707C8.53257 5.81246 8.65372 5.46516 8.65372 5.04517C8.65372 4.62518 8.53257 4.27788 8.29835 4.00327C8.06412 3.72866 7.71682 3.59943 7.28068 3.59943C6.84453 3.59943 6.48915 3.73674 6.2307 4.01942C5.97224 4.29403 5.85109 4.64133 5.85109 5.06133ZM7.65221 4.14058C7.74913 4.3748 7.78951 4.68172 7.78951 5.05325C7.78951 5.90938 7.61182 6.32937 7.26452 6.32937C7.08683 6.32937 6.94953 6.20822 6.85261 5.96592C6.75569 5.72362 6.7153 5.4167 6.7153 5.05325C6.7153 4.20519 6.89299 3.7852 7.24029 3.7852C7.41798 3.77712 7.55528 3.89827 7.65221 4.14058ZM14.4771 6.10323C14.7436 6.36976 15.0828 6.50706 15.4866 6.50706C15.737 6.50706 15.9551 6.4586 16.1489 6.3536C16.3428 6.25668 16.4962 6.13553 16.6012 5.99015L16.5205 5.89323C16.3428 6.03053 16.1409 6.09515 15.9066 6.09515C15.5836 6.09515 15.3332 5.99015 15.1636 5.77208C14.9859 5.55401 14.9051 5.2794 14.9213 4.92402H16.6497C16.6497 4.53634 16.5528 4.22134 16.3509 3.97096C16.1489 3.72866 15.8663 3.60751 15.5028 3.60751C15.0505 3.60751 14.7032 3.75289 14.4528 4.03558C14.2024 4.31826 14.0813 4.66556 14.0813 5.07748C14.0813 5.49747 14.2105 5.83669 14.4771 6.10323ZM15.0747 4.07596C15.1636 3.88212 15.2767 3.7852 15.4301 3.7852C15.6724 3.7852 15.7936 4.09212 15.7936 4.71403L14.9374 4.73018C14.9455 4.48788 14.9859 4.2698 15.0747 4.07596ZM18.8223 3.75289C18.6043 3.65597 18.3297 3.59943 17.9985 3.59943C17.6593 3.59943 17.3928 3.68828 17.1908 3.85789C16.9889 4.0275 16.8839 4.2375 16.8839 4.48788C16.8839 4.70595 16.9485 4.87556 17.0697 4.99671C17.1908 5.11786 17.3847 5.22286 17.6351 5.3117C17.8612 5.39247 18.0227 5.47324 18.1035 5.54593C18.1843 5.6267 18.2327 5.71554 18.2327 5.83669C18.2327 5.94977 18.1924 6.05476 18.1035 6.13553C18.0227 6.22438 17.9097 6.26476 17.7643 6.26476C17.4089 6.26476 17.1424 6.0063 16.9566 5.48939L16.8193 5.52978L16.8516 6.33745C17.1424 6.45053 17.4655 6.50706 17.8208 6.50706C18.1924 6.50706 18.475 6.4263 18.685 6.25668C18.895 6.09515 19 5.86092 19 5.57016C19 5.37632 18.9516 5.21478 18.8466 5.09363C18.7416 4.97248 18.572 4.86748 18.3297 4.77056C18.0631 4.67364 17.8774 4.5848 17.7804 4.50403C17.6835 4.42326 17.6351 4.32634 17.6351 4.20519C17.6351 4.08404 17.6674 3.98712 17.7401 3.90635C17.8128 3.82558 17.9016 3.79328 18.0147 3.79328C18.3377 3.79328 18.572 4.0275 18.7173 4.48788L18.8547 4.44749L18.8223 3.75289ZM11.0525 3.6802C10.9394 3.62366 10.8183 3.59943 10.681 3.59943C10.5437 3.59943 10.4064 3.65597 10.2529 3.76905C10.0995 3.88212 9.98639 4.03558 9.89754 4.24557L9.90562 3.59943L8.67795 3.84174V3.95481L8.7991 3.96289C8.95256 3.97904 9.04141 4.10019 9.05756 4.31826C9.10602 4.81902 9.10602 5.35209 9.05756 5.91746C9.04141 6.13553 8.95256 6.24861 8.7991 6.27284L8.67795 6.28899V6.44245H10.3902V6.28899L10.1722 6.27284C10.0187 6.25668 9.92985 6.13553 9.91369 5.91746C9.86523 5.44901 9.85716 4.94825 9.89754 4.43134C9.946 4.35057 10.051 4.30211 10.2125 4.28596C10.3741 4.2698 10.5598 4.31826 10.7537 4.43134L11.0525 3.6802Z" fill="white"></path>
</svg>