<svg width="21" height="9" viewBox="0 0 21 9" fill="none" xmlns="http://www.w3.org/2000/svg">
<path d="M6.52734 6.94531C6.43904 6.9642 6.3493 6.97996 6.25781 6.98926L6.00195 7.00195C6.17909 7.0018 6.3552 6.98261 6.52734 6.94531ZM6.00195 7.00195L5.80566 6.99512C5.79191 6.99405 5.77838 6.99056 5.76465 6.98926C5.84278 6.99661 5.9219 7.00195 6.00195 7.00195ZM5.70508 6.98242C5.65235 6.97605 5.60002 6.96795 5.54785 6.95801C5.5998 6.96754 5.65206 6.97615 5.70508 6.98242ZM6.53613 6.94238C6.53313 6.94304 6.53035 6.94466 6.52734 6.94531C6.53035 6.94467 6.53313 6.94304 6.53613 6.94238ZM6.00195 1.99805C7.38366 1.99809 8.50391 3.11828 8.50391 4.5C8.50387 5.69818 7.66092 6.69749 6.53613 6.94238C6.70636 6.90484 6.87269 6.85 7.03223 6.77734C7.35588 6.6299 7.6443 6.41464 7.87793 6.14648C8.04052 5.96675 8.17457 5.76283 8.27441 5.54199C8.28487 5.50046 8.30601 5.46932 8.31641 5.42773C8.41679 5.05355 8.35709 4.72722 8.17285 4.50488L8.08691 4.41699C8.09556 4.35484 8.09839 4.29124 8.09668 4.22852C8.09658 3.67294 7.87626 3.13993 7.4834 2.74707C7.09049 2.35423 6.55756 2.13382 6.00195 2.13379C5.44813 2.13654 4.91802 2.35844 4.52734 2.75098C4.13673 3.14354 3.91708 3.67474 3.91699 4.22852C3.91699 4.34318 3.92708 4.44783 3.9375 4.5625C4.20849 3.85375 4.94874 3.34293 5.82422 3.34277C6.15865 3.33752 6.48953 3.41573 6.78613 3.57031C7.08267 3.72495 7.33626 3.95137 7.52344 4.22852C6.90853 4.22875 6.26281 4.76074 6.0752 5.42773C6.02666 5.57513 6.01249 5.73209 6.03418 5.88574C6.05591 6.03921 6.11286 6.18542 6.2002 6.31348H6.00195C5.50694 6.31074 5.02883 6.13374 4.65137 5.81348C4.27391 5.49321 4.02081 5.05046 3.9375 4.5625C3.87101 4.75348 3.8365 4.95405 3.83398 5.15625C3.83558 5.40408 3.88983 5.64921 3.99414 5.87402C4.08034 6.05977 4.20004 6.22715 4.34473 6.37109C3.82759 5.91276 3.50002 5.24535 3.5 4.5C3.5 3.11825 4.62021 1.99805 6.00195 1.99805ZM5.4502 6.93848C5.42498 6.93255 5.40003 6.92571 5.375 6.91895C5.40005 6.92542 5.42485 6.93277 5.4502 6.93848ZM4.68359 6.62305C4.85619 6.72671 5.03882 6.81334 5.23047 6.87695C5.27804 6.89315 5.3266 6.90587 5.375 6.91895C5.12733 6.85495 4.89528 6.75476 4.68359 6.62305ZM4.34473 6.37109C4.45011 6.46449 4.56347 6.5483 4.68359 6.62305C4.5995 6.57254 4.5169 6.51938 4.43848 6.45996C4.40579 6.43196 4.37514 6.40135 4.34473 6.37109Z" fill="white"></path>
<path d="M17.3749 5.17749C16.9892 5.17749 16.812 4.969 16.812 4.5833V2.18567H15.6132V3.96825C15.4772 3.67353 15.2596 3.42393 14.9862 3.24898C14.7128 3.07404 14.395 2.98106 14.0704 2.98106C13.7458 2.98106 13.428 3.07404 13.1546 3.24898C12.8812 3.42393 12.6636 3.67353 12.5276 3.96825V3.01963H11.3496V4.68754C11.3496 4.98985 11.1828 5.19834 10.9222 5.19834C10.6616 5.19834 10.4948 4.98985 10.4948 4.68754V3.01963H9.3064V4.70839C9.3064 5.74041 9.94229 6.38673 10.9222 6.38673C11.7144 6.38673 12.2774 5.9489 12.4546 5.24004C12.5697 5.57368 12.7852 5.86352 13.0716 6.06978C13.358 6.27604 13.7012 6.3886 14.0541 6.39203C14.4071 6.39546 14.7524 6.28957 15.0427 6.08891C15.3331 5.88825 15.5542 5.60265 15.6757 5.27131C15.853 6.0323 16.4263 6.36588 17.1977 6.36588H17.5V5.17749H17.3749ZM14.0704 5.19834C13.9694 5.19834 13.8706 5.16838 13.7866 5.11226C13.7026 5.05613 13.6371 4.97635 13.5985 4.88302C13.5598 4.78968 13.5497 4.68697 13.5694 4.58789C13.5891 4.4888 13.6378 4.39779 13.7092 4.32635C13.7806 4.25492 13.8716 4.20627 13.9707 4.18656C14.0698 4.16685 14.1725 4.17696 14.2659 4.21562C14.3592 4.25429 14.439 4.31976 14.4951 4.40376C14.5512 4.48776 14.5812 4.58651 14.5812 4.68754C14.5812 4.82301 14.5274 4.95294 14.4316 5.04873C14.3358 5.14452 14.2059 5.19834 14.0704 5.19834Z" fill="white"></path>
</svg>