<svg width="22" height="9" viewBox="0 0 22 9" fill="none" xmlns="http://www.w3.org/2000/svg">
<path d="M2.07129 5.87004V3.0819H3.50603V3.55275H2.59502V4.19395H3.2895V4.66494H2.59502V5.39877H3.54369V5.8699L2.07129 5.87004ZM4.89919 3.85815C4.85608 3.72673 4.80432 3.63158 4.74349 3.57243C4.68281 3.51313 4.60677 3.48356 4.51567 3.48356C4.42471 3.48356 4.35063 3.51062 4.30124 3.56475C4.25185 3.61874 4.2273 3.69352 4.2273 3.78867C4.2273 3.85815 4.25618 3.91953 4.3145 3.97213C4.37281 4.02514 4.4448 4.07578 4.53088 4.12461C4.61682 4.17344 4.71057 4.22576 4.81171 4.28087C4.91198 4.33566 5.00608 4.40105 5.09241 4.4759C5.1793 4.55165 5.25249 4.64179 5.30879 4.74237C5.36711 4.84561 5.39613 4.96894 5.39613 5.11319C5.39613 5.23415 5.3766 5.34339 5.33725 5.44132C5.29981 5.53673 5.24141 5.62251 5.16635 5.6923C5.09185 5.76164 4.99992 5.81535 4.8911 5.85274C4.78228 5.88999 4.65951 5.90855 4.52279 5.90855C4.30794 5.90855 4.12267 5.84688 3.96697 5.72328C3.81128 5.59953 3.69813 5.40017 3.6274 5.12477L4.14359 5.01274C4.1588 5.09785 4.18084 5.169 4.21014 5.22717C4.23916 5.28507 4.27292 5.33222 4.31059 5.36808C4.37424 5.43124 4.45991 5.46725 4.54957 5.46853C4.64081 5.46853 4.71726 5.43951 4.77935 5.38161C4.84115 5.32371 4.8724 5.2421 4.8724 5.13649C4.8724 5.04902 4.84338 4.97354 4.78521 4.91048C4.72112 4.84257 4.64831 4.78346 4.56869 4.7347C4.47722 4.67762 4.38359 4.6241 4.28799 4.57426C4.1888 4.52298 4.0948 4.46224 4.00729 4.39289C3.92252 4.32616 3.84936 4.24589 3.79077 4.15531C3.73259 4.06518 3.70357 3.95469 3.70357 3.82327C3.70357 3.58149 3.77263 3.39078 3.91033 3.25183C4.04803 3.11288 4.25381 3.04312 4.52697 3.04312C4.64332 3.04312 4.74838 3.05986 4.84199 3.09334C4.9356 3.12683 5.01777 3.17398 5.08892 3.23425C5.15952 3.29494 5.21867 3.36623 5.26527 3.44868C5.31186 3.53127 5.34688 3.62126 5.36962 3.71905L4.89919 3.85815ZM7.21787 3.08176V3.55275H6.60681V5.87004H6.08322V3.55275H5.47216V3.08176H7.21787ZM6.87607 5.87004L7.55549 3.08176H8.2271L8.8874 5.87018H8.38642L8.2536 5.28298H7.5287L7.38082 5.87018L6.87607 5.87004ZM7.62357 4.81199H8.14367L7.88948 3.68417H7.88167L7.62357 4.81199ZM8.99776 3.08176H9.72657C9.87584 3.08176 10.0087 3.09892 10.1252 3.1338C10.2414 3.16868 10.3401 3.22448 10.4211 3.30191C10.502 3.3792 10.5646 3.47909 10.6091 3.6013C10.6532 3.72366 10.678 3.87224 10.6831 4.04746V4.9049C10.678 5.08013 10.6532 5.22871 10.6091 5.35106C10.5649 5.47341 10.5023 5.57316 10.4211 5.65045C10.3401 5.72788 10.2414 5.78382 10.1252 5.81856C10.0087 5.85344 9.87584 5.8706 9.72657 5.8706H8.99776V3.08176ZM9.52134 5.39905H9.70355C9.84766 5.39905 9.95983 5.35845 10.0395 5.27726C10.1193 5.19606 10.1591 5.05125 10.1591 4.84268V4.10885C10.1591 3.91074 10.1243 3.76844 10.0547 3.68222C9.98522 3.59614 9.86817 3.55275 9.70355 3.55275H9.52134V5.39905ZM10.6754 5.87199L11.3548 3.08358H12.0263L12.6867 5.87199H12.1856L12.0528 5.28493H11.3279L11.18 5.87199H10.6754ZM12.3756 2.40764C12.3635 2.4674 12.347 2.52616 12.3261 2.58343C12.306 2.63881 12.28 2.68848 12.2482 2.73201C12.217 2.77552 12.1762 2.81119 12.1288 2.83622C12.0807 2.86203 12.0225 2.87487 11.9543 2.87487C11.9038 2.87487 11.8538 2.86775 11.8045 2.85352C11.7549 2.83957 11.7075 2.82395 11.6619 2.80721C11.6173 2.79083 11.5724 2.77534 11.5272 2.76075C11.485 2.7471 11.4408 2.74005 11.3964 2.73982C11.3484 2.73982 11.3103 2.75586 11.2827 2.78795C11.2545 2.82067 11.2349 2.85989 11.2258 2.90207H10.9868C10.997 2.84027 11.0127 2.78112 11.0342 2.72434C11.0545 2.66995 11.0832 2.61914 11.1194 2.5738C11.1549 2.53 11.1973 2.4954 11.2468 2.46959C11.2962 2.44378 11.3549 2.43094 11.4232 2.43094C11.4737 2.43094 11.5236 2.43862 11.573 2.45396C11.6225 2.46931 11.67 2.48549 11.7154 2.50223C11.7611 2.51897 11.8042 2.53516 11.8444 2.5505C11.8848 2.56585 11.9204 2.57352 11.9507 2.57352C11.9963 2.57352 12.0349 2.55734 12.0665 2.52525C12.0978 2.49316 12.1188 2.45368 12.1291 2.40737H12.3759L12.3756 2.40764ZM11.4227 4.8138H11.9428L11.6885 3.68599H11.6811L11.4227 4.8138ZM12.6948 3.97757C12.6948 3.80513 12.7163 3.65948 12.7594 3.54104C12.8025 3.42259 12.8618 3.32661 12.9377 3.25336C13.015 3.17918 13.1087 3.12422 13.2111 3.09292C13.3243 3.0585 13.442 3.04161 13.5602 3.04284C13.687 3.04284 13.8032 3.05958 13.9094 3.09306C14.0157 3.12655 14.1068 3.17998 14.1828 3.2535C14.2587 3.32689 14.318 3.42287 14.3611 3.54104C14.4041 3.65962 14.4257 3.80513 14.4257 3.97771V4.9741C14.4257 5.14654 14.4041 5.29219 14.3611 5.41063C14.318 5.52908 14.2587 5.62506 14.1827 5.6983C14.1055 5.77255 14.0119 5.82752 13.9094 5.85874C13.8032 5.89222 13.6867 5.90897 13.5602 5.90897C13.4338 5.90897 13.3175 5.89222 13.211 5.85874C13.1085 5.82753 13.0149 5.77256 12.9377 5.6983C12.8618 5.62478 12.8024 5.52908 12.7594 5.41063C12.7163 5.29205 12.6948 5.14695 12.6948 4.97396V3.97757ZM13.2185 5.04344C13.2185 5.19788 13.2488 5.30223 13.3096 5.35636C13.3703 5.41035 13.4538 5.43742 13.5599 5.43742C13.6662 5.43742 13.7497 5.41035 13.8103 5.35636C13.871 5.30223 13.9014 5.19815 13.9014 5.04344V3.90795C13.9014 3.75351 13.871 3.64916 13.8103 3.59503C13.7497 3.54104 13.6662 3.51397 13.5599 3.51397C13.4538 3.51397 13.3703 3.54104 13.3096 3.59503C13.2488 3.64916 13.2185 3.75337 13.2185 3.90795V5.04344ZM19.9155 3.31586C19.9289 3.29075 19.9323 3.26145 19.925 3.23411C19.925 3.23411 19.8698 3.06042 19.846 2.98132C19.8586 2.94574 19.9091 2.83929 19.9246 2.80707C19.9251 2.80595 19.9254 2.80473 19.9254 2.80349C19.9253 2.80225 19.925 2.80104 19.9244 2.79995C19.9239 2.79886 19.923 2.79793 19.922 2.79722C19.921 2.79652 19.9198 2.79607 19.9186 2.7959C19.878 2.79032 19.7302 2.7814 19.6355 2.92328C19.0906 2.87375 18.8032 3.0194 18.6095 3.21988C18.3597 3.47867 18.3276 3.78965 18.3156 3.82843C18.3131 3.8128 18.2836 3.76928 18.2836 3.76928C18.2836 3.76928 18.1867 3.79062 18.142 3.8202C18.1194 3.80308 18.0955 3.78751 18.0708 3.7736L18.0834 3.24681L18.2989 3.34028C18.3249 3.32661 18.4186 3.24164 18.4382 3.15724C18.4453 2.85478 18.3782 2.69532 18.3803 2.68876C18.3821 2.68318 18.3287 2.67411 18.2619 2.70146C18.2555 2.68798 18.2486 2.67472 18.2414 2.66169C18.3453 2.62821 18.4515 2.56487 18.5126 2.44615C18.5484 2.37667 18.3456 2.21386 18.3224 2.28571C18.2836 2.40569 18.2203 2.48744 18.1564 2.54283C18.1541 2.53902 18.151 2.53575 18.1473 2.53323C18.1436 2.5307 18.1395 2.52898 18.1351 2.52818C18.1058 2.52386 18.0089 2.58162 18.0017 2.60603C17.9989 2.61496 18.0036 2.62445 18.0081 2.63323C17.9877 2.64174 17.9665 2.64815 17.9448 2.65235L17.9434 2.63561L17.9517 2.61886C17.9538 2.61495 17.9542 2.61041 17.953 2.60616C17.9518 2.60192 17.9491 2.59828 17.9453 2.59598C17.924 2.58273 17.8839 2.55357 17.8662 2.51409C17.859 2.48892 17.8473 2.46528 17.8316 2.44434L17.7924 2.42187C17.7717 2.41 17.7544 2.39281 17.7425 2.37207L17.7273 2.34556C17.7273 2.34556 17.6722 2.33022 17.6242 2.34445C17.6166 2.34682 17.6073 2.34612 17.5995 2.34724C17.5754 2.35073 17.5519 2.3571 17.5293 2.36621C17.5014 2.37737 17.4753 2.393 17.4523 2.41225C17.4092 2.44838 17.3775 2.49749 17.3636 2.55176C17.3435 2.62989 17.3669 2.70676 17.4185 2.76744C17.4289 2.77958 17.44 2.79144 17.4516 2.80232C17.4541 2.80441 17.4851 2.82827 17.4854 2.82785C17.4683 2.85687 17.447 2.8785 17.439 2.89133C17.4456 2.89705 17.5014 2.91477 17.5014 2.91477C17.5014 2.91477 17.4657 2.92007 17.451 2.93249C17.4436 2.97043 17.4118 2.98773 17.4152 2.98857H17.416L17.3704 3.01396C17.305 3.04437 17.2638 3.13031 17.2666 3.20188L17.237 3.77304C17.2549 3.80708 17.2887 3.83401 17.3258 3.85396L17.3414 3.82159L17.6765 3.88089L17.8777 3.91646L17.8594 3.96069L17.8385 4.01175L17.7666 4.18586L17.6924 4.36625L17.5451 4.26608L17.4047 4.17065L17.3168 4.11094L17.2306 4.05235L17.2655 3.9798L17.2988 3.91018C17.2644 3.89428 17.2274 3.86526 17.1924 3.83624C17.1625 3.85745 17.1403 3.89316 17.1152 3.91967H17.1148C17.0522 3.89504 16.9872 3.87677 16.9209 3.86512C16.8112 3.846 16.6992 3.84422 16.589 3.85982C16.5022 3.87246 16.4175 3.89658 16.337 3.93153V3.93251C16.2998 3.94855 16.2642 3.96738 16.2303 3.98915C16.2303 3.98915 16.2126 4.0017 16.1875 4.02012C16.0983 3.81811 15.9315 3.56447 15.6512 3.60242C15.4227 3.63311 15.2681 3.8781 15.3059 4.14763C15.3119 4.19004 15.3222 4.2305 15.3363 4.26845L15.3373 4.27082C15.339 4.2831 15.4811 4.65141 15.4991 4.68796C15.5057 4.70972 15.5111 4.73121 15.5139 4.75088C15.5272 4.84519 15.473 4.93057 15.3931 4.94173C15.351 4.94731 15.3104 4.93141 15.2791 4.90127C15.3187 5.04678 15.4491 5.10357 15.5792 5.08166C15.7176 5.0585 15.7921 4.95303 15.8048 4.78199C15.8165 4.62602 15.7133 4.39345 15.7133 4.39345C15.7664 4.42512 15.8494 4.40615 15.8665 4.37029C15.8144 4.31853 15.8003 4.30179 15.7963 4.26468C15.7836 4.14652 15.8621 4.07132 15.9465 4.05974C15.9934 4.05318 16.0413 4.08109 16.0762 4.1214C15.9641 4.24836 15.8962 4.41438 15.8969 4.59616C15.8981 4.90239 15.9947 5.10064 15.9888 5.21015C15.9735 5.48541 15.7413 5.52684 15.7237 5.54958C15.7698 5.60971 15.8935 5.84758 15.8979 5.85302C15.8995 5.86376 15.8746 6.1566 15.8746 6.17111C15.8746 6.18562 15.8648 6.20124 15.8587 6.2177C15.8436 6.259 15.8193 6.32597 15.8193 6.36628C15.8193 6.3681 15.8193 6.36963 15.8202 6.37089C15.8202 6.37919 15.8224 6.38735 15.8264 6.39461C15.837 6.40465 15.8474 6.41567 15.8568 6.42739C15.8974 6.47482 15.9329 6.53467 15.9587 6.60359C15.9733 6.6428 15.9823 6.69428 15.9881 6.73222H16.239C16.233 6.6824 16.2204 6.63359 16.2014 6.58713C16.1659 6.50733 16.113 6.4426 16.0544 6.4006C16.0529 6.39879 16.0529 6.39781 16.0529 6.3967C16.0529 6.38107 16.01 6.23933 16.01 6.22454C16.01 6.20989 16.0162 6.15004 16.0162 6.13595C16.0162 6.12074 16.0457 5.96951 16.0696 5.88818C16.082 5.84521 16.1003 5.79261 16.1307 5.74657C16.1506 5.74694 16.1705 5.74498 16.19 5.74071C16.2246 5.71728 16.2518 5.69189 16.2777 5.65366C16.2832 5.62213 16.2803 5.59911 16.278 5.5793C16.2892 5.57581 16.3002 5.57107 16.3115 5.56646C16.3503 5.5507 16.3871 5.53131 16.4228 5.50815C16.4556 5.48694 16.4866 5.46309 16.5158 5.43672H16.5144C16.5144 5.43672 16.6762 5.29135 16.774 5.00354C16.774 5.00354 16.9375 4.94424 16.9736 4.89416C16.9736 4.89416 16.9376 4.9727 16.7726 5.04664C16.7607 5.25591 16.6798 5.36487 16.6375 5.40812C16.6558 5.43128 16.755 5.56716 16.7579 5.57163C16.7846 5.6644 16.7493 5.75243 16.7493 5.75243L16.7543 5.75299C16.7543 5.75299 16.9167 5.74504 17.0027 5.81187C17.0354 5.8374 17.0965 5.90227 17.1321 5.94887C17.1528 5.97509 17.2401 6.12939 17.2674 6.17683C17.3428 6.27909 17.1836 6.48947 17.174 6.51445L17.1794 6.51863L17.4036 6.7C17.4093 6.69037 17.4148 6.68046 17.4192 6.66986C17.4379 6.61964 17.4494 6.56537 17.4522 6.50733V6.50621C17.4508 6.31494 17.4261 6.16609 17.3934 6.11028C17.3708 6.07178 17.2616 5.89055 17.061 5.65101C17.0699 5.6351 17.089 5.61725 17.0928 5.60274C17.0919 5.56156 17.0849 5.52075 17.072 5.48164C17.0596 5.46267 17.0326 5.45234 17.0241 5.44635L17.0276 5.43937C17.0459 5.41551 17.0625 5.38929 17.077 5.35845C17.1063 5.2979 17.1272 5.2255 17.1356 5.14667C17.138 5.12798 17.1398 5.10859 17.1398 5.08906V5.07413C17.1406 5.07273 17.1412 5.07106 17.1427 5.0698C17.1695 5.08041 17.1973 5.09143 17.2264 5.10189C17.3761 5.15602 17.5532 5.20373 17.7457 5.23945C17.8544 5.25898 17.935 5.26163 18.0179 5.26163C18.0179 5.29958 18.0209 5.37561 18.0349 5.39249C18.1158 5.3798 18.1757 5.36599 18.2073 5.35859C18.3244 5.33125 18.5052 5.30544 18.5169 5.29525C18.5186 5.2949 18.5203 5.29471 18.5221 5.2947L18.5295 5.30167C18.5176 5.32316 18.4792 5.35887 18.4859 5.37185C18.5295 5.45318 18.5417 5.5627 18.5434 5.568C18.5537 5.63273 18.579 5.75983 18.579 5.77448C18.579 5.78899 18.5604 6.14069 18.5604 6.14069C18.5597 6.14153 18.5088 6.22608 18.4929 6.27951C18.4766 6.33336 18.4735 6.37996 18.4695 6.40591C18.5334 6.48975 18.559 6.71562 18.556 6.73222H18.8498C18.8431 6.67781 18.8111 6.48152 18.6885 6.35429C18.6885 6.33936 18.7068 6.08503 18.7068 6.06996C18.7068 6.05266 18.7086 6.03369 18.7117 6.01388C18.7228 5.93701 18.7498 5.84702 18.7498 5.7562C18.7498 5.75411 18.93 5.28256 18.9617 5.16635C18.923 5.15681 18.8881 5.13603 18.8612 5.10663C18.8443 5.08841 18.8311 5.06703 18.8225 5.04372C18.8138 5.0204 18.8098 4.99561 18.8107 4.97075C18.8113 4.96196 18.812 4.95359 18.8132 4.94536C18.7609 4.91202 18.7167 4.83849 18.6846 4.78394L18.6867 4.78255C18.711 4.81366 18.74 4.84114 18.7724 4.86375C18.7901 4.8763 18.8086 4.88718 18.828 4.89709C18.8485 4.90727 18.8697 4.91564 18.8919 4.92206C18.8626 4.99224 18.8842 5.10566 19.0159 5.11542C19.0299 5.1164 19.5499 5.0698 19.5623 5.07887C19.6008 5.10775 19.6772 5.1284 19.7039 5.13119C19.7188 5.26359 19.6742 5.74127 19.6742 5.75076C19.6684 5.75522 19.6108 5.80461 19.4758 5.96128L19.4773 5.96407L19.6024 6.2018L19.6043 6.20459C19.804 6.01737 19.8067 5.71532 19.8067 5.70988C19.8067 5.70919 19.8721 5.18867 19.8893 5.08375C19.8921 5.05711 19.8928 5.04748 19.8932 5.02572C19.8653 4.978 19.8361 4.92918 19.7863 4.9049C19.7424 4.90044 19.7036 4.91453 19.6596 4.92415C19.6596 4.92415 19.4362 4.88565 19.3852 4.87477C19.3679 4.87128 19.282 4.84393 19.2813 4.84393C19.2759 4.84212 19.2706 4.84045 19.2665 4.83807C19.2598 4.83375 19.2534 4.82873 19.2475 4.82426C19.2125 4.79698 19.1843 4.76186 19.1652 4.72172L19.1726 4.71503L19.3018 4.80641C19.4943 4.39736 19.2362 3.78518 19.2362 3.78518C19.2362 3.78518 19.3622 3.59572 19.3771 3.5794C19.3919 3.56322 19.551 3.83596 19.551 3.83596L19.5634 3.99319C19.5634 3.99319 19.5987 4.0942 19.7294 4.07299C19.885 4.04788 19.9116 3.94046 19.9116 3.94046L19.8705 3.42845C19.8692 3.41293 19.8724 3.39738 19.8798 3.38367L19.9161 3.31559L19.9155 3.31586ZM15.6237 3.85312C15.5641 3.88493 15.4749 3.9925 15.494 4.16563C15.4259 4.11708 15.4089 3.94604 15.4972 3.85424C15.4823 3.84894 15.4344 3.86582 15.4131 3.88047C15.4535 3.80457 15.541 3.67957 15.7005 3.6885C15.8153 3.69478 15.9011 3.73231 15.9962 3.8594C15.9075 3.7976 15.7385 3.79216 15.6237 3.85312ZM17.7725 4.94173L16.9241 4.74753C16.9496 4.65741 17.0319 4.4773 17.0914 4.34853C17.1111 4.30444 17.1177 4.29007 17.1177 4.29007C17.0724 4.18879 16.785 4.09573 16.5566 4.11987C16.3027 4.14638 16.0657 4.28868 15.9637 4.51943C16.0317 4.15642 16.3629 3.98273 16.5891 3.95273C16.6956 3.93878 16.8986 3.93683 17.0858 4.00714C17.0518 4.15084 17.1277 4.26245 17.2193 4.32244C17.2193 4.32244 17.0947 4.46223 17.0306 4.69647C17.0724 4.72395 17.7492 4.91397 17.7492 4.91397L17.8103 4.6263L17.7725 4.94173ZM18.3531 2.31375C18.3531 2.31375 18.3923 2.34542 18.3898 2.36537C18.3872 2.3856 18.3784 2.47363 18.1892 2.58217L18.1878 2.5752C18.1878 2.5752 18.3566 2.4308 18.3531 2.31375ZM17.9856 2.86692C17.9902 2.86268 17.9933 2.85711 17.9946 2.851C17.9958 2.84489 17.9951 2.83855 17.9925 2.83288L17.9434 2.72434L17.9484 2.69643C17.9522 2.69671 17.9778 2.69867 18.0168 2.69783C18.0177 2.71345 18.0078 2.73187 18.0253 2.73745C18.0645 2.74987 18.0724 2.74987 18.1242 2.75921C18.1278 2.75991 18.1312 2.76019 18.1344 2.76005C18.1428 2.76352 18.1503 2.76897 18.1561 2.77595C18.1478 2.78488 18.1395 2.79465 18.1316 2.80525C18.1289 2.80911 18.1273 2.81357 18.1268 2.81823C18.2058 2.93639 18.1822 3.02694 18.1772 3.06335L18.1766 3.07563C18.1765 3.07814 18.1762 3.07325 18.1766 3.07563C18.1763 3.07153 18.1765 3.0674 18.1772 3.06335C18.1784 3.02382 18.1723 2.98441 18.1591 2.94714L18.0244 2.90012C18.0185 2.89809 18.0123 2.89733 18.0061 2.89788C17.9999 2.89843 17.9939 2.90029 17.9884 2.90333C17.9798 2.90821 17.97 2.91393 17.9607 2.91854C17.9167 2.9403 17.8516 2.91254 17.8152 2.90235C17.7755 2.88701 17.7202 2.87305 17.6808 2.84501C17.6779 2.83148 17.6664 2.81125 17.6653 2.79535C17.6651 2.79018 17.6712 2.78419 17.6729 2.78377C17.6729 2.78377 17.6733 2.80693 17.6835 2.82911C17.7062 2.85617 17.8164 2.88561 17.8654 2.89719C17.9064 2.90375 17.9573 2.89273 17.9856 2.86692ZM17.7962 2.49219C17.7962 2.49219 17.8237 2.49777 17.824 2.51618C17.8238 2.52525 17.8247 2.53795 17.8212 2.54548C17.8161 2.55218 17.8429 2.57548 17.8386 2.58385C17.8284 2.60324 17.805 2.58943 17.8134 2.61091C17.8308 2.6197 17.8382 2.62138 17.846 2.62528C17.9118 2.65737 17.8746 2.69825 17.862 2.71206H17.8618C17.8462 2.72069 17.8281 2.72364 17.8106 2.72043C17.7939 2.71675 17.777 2.71418 17.7601 2.71276C17.7288 2.68036 17.7021 2.64379 17.6808 2.60408C17.6942 2.54311 17.7153 2.48354 17.7225 2.42132C17.7429 2.44015 17.7408 2.46484 17.7962 2.49219ZM17.6478 2.38867C17.6478 2.369 17.6988 2.37053 17.6945 2.39286C17.6814 2.46219 17.5781 2.72071 17.5781 2.72071L17.6478 2.38867ZM17.4633 2.5911C17.4601 2.60488 17.4575 2.6188 17.4556 2.63282C17.4541 2.64414 17.4528 2.65549 17.4517 2.66686C17.4496 2.68792 17.4448 2.72964 17.4587 2.74819C17.3835 2.6483 17.3844 2.56027 17.4636 2.46387C17.4868 2.43848 17.5269 2.40444 17.5854 2.39048C17.5718 2.40614 17.5599 2.42327 17.5501 2.44155C17.5064 2.48119 17.476 2.53346 17.4633 2.5911ZM17.5554 2.9869C17.5713 2.98564 17.6452 2.99806 17.6604 3.00238C17.6948 3.01229 17.6762 3.04396 17.7073 3.06153C17.7744 3.09948 17.7924 3.10381 17.8378 3.16575C17.8814 3.22504 17.9116 3.27541 17.9699 3.37251C17.9716 3.3753 17.978 3.3926 17.9781 3.39594C17.9785 3.40138 17.9785 3.40738 17.9748 3.41143C17.9174 3.31768 17.8365 3.23467 17.7387 3.13464C17.7142 3.10981 17.6889 3.19156 17.6903 3.19491C17.6713 3.15026 17.662 3.01215 17.4421 2.99541C17.4273 2.99429 17.5342 2.98843 17.5554 2.98704V2.9869ZM17.5682 3.64693C17.5682 3.638 17.4965 3.57619 17.4974 3.55694L17.591 3.34293L18.0265 3.56601L17.9543 3.71808L17.6561 3.62405C17.769 3.6726 17.856 3.71264 17.9543 3.76244C18.0141 3.79802 18.0864 3.81406 18.133 3.84643C18.1451 3.8548 18.1963 3.88716 18.2068 3.8947C18.0982 3.86261 17.7548 3.72198 17.5682 3.64693ZM18.2919 5.16802C18.2714 5.17053 18.2785 5.11375 18.2629 5.11375C18.1741 5.16537 18.2072 5.03562 18.2072 5.03562C18.37 4.3576 18.2302 4.37992 18.3969 4.2817C18.6111 4.15517 18.1492 4.06672 18.0756 3.99236C18.2386 4.02963 18.3975 4.08266 18.5501 4.1507C18.5558 4.15321 18.2838 5.02251 18.2838 5.02251V5.02474L18.334 5.09896C18.4339 5.12742 18.5193 5.13189 18.5629 5.15881C18.5544 5.15351 18.4621 5.14723 18.2919 5.16802ZM18.8139 3.72435C18.9075 3.76663 19.048 3.86373 19.0777 3.99877C19.0783 4.00156 18.9416 3.83554 18.6266 3.79899C18.5256 3.78727 18.4706 3.81294 18.411 3.84392C18.4671 3.63353 18.489 3.52025 18.6182 3.34014C18.7708 3.12724 19.063 3.01298 19.2672 3.01298C18.8985 3.0872 18.5292 3.596 18.8139 3.72449V3.72435ZM19.7559 3.34293C19.7559 3.34293 19.8279 3.83917 19.835 3.86777C19.8377 3.87782 19.8321 3.87991 19.8241 3.87851C19.7934 3.87293 19.7667 3.89958 19.7756 3.9293C19.782 3.95022 19.7886 3.9618 19.7487 3.96306C19.6765 3.96529 19.7125 3.89958 19.7125 3.89958L19.7487 3.81783C19.7341 3.28196 19.5469 3.31754 19.5469 3.31754C19.727 3.28196 19.6622 3.08888 19.6622 3.08888C19.7747 3.1112 19.7791 3.06 19.7901 3.11218C19.7976 3.14845 19.8494 3.20426 19.861 3.25587C19.8732 3.31014 19.7586 3.27303 19.7559 3.34293Z" fill="white"></path>
</svg>