<svg width="209" height="46" viewBox="0 0 209 46" fill="none" xmlns="http://www.w3.org/2000/svg">
<path d="M8.25414 33.85C7.78904 31.2838 10.9224 28.1831 16.5934 25.4822C6.40596 28.1872 -0.574693 32.2956 0.0372873 35.6697C0.800223 39.8556 12.9419 41.3284 27.1603 38.9621C28.2985 38.7745 29.4083 38.5623 30.5017 38.3379C18.2865 39.3171 8.93956 37.6035 8.25414 33.846V33.85Z" fill="#D1D1D1"/>
<path d="M54.0548 15.3723L49.2691 45.3635H33.9247L38.3921 17.2572L36.2461 17.2491L33.3453 35.5799L18.6007 35.5677L21.4403 17.2083L16.8137 17.1308L17.9071 9.44022L22.6275 9.37902C22.9335 6.9515 23.3211 4.50766 25.104 2.80635C29.1594 -1.06544 40.3382 0.0320414 47.2577 0.542025L46.4172 5.85809C42.2068 6.13961 37.8781 5.78058 37.413 9.40758L56.5639 9.5667C62.1166 9.61157 71.382 11.3578 72.765 16.0292C74.4296 21.6513 66.9063 26.898 61.0313 29.4765C64.0586 26.8041 68.4241 24.6867 68.0609 20.7129C67.706 16.8411 59.5993 15.4539 54.0588 15.3764L54.0548 15.3723Z" fill="#D1D1D1"/>
<path d="M134.998 35.5388L136.166 27.5668C136.227 27.1531 135.986 26.2267 135.752 25.9669C135.518 25.7071 134.839 25.5122 134.336 25.4951C132.866 25.4473 131.501 26.7224 131.256 28.1684L130.013 35.5491H125.256L128.349 15.8172L133.185 15.742L132.01 23.4885C133.878 21.5501 136.642 20.7331 138.998 22.186C140.679 23.2218 141.308 25.502 141.039 27.454L139.929 35.5525L134.995 35.5422L134.998 35.5388Z" fill="#D1D1D1"/>
<path d="M101.624 24.6303L101.21 28.1274L94.1363 28.1411L92.9817 35.5559L88 35.5354L90.9136 17.1197L103.156 17.1163L102.694 20.6989L95.2806 20.7024L94.5607 24.6371L101.624 24.6303Z" fill="#D1D1D1"/>
<path d="M122.892 35.4773L118.043 35.5627L121.082 15.7865L125.914 15.7625L122.892 35.4773Z" fill="#D1D1D1"/>
<path d="M198.836 32.4348C198.408 35.8396 193.882 36.5541 189.783 35.2209L190.116 33.3646C191.882 34.3697 193.732 34.7696 195.702 33.8637C196.221 33.6244 196.955 32.6091 197.02 32.0587C197.084 31.5084 196.585 30.3324 196.079 30.0213L193.097 28.1889C191.99 27.5087 191.274 26.2951 191.389 25.0097C191.651 22.0185 195.879 21.0784 199.638 22.333L199.159 24.0491C196.541 22.6612 193.457 23.1808 193.169 25.0576C193.094 25.5533 193.59 26.5686 194.045 26.8557L197.24 28.859C198.422 29.6008 199.006 31.081 198.836 32.4348Z" fill="#D1D1D1"/>
<path d="M208.107 32.4655C207.693 35.8772 203.057 36.537 199.023 35.2141L199.448 33.4398C202.531 35.197 206.127 34.1953 206.283 32.1237C206.327 31.5528 205.798 30.3255 205.271 29.9905L202.103 27.9873C201.193 27.4095 200.558 26.0831 200.65 25.061C200.921 22.0116 205.309 20.9758 209 22.4355L208.443 23.9568C205.621 22.7706 202.752 23.1603 202.494 25.0234C202.419 25.5601 202.979 26.6574 203.438 26.9412L206.446 28.818C207.679 29.5837 208.28 31.0571 208.107 32.469V32.4655Z" fill="#D1D1D1"/>
<path d="M172.784 35.026C172.671 35.802 170.851 35.6995 170.929 35.173L172.858 22.0663L174.251 22.1005C174.563 22.1073 174.498 23.0372 174.505 23.7106C175.517 22.1415 177.3 21.2561 179.3 22.0185L179.107 23.7893C173.829 22.4219 173.704 28.6504 172.78 35.0226L172.784 35.026Z" fill="#D1D1D1"/>
<path d="M116.437 24.0799C114.62 21.6493 111.567 21.2903 108.806 21.5604C104.636 21.9638 101.824 25.061 101.886 29.2624C101.94 32.9441 104.466 35.6209 108.219 35.7986C110.827 35.9251 113.771 35.7781 115.822 33.6415C118.257 31.1015 118.444 26.7668 116.433 24.0833L116.437 24.0799ZM111.519 31.7203C110.803 32.4519 109.421 32.6365 108.698 32.3698C106.548 31.5733 106.191 28.2197 107.984 25.9635C108.935 24.767 111.102 24.3089 112.093 25.6832C113.299 27.3582 113.068 30.1375 111.519 31.7203Z" fill="#D1D1D1"/>
<path d="M151.977 21.6664C149.614 21.2664 147.345 21.5604 144.914 22.1415L144.568 25.7755C146.391 24.9003 148.184 24.4456 150.205 24.9003C151.05 25.0917 151.672 26.2472 151.478 26.8694C148.84 26.7053 146.588 26.7429 144.384 27.683C142.269 28.5855 141.376 30.6879 141.837 32.804C142.292 34.8995 144.218 35.9866 146.778 35.8738C148.517 35.7986 149.882 35.091 150.85 34.0107L151.162 35.614L154.711 35.5251L155.988 27.1771C156.409 24.4217 154.663 22.1244 151.977 21.6698V21.6664ZM148.008 32.6262C147.468 32.6672 146.473 32.1203 146.279 31.7066C145.603 30.2811 148.055 29.0743 151.227 29.4162C150.836 31.1084 150.072 32.4621 148.008 32.6262Z" fill="#D1D1D1"/>
<path d="M168.844 23.9568C168.07 22.48 166.396 21.7894 165.051 21.7723C163.476 21.7518 162.114 22.4526 160.861 23.4303C160.854 23.1602 160.919 22.1108 160.613 22.1073L159.302 22.0937C159.007 22.0937 158.993 23.0885 159.024 23.3756L156.31 40.9469L158.134 40.8991L159.251 33.2723C160.355 34.9064 161.587 35.7918 163.068 35.8465C164.589 35.9012 166.202 35.5354 167.337 34.3731C169.938 31.7134 170.576 27.2693 168.841 23.9568H168.844ZM166.304 32.8689C165.421 34.0244 164.046 34.5201 162.759 34.3286C161.632 34.1577 160.484 33.0501 160.11 31.6895C159.404 29.129 160.076 26.4215 161.859 24.4798C162.728 23.5363 164.043 23.0782 165.167 23.3038C168.546 23.9807 168.719 29.7068 166.301 32.8689H166.304Z" fill="#D1D1D1"/>
<path d="M190.038 29.3239C190.343 27.1018 190.367 24.5995 188.693 23.0509C186.353 20.8835 182.356 21.5364 180.485 24.0422C178.784 26.3224 178.285 29.1393 178.933 31.8741C179.877 35.8636 184.289 36.5883 188.496 35.2311L188.408 33.6757C186.598 34.0825 185.606 34.3662 184.289 34.3389C181.575 34.2808 180.023 31.7784 180.533 29.3341L190.038 29.3239ZM183.718 23.5568C184.903 23.0338 186.577 23.2149 187.341 23.967C188.343 24.9516 188.527 26.4728 188.353 27.8026L180.737 27.7924C180.933 25.984 181.956 24.3328 183.715 23.5568H183.718Z" fill="#D1D1D1"/>
</svg>
