<svg width="21" height="9" viewBox="0 0 21 9" fill="none" xmlns="http://www.w3.org/2000/svg">
<path d="M3.50523 2.60826V2.41464H5.96228V3.62348H5.7584L5.41859 2.69199H4.74421V4.32471H5.27221L5.39245 3.8171H5.59634V5.1463H5.39245L5.27221 4.60206H4.74421V6.24524L5.23039 6.33419V6.52259H3.5V6.33419L3.88685 6.24524V2.68153L3.50523 2.60826ZM6.1923 4.70148C6.1923 3.37752 6.77258 2.85945 7.60902 2.85945C8.57093 2.85945 8.95778 3.44555 8.95778 4.73812C8.95778 6.05161 8.3775 6.58539 7.54106 6.58539C6.58438 6.58539 6.1923 5.99928 6.1923 4.70148ZM15.5395 6.52258H14.6142V6.36036L14.8809 6.2871L15.7591 2.91178H16.214L17.2281 6.2871L17.5 6.36036V6.52258H16.0989V6.36036L16.4231 6.2871L16.1407 5.42365H15.3775L15.1788 6.2871L15.5395 6.36036V6.52258ZM11.2789 6.52258H9.17735V6.36036L9.49102 6.2871V3.14727L9.19303 3.08971V2.92225H10.5784V3.08971L10.2543 3.14727V6.27663H10.8189L11.1168 5.43411H11.2789V6.52258ZM11.4932 3.08971V2.92225H12.8106V3.08971L12.5493 3.14727V4.61776H13.3439V3.14727L13.0981 3.08971V2.92225H14.3842V3.08971L14.1124 3.14727V6.2871L14.4104 6.36036V6.52258H13.0981V6.36036L13.3439 6.2871V4.86371H12.5493V6.2871L12.8106 6.36036V6.52258H11.4932V6.36036L11.7912 6.2871V3.15773L11.4932 3.08971ZM8.14748 4.74858C8.14748 3.28856 7.89132 3.06878 7.59334 3.06878C7.29012 3.06878 6.99737 3.25716 6.99737 4.69625C6.99737 6.15104 7.25876 6.38129 7.55674 6.38129C7.8495 6.38129 8.14748 6.18244 8.14748 4.74858ZM15.7225 4.02642L15.435 5.1777H16.0728L15.7225 4.02642Z" fill="white"></path>
</svg>