<svg width="22" height="9" viewBox="0 0 22 9" fill="none" xmlns="http://www.w3.org/2000/svg">
<path d="M4.82428 5.83409V5.78638C5.29936 5.78638 5.58167 5.50604 6.16849 4.66632L5.35164 3.48254C5.21049 3.27538 5.13044 3.19402 4.89126 3.19402V3.14665H6.64521V3.19402C6.44655 3.19402 6.41159 3.27212 6.41159 3.37079C6.41159 3.44757 6.45276 3.52175 6.49817 3.59461L6.89026 4.16967C7.15166 3.79621 7.33038 3.52926 7.33038 3.36426C7.33038 3.23879 7.23236 3.19402 7.06605 3.19402V3.14665H8.07078V3.19402C7.7094 3.19402 7.52218 3.39007 6.92915 4.22685L7.78129 5.47566C7.92865 5.68836 8.07731 5.78638 8.26061 5.78638V5.83409H6.58182V5.78638C6.7331 5.78638 6.78734 5.73084 6.78734 5.63805C6.78734 5.57662 6.74094 5.49265 6.67723 5.40279L6.20738 4.72284C5.87214 5.20969 5.77902 5.36522 5.77902 5.50375C5.77902 5.66876 5.90971 5.78638 6.13843 5.78638V5.83409H4.82428ZM17.5018 4.25724C17.5267 3.4662 17.6822 3.25447 17.8691 3.25447C18.056 3.25447 18.2422 3.42699 18.235 4.25724H17.5018ZM16.4772 4.49053C16.4772 5.64229 17.6495 6.22226 18.664 5.71777L18.6314 5.68509C17.9668 5.90989 17.4969 5.41423 17.4969 4.48988C17.4969 4.4474 17.4969 4.40623 17.4969 4.36637H19.1202C19.1202 3.55997 18.6627 3.06562 17.8668 3.06562C17.1166 3.06627 16.4772 3.71125 16.4772 4.49053ZM11.647 3.41229V3.36556L12.8977 3.06627V3.50737C13.1754 3.29923 13.4708 3.06823 13.7868 3.06823C14.1227 3.06823 14.3449 3.22768 14.4275 3.52861C14.7134 3.31557 15.0183 3.06823 15.3453 3.06823C15.7786 3.06823 16.023 3.33387 16.0223 3.82594V5.5116C16.0223 5.74358 16.0707 5.78671 16.2321 5.78671V5.83409H14.8696V5.78671C15.0147 5.78671 15.0683 5.71679 15.0683 5.54394V3.68642C15.0683 3.35315 14.7317 3.3966 14.4475 3.60997C14.4596 3.68131 14.4655 3.75357 14.4651 3.82594V5.5116C14.4651 5.74358 14.5135 5.78671 14.6749 5.78671V5.83409H13.311V5.78671C13.4564 5.78671 13.51 5.71679 13.51 5.54394V3.68642C13.51 3.35707 13.1817 3.3953 12.898 3.60245V5.59263C12.898 5.74391 12.9895 5.78704 13.1078 5.78704V5.83442H11.647V5.78704C11.8456 5.78704 11.941 5.64197 11.941 5.42076V3.72727C11.9423 3.51782 11.7401 3.41327 11.647 3.41327V3.41229ZM9.36663 5.15055C9.36663 4.81008 9.51595 4.48138 10.008 4.36898L10.0116 5.18355C9.99659 5.39364 9.83681 5.51029 9.68488 5.50833C9.50615 5.50702 9.36663 5.39658 9.36663 5.15153V5.15055ZM8.37791 5.29039C8.37791 5.78998 8.86149 5.91381 9.08727 5.91381C9.49341 5.91381 9.89301 5.6851 10.0231 5.36979C10.0737 5.74195 10.2929 5.91381 10.7092 5.91381C11.0745 5.91381 11.3111 5.76319 11.4607 5.48382L11.4231 5.45703C11.2245 5.6289 10.9657 5.49983 10.9657 5.15055V3.87234C10.9657 3.22637 10.142 2.89212 9.3931 3.1558L9.40094 3.20023C9.82178 3.2035 10.0038 3.48678 10.0038 3.98441V4.31115C8.79189 4.46014 8.37791 4.78492 8.37791 5.29137V5.29039ZM3.2324 4.25724C3.25756 3.4662 3.41276 3.25447 3.59998 3.25447C3.78721 3.25447 3.9728 3.42699 3.96593 4.25724H3.2324ZM2.20807 4.49053C2.20807 5.74424 3.60815 6.33956 4.66843 5.5727L4.63575 5.54002C3.8189 6.0236 3.22783 5.54198 3.22783 4.4902C3.22783 4.44773 3.22783 4.40656 3.22783 4.3667H4.85336C4.85336 3.5603 4.39592 3.06594 3.59998 3.06594C2.8475 3.06627 2.20807 3.71125 2.20807 4.49053ZM9.02649 4.12229C9.0797 4.12322 9.13255 4.11343 9.18188 4.0935C9.23122 4.07356 9.27604 4.0439 9.31367 4.00627C9.3513 3.96864 9.38096 3.92383 9.40089 3.87449C9.42083 3.82515 9.43062 3.7723 9.42969 3.7191C9.42969 3.63935 9.40605 3.5614 9.36174 3.49509C9.31744 3.42879 9.25447 3.37711 9.18079 3.34659C9.10712 3.31607 9.02605 3.30809 8.94783 3.32365C8.86962 3.3392 8.79778 3.3776 8.74139 3.43399C8.685 3.49038 8.6466 3.56222 8.63104 3.64044C8.61549 3.71865 8.62347 3.79972 8.65399 3.87339C8.68451 3.94707 8.73618 4.01004 8.80249 4.05434C8.8688 4.09865 8.94675 4.12229 9.02649 4.12229ZM19.3884 5.93342C19.4415 5.93443 19.4943 5.92475 19.5436 5.90495C19.5929 5.88516 19.6377 5.85565 19.6753 5.81818C19.713 5.78072 19.7427 5.73606 19.7627 5.68687C19.7828 5.63768 19.7927 5.58496 19.7919 5.53185C19.792 5.4521 19.7684 5.37411 19.7242 5.30776C19.6799 5.24141 19.6169 5.18968 19.5433 5.15911C19.4696 5.12855 19.3885 5.12052 19.3103 5.13604C19.2321 5.15156 19.1602 5.18993 19.1038 5.24631C19.0473 5.30268 19.0089 5.37453 18.9933 5.45275C18.9777 5.53097 18.9857 5.61206 19.0162 5.68575C19.0467 5.75944 19.0984 5.82243 19.1647 5.86675C19.231 5.91107 19.309 5.93473 19.3887 5.93473L19.3884 5.93342Z" fill="white"></path>
</svg>