<svg width="21" height="9" viewBox="0 0 21 9" fill="none" xmlns="http://www.w3.org/2000/svg">
<path d="M4.78589 3.96754L6.10156 3.97547V3.46999H5.34374V3.09386H5.84763L5.8508 2.6479H5.34136V2.32652H6.06506L6.06823 1.83533H4.78589V3.96754Z" fill="white"></path>
<path d="M6.26581 3.97546H6.78557L6.77922 2.79865C6.86492 2.76136 6.81414 2.77326 6.89825 2.75977C6.98236 2.74628 6.99903 2.86214 6.99903 2.92879V3.97546H7.55212L7.54894 2.81929C7.61481 2.74866 7.63623 2.77326 7.69574 2.77326C7.72511 2.77326 7.7624 2.81056 7.7624 2.88674V3.97625H8.29565V2.98593C8.29565 2.87959 8.2901 2.68121 8.25756 2.58361C8.20757 2.43125 8.07743 2.34872 7.9219 2.34872C7.65369 2.34872 7.65051 2.53441 7.57354 2.65027L7.5291 2.64709C7.46562 2.44236 7.39579 2.34872 7.17043 2.35587C7.09981 2.35825 6.89508 2.45347 6.82604 2.64709L6.78795 2.65027V2.34476H6.2666V3.97546H6.26581Z" fill="white"></path>
<path d="M8.41473 2.34476H8.81785V2.66058L8.85435 2.65741C8.94243 2.47331 9.02972 2.34555 9.2154 2.34555C9.48044 2.34555 9.57487 2.56774 9.60423 2.68518C9.63677 2.81453 9.66295 2.99069 9.66295 3.22081C9.66295 3.55965 9.60106 3.712 9.52409 3.82627C9.46774 3.90959 9.37411 3.97704 9.20033 3.97704C9.01147 3.97704 8.94005 3.84849 8.87022 3.70328H8.84959V4.40952H8.41394V2.34476H8.41473ZM8.86387 3.49537C8.89482 3.57393 8.90593 3.62789 8.99322 3.62075C9.04321 3.61678 9.14161 3.56044 9.14161 3.27636C9.14161 3.22478 9.1416 2.94308 9.13684 2.90578C9.11621 2.75977 9.044 2.72406 8.99401 2.72406C8.89085 2.72406 8.89402 2.79786 8.86704 2.87007L8.86387 3.49617V3.49537Z" fill="white"></path>
<path d="M9.76447 3.9826H10.3326V3.10496C10.4509 2.98751 10.6786 2.94704 10.8135 2.96926V2.34396C10.6286 2.35031 10.3945 2.67248 10.3461 2.89705L10.3183 2.91451V2.34317L9.76526 2.41856V3.98101L9.76447 3.9826Z" fill="white"></path>
<path d="M11.4151 3.31524C11.4119 3.47791 11.4563 3.59139 11.6412 3.59139C11.7809 3.59139 11.8452 3.57155 12.0499 3.47871L12.2007 3.86436C12.0253 3.9215 11.8293 3.97863 11.6023 3.97863C11.3913 3.97863 11.0842 3.95879 10.981 3.59139C10.9485 3.47395 10.9255 3.26207 10.9255 3.25017C10.9255 2.97006 10.8985 2.82802 11.0159 2.65106C11.1492 2.44633 11.3794 2.34476 11.519 2.34476C11.7983 2.34476 11.9483 2.48521 12.0332 2.60265C12.1372 2.7439 12.1459 2.9034 12.1459 3.31524H11.4159H11.4151ZM11.6627 3.09543C11.6627 2.855 11.6682 2.67566 11.5389 2.67566C11.3865 2.67566 11.4167 2.89388 11.4198 3.09543H11.6627Z" fill="white"></path>
<path d="M13.4488 2.61298C13.3584 2.54077 13.2306 2.34398 12.9291 2.33525C12.8386 2.33287 12.7212 2.33525 12.5823 2.41381C12.4101 2.50982 12.3212 2.69154 12.3212 2.85104C12.3212 3.101 12.3458 3.29224 12.8418 3.42397C12.9854 3.46364 12.9973 3.47555 13.0505 3.53506C13.0886 3.57791 13.0124 3.65885 12.9029 3.65885C12.7307 3.65885 12.618 3.54458 12.5307 3.46047L12.2641 3.72709C12.3546 3.79613 12.5252 4.03657 12.9124 4.01435C13.1037 4.00324 13.5004 3.9834 13.5052 3.4573C13.5084 3.11767 13.2544 3.04466 13.0108 2.9423C12.8775 2.88834 12.7926 2.87247 12.7942 2.79867C12.7958 2.71614 12.8132 2.69789 12.9203 2.69789C13.0275 2.69789 13.0441 2.77962 13.1965 2.87564L13.4488 2.61378V2.61298Z" fill="white"></path>
<path d="M13.6925 2.57567C13.8321 2.47013 13.9892 2.34476 14.3392 2.34476C14.4542 2.34476 14.5963 2.35269 14.7296 2.48204C14.8534 2.60265 14.8534 2.72248 14.8534 2.80659V3.7128C14.8534 3.72153 14.9058 3.76438 14.9891 3.76755V3.9826L14.8224 3.97625C14.6122 3.97625 14.636 3.9826 14.5201 3.92864L14.4455 3.87547C14.4058 3.83103 14.3931 3.75168 14.3868 3.77707C14.3804 3.80088 14.1781 4.00006 14.0353 4.00006C13.8615 4.00006 13.5956 3.91277 13.5956 3.54616C13.5956 3.39856 13.6694 3.22637 13.9662 3.09385C14.1241 3.02481 14.2297 3.04941 14.3749 3.03989C14.3749 2.88356 14.3836 2.86055 14.3527 2.81849C14.3249 2.77961 14.3011 2.75342 14.217 2.75342C14.0281 2.75342 13.9059 2.83912 13.8162 2.91451L13.6917 2.57488L13.6925 2.57567ZM14.359 3.24065C14.263 3.2589 14.0908 3.29302 14.1051 3.4922C14.113 3.59932 14.117 3.64297 14.2162 3.65646C14.3979 3.68185 14.3582 3.52156 14.3582 3.41602V3.24065H14.359Z" fill="white"></path>
<path d="M16.2286 2.58678C16.1381 2.51457 15.9127 2.34476 15.6953 2.34476C15.6048 2.34476 15.4874 2.34872 15.3485 2.42728C15.1763 2.5233 15.1049 2.65661 15.1049 2.81611C15.1049 3.06607 15.1787 3.30651 15.5771 3.41523C15.7207 3.4557 15.8254 3.47157 15.8254 3.56203C15.8254 3.61916 15.8191 3.65011 15.6826 3.65011C15.5104 3.65011 15.3938 3.52315 15.3057 3.43824L15.0478 3.73105C15.2232 3.89372 15.3446 4.031 15.785 3.9826C15.9754 3.96117 16.2349 3.9088 16.2841 3.50569C16.3285 3.14384 15.9802 3.02481 15.7366 2.92403C15.6564 2.89229 15.5731 2.86293 15.5731 2.82008C15.5731 2.74152 15.6017 2.72327 15.7088 2.72327C15.8159 2.72327 15.8683 2.78278 15.9849 2.90578L16.2286 2.58678Z" fill="white"></path>
<path d="M5.7889 6.03307C5.6913 6.16796 5.46991 6.26319 5.20328 6.20764C4.91126 6.14654 4.74462 6.02434 4.68749 5.62043C4.63829 5.27525 4.84461 5.02608 5.0295 4.87451C4.95411 4.74596 4.81049 4.58805 4.81921 4.35475C4.83588 3.91038 5.07632 3.81119 5.30803 3.81119C5.57862 3.81119 5.82699 3.97942 5.82699 4.3611C5.82699 4.64439 5.63972 4.75787 5.49133 4.8888L5.83493 5.39666C5.86191 5.29191 5.83493 5.08004 5.84604 4.96022H6.23249C6.17456 5.35381 6.12139 5.5379 6.0222 5.70931L6.38643 6.2124H5.93174L5.7897 6.03386L5.7889 6.03307ZM5.14535 5.16415C5.066 5.23002 5.03109 5.40538 5.03109 5.54028C5.03109 5.68153 5.13901 5.80612 5.22233 5.80612C5.26914 5.80612 5.2866 5.81246 5.37627 5.76485C5.4215 5.74025 5.52625 5.67836 5.48974 5.64186L5.14535 5.16415ZM5.189 4.39999C5.189 4.51822 5.25724 4.56107 5.32628 4.63646C5.4215 4.56425 5.49371 4.52139 5.45721 4.32777C5.43658 4.25556 5.37786 4.19129 5.33104 4.19129C5.25962 4.19129 5.189 4.26826 5.189 4.39999Z" fill="white"></path>
<path d="M5.88733 6.63062H6.42613L6.42296 5.69029C6.42296 5.63316 6.42693 5.64268 6.42296 5.5792L6.4428 5.57285C6.5658 5.84027 6.59278 5.91248 6.64435 5.99977L6.93082 6.63062H7.42201L7.41884 4.4762H6.8959V4.88645C6.8959 4.97056 6.89908 5.18482 6.89273 5.30543V5.39828L6.88955 5.46493C6.88003 5.44985 6.84432 5.36574 6.83401 5.34749C6.811 5.30226 6.67213 4.99913 6.64674 4.9539L6.43248 4.4762H5.88733V6.63062Z" fill="white"></path>
<path d="M5.88894 4.96024H6.23174C6.17382 5.35383 6.12065 5.53792 6.02146 5.70933L6.38569 6.21242H5.931L5.88735 6.15608C5.88735 6.15608 5.87863 5.08085 5.88973 4.96024H5.88894Z" fill="white"></path>
<path d="M8.01793 5.97198C8.01475 6.13465 8.01793 6.22512 8.33613 6.22512C8.47579 6.22512 8.46945 6.21083 8.67338 6.11799L8.79876 6.48698C8.62339 6.54411 8.44088 6.63061 8.19727 6.63854C7.98619 6.64489 7.66957 6.59649 7.56562 6.22908C7.53308 6.11164 7.51007 5.92199 7.51007 5.91009C7.51007 5.62997 7.52356 5.41492 7.64021 5.23797C7.77352 5.03324 7.9965 4.99118 8.13537 4.99118C8.41469 4.99118 8.49643 5.08244 8.59165 5.19115C8.70909 5.32287 8.73845 5.4665 8.75194 5.97515L8.01793 5.97198ZM8.24964 5.74106C8.24964 5.50063 8.2663 5.32208 8.12902 5.32684C7.98143 5.3316 8.00841 5.53951 8.01158 5.74106H8.24964Z" fill="white"></path>
<path d="M9.00036 6.72028C9.08209 6.75757 9.23048 6.87422 9.38601 6.87422C9.4606 6.87422 9.56376 6.86787 9.61851 6.79169C9.64946 6.74805 9.6574 6.68854 9.66454 6.63061V6.37747H9.62169C9.52408 6.51317 9.47806 6.61236 9.25746 6.61236C9.06304 6.61236 8.97972 6.47984 8.93449 6.36874C8.89878 6.28146 8.8726 6.16401 8.8726 6.0918V5.64663C8.8726 5.49348 8.83927 4.99039 9.27412 4.99039C9.44632 4.99039 9.54075 5.09989 9.58519 5.16655C9.59868 5.18559 9.56932 5.15703 9.62486 5.24987L9.65105 5.26019V4.99039L10.1954 5.04593V6.4227C10.1954 6.72663 10.1787 7.16465 9.5217 7.16465C9.13208 7.16465 9.22254 7.1583 8.9948 7.10514L9.00115 6.71948L9.00036 6.72028ZM9.65105 5.5411C9.64549 5.46016 9.58915 5.35938 9.51774 5.35938C9.41378 5.35938 9.40188 5.47365 9.39871 5.53792C9.39474 5.6022 9.38601 5.82042 9.38601 5.87438C9.38601 5.93151 9.40267 6.11085 9.42489 6.16798C9.45743 6.2521 9.46854 6.24257 9.53678 6.24257C9.60502 6.24257 9.61137 6.17433 9.65026 6.09815V5.54189L9.65105 5.5411Z" fill="white"></path>
<path d="M10.8088 5.69424C10.8088 5.57124 10.8032 5.34826 10.9262 5.32525C11.0357 5.30462 11.077 5.43952 11.077 5.68869C11.077 6.11878 11.0801 6.29653 10.946 6.27669C10.9143 6.27193 10.854 6.26638 10.8349 6.17909C10.823 6.12751 10.8119 6.00054 10.8119 5.94341L10.8088 5.69345V5.69424ZM10.2819 5.78947C10.2819 6.1775 10.3112 6.31637 10.5667 6.54649C10.6588 6.62981 10.8119 6.6306 10.9159 6.6306C11.2206 6.6306 11.3841 6.50681 11.4356 6.44889C11.6007 6.26003 11.5975 6.14655 11.6142 5.82835C11.6293 5.54268 11.5547 5.36175 11.4706 5.2332C11.3182 5.00467 11.1452 4.9888 10.9532 4.98959C10.3644 4.99118 10.2819 5.48872 10.2819 5.78947Z" fill="white"></path>
<path d="M10.9397 4.4119L10.7707 4.87135L11.1151 4.87532L11.5087 4.4119H10.9397Z" fill="white"></path>
<path d="M12.9759 5.58156C12.9727 5.48555 12.9394 5.30383 12.8323 5.18321C12.6831 5.01181 12.4831 4.99118 12.376 4.99118C11.9126 4.99118 11.7332 5.29748 11.7332 5.67044V6.04657C11.7332 6.23623 11.8308 6.39969 11.9832 6.52586C12.1387 6.65838 12.3085 6.62188 12.399 6.63061C12.8672 6.67584 12.9783 6.23781 12.9846 6.07514L12.5133 5.98468C12.5133 6.11085 12.4791 6.28225 12.3887 6.27193C12.3093 6.26321 12.2474 6.15211 12.2474 6.08942L12.2498 5.56649C12.2498 5.47603 12.2641 5.36811 12.3577 5.35224C12.476 5.3324 12.4918 5.59426 12.4982 5.67838L12.9759 5.58236V5.58156Z" fill="white"></path>
<path d="M13.0782 6.63061H13.6186L13.6163 4.99118H13.0806L13.0782 6.63061Z" fill="white"></path>
<path d="M13.6155 4.4762H13.0782V4.87693H13.6155V4.4762Z" fill="white"></path>
<path d="M14.2884 5.65933C14.3043 5.53633 14.2702 5.32367 14.4114 5.33557C14.5455 5.34668 14.532 5.49269 14.5352 5.79344C14.5384 6.15687 14.5376 6.27431 14.4082 6.28542C14.3757 6.2878 14.3019 6.22988 14.2956 6.13545C14.2916 6.08466 14.2916 6.03229 14.2916 5.97595L14.2892 5.66012L14.2884 5.65933ZM13.7425 5.81645C13.7774 6.21242 13.7536 6.34891 14.0551 6.56633C14.1559 6.63854 14.3233 6.63061 14.4265 6.63061C14.7312 6.63061 14.7669 6.57268 14.8248 6.5219C15.0034 6.35922 15.0708 6.18385 15.0708 5.85613C15.0708 5.57046 15.0478 5.38318 14.9613 5.25543C14.7955 5.01657 14.5701 4.99197 14.3844 4.99197C13.8536 4.99197 13.7155 5.51808 13.7417 5.81724L13.7425 5.81645Z" fill="white"></path>
<path d="M16.269 5.25622C16.154 5.12291 15.973 4.99118 15.7564 4.99118C15.6659 4.99118 15.4953 5.00388 15.3565 5.08164C15.1843 5.17766 15.1422 5.39271 15.1422 5.5522C15.1422 5.80217 15.2938 5.92516 15.6699 6.08784C15.8064 6.14814 15.85 6.14814 15.8421 6.20448C15.8342 6.26082 15.8159 6.25924 15.6691 6.2767C15.5596 6.29019 15.4144 6.15925 15.3271 6.07514L15.0692 6.36636C15.1597 6.4354 15.3644 6.63061 15.7104 6.63061C15.8969 6.63061 16.2547 6.63854 16.3127 6.20528C16.3682 5.78868 16.0945 5.69663 15.8508 5.59426C15.7175 5.5403 15.5969 5.52205 15.5834 5.45619C15.5676 5.37922 15.6088 5.34113 15.7104 5.34351C15.8175 5.34668 15.8945 5.42683 15.9889 5.54189L16.269 5.25622Z" fill="white"></path>
<path d="M6.33326 2.21939H6.25549V1.86389H6.4261C6.49831 1.86389 6.54196 1.90833 6.54196 1.97816C6.54196 2.01069 6.52291 2.09163 6.42293 2.09163H6.33326V2.22019V2.21939ZM6.40547 2.02974C6.4634 2.02974 6.4634 1.99006 6.4634 1.97419C6.4634 1.93928 6.44277 1.92499 6.39436 1.92499H6.33247V2.02974H6.40468H6.40547Z" fill="white"></path>
<path d="M6.90383 1.86389H6.62848V2.21939H6.91256V2.1567H6.70466V2.06465H6.88717V2.00197H6.70466V1.92658H6.90383V1.86389Z" fill="white"></path>
<path d="M7.16969 2.12338L7.20699 2.1575C7.19271 2.16464 7.17763 2.16702 7.16493 2.16702C7.12288 2.16702 7.06336 2.14242 7.06336 2.04244C7.06336 1.94245 7.12288 1.91785 7.16493 1.91785C7.20699 1.91785 7.2665 1.94245 7.2665 2.04244C7.2665 2.07576 7.25936 2.10036 7.24905 2.11861L7.20937 2.0837L7.1689 2.12417L7.16969 2.12338ZM7.34665 2.20511L7.30618 2.16861C7.32919 2.14083 7.34506 2.10036 7.34506 2.04164C7.34506 1.875 7.21493 1.85437 7.16573 1.85437C7.11653 1.85437 6.98639 1.875 6.98639 2.04164C6.98639 2.20828 7.11653 2.22892 7.16573 2.22892C7.18795 2.22892 7.22603 2.22495 7.26174 2.20511L7.30618 2.24558L7.34744 2.20511H7.34665Z" fill="white"></path>
<path d="M7.7275 1.86389H7.64815V2.09798C7.64815 2.14083 7.62593 2.16623 7.57277 2.16623C7.53626 2.16623 7.50611 2.1448 7.50611 2.09481V1.86389H7.42676V2.09957C7.42755 2.13528 7.43549 2.16385 7.45612 2.18606C7.48945 2.22098 7.54023 2.22891 7.57515 2.22891C7.66958 2.22891 7.72909 2.18844 7.72909 2.09481V1.86389H7.7275Z" fill="white"></path>
<path d="M8.10525 1.86389H7.8299V2.21939H8.11398V2.1567H7.90687V2.06465H8.08938V2.00197H7.90687V1.92658H8.10525V1.86389Z" fill="white"></path>
<path d="M8.43215 2.11147H8.43056L8.28217 1.86389H8.20044V2.21939H8.27344V1.96626H8.27424L8.42659 2.21939H8.50515V1.86389H8.43215V2.11147Z" fill="white"></path>
<path d="M8.65913 2.21939H8.5766L8.70991 1.86389H8.80037L8.9321 2.21939H8.84719L8.82339 2.14639H8.68531L8.65913 2.21939ZM8.70594 2.08449H8.80117L8.75514 1.94404H8.75435L8.70674 2.08449H8.70594Z" fill="white"></path>
<path d="M8.98926 2.10989C8.98926 2.15432 9.01306 2.22892 9.14955 2.22892C9.18209 2.22892 9.29715 2.21939 9.29715 2.11227C9.29715 2.04799 9.25033 2.02815 9.19954 2.01625L9.10829 1.99482C9.09242 1.99165 9.06861 1.9853 9.06861 1.95753C9.06861 1.92499 9.10432 1.91468 9.13368 1.91468C9.20192 1.91468 9.20827 1.95197 9.20986 1.96784H9.28524C9.28524 1.9242 9.2543 1.85278 9.13923 1.85278C9.01782 1.85278 8.99561 1.92261 8.99561 1.96229C8.99561 2.04085 9.05433 2.05355 9.11464 2.06704L9.15511 2.07576C9.19478 2.08449 9.22255 2.09243 9.22255 2.1202C9.22255 2.1575 9.18129 2.16623 9.144 2.16623C9.07575 2.16623 9.06544 2.12893 9.06464 2.10909H8.98926V2.10989Z" fill="white"></path>
<path d="M7.92746 4.68251H7.78542V4.74917H7.83541V4.7936C7.82668 4.79678 7.81795 4.79995 7.80922 4.80154C7.8005 4.80313 7.79177 4.80471 7.78304 4.80471C7.74971 4.80471 7.72273 4.79519 7.70289 4.77535C7.68305 4.75551 7.67353 4.72933 7.67353 4.696C7.67353 4.66267 7.68385 4.6349 7.70448 4.61585C7.72511 4.59602 7.75368 4.58649 7.79018 4.58649C7.80922 4.58649 7.82906 4.58967 7.85128 4.59522C7.87271 4.60157 7.89572 4.6103 7.91953 4.6222V4.54444C7.89651 4.53333 7.87429 4.52539 7.85208 4.51984C7.82986 4.51428 7.80764 4.5119 7.78542 4.5119C7.72352 4.5119 7.67432 4.52857 7.63624 4.56269C7.59894 4.59602 7.5799 4.64045 7.5799 4.696C7.5799 4.72219 7.58466 4.74679 7.59418 4.7698C7.6037 4.79281 7.61719 4.81265 7.63544 4.82931C7.6529 4.84518 7.67353 4.85788 7.69734 4.86661C7.72114 4.87534 7.74733 4.87931 7.7751 4.87931C7.80288 4.87931 7.83144 4.87534 7.85604 4.8674C7.88064 4.85947 7.90445 4.84756 7.92587 4.8309V4.68251H7.92746Z" fill="white"></path>
<path d="M8.12348 4.66426V4.58173H8.16713C8.183 4.58173 8.19569 4.58491 8.20363 4.59205C8.21236 4.59919 8.21632 4.60951 8.21632 4.623C8.21632 4.63649 8.21236 4.64759 8.20442 4.65394C8.19649 4.66108 8.18379 4.66426 8.16713 4.66426H8.12348ZM8.12348 4.87296V4.72853C8.12348 4.72853 8.12666 4.72853 8.12824 4.72853C8.13062 4.72853 8.13221 4.72853 8.1338 4.72853C8.15126 4.72853 8.16475 4.73171 8.17427 4.73726C8.18379 4.74361 8.19252 4.75472 8.19966 4.77059L8.24569 4.87296H8.34726L8.28933 4.75155C8.28377 4.73964 8.27743 4.73012 8.27028 4.72298C8.26314 4.71504 8.25521 4.71028 8.24648 4.70711C8.2679 4.69759 8.28377 4.68568 8.29409 4.6714C8.30441 4.65712 8.30917 4.64045 8.30917 4.62141C8.30917 4.58649 8.29726 4.56031 8.27425 4.54364C8.25124 4.52698 8.21474 4.51825 8.16554 4.51825H8.03223V4.87296H8.12269H8.12348Z" fill="white"></path>
<path d="M8.57656 4.60871L8.62734 4.74361H8.52101L8.57735 4.60871H8.57656ZM8.46546 4.87296L8.49403 4.80392H8.64956L8.67575 4.87296H8.77176L8.63131 4.51825H8.52736L8.37024 4.87296H8.46626H8.46546Z" fill="white"></path>
<path d="M9.12728 4.87296H9.19791V4.51825H9.10903V4.73012L8.91541 4.51825H8.83606V4.87296H8.92573V4.64998L9.12728 4.87296Z" fill="white"></path>
<path d="M9.46608 4.59046C9.49703 4.59046 9.52163 4.59998 9.54067 4.61982C9.55971 4.63966 9.57003 4.66505 9.57003 4.696C9.57003 4.72695 9.56051 4.75234 9.54067 4.77218C9.52163 4.79202 9.49623 4.80154 9.46608 4.80154H9.39863V4.59046H9.46608ZM9.44386 4.87296C9.48036 4.87296 9.50814 4.87058 9.52718 4.86661C9.54622 4.86264 9.56289 4.8555 9.57876 4.84598C9.60574 4.82852 9.62716 4.80709 9.64145 4.7817C9.65573 4.75631 9.66287 4.72695 9.66287 4.696C9.66287 4.66743 9.65653 4.64045 9.64542 4.61665C9.63431 4.59284 9.61605 4.57221 9.59304 4.55555C9.57479 4.54206 9.55575 4.53253 9.53432 4.52698C9.5129 4.52142 9.48274 4.51825 9.44386 4.51825H9.30817V4.87296H9.44386Z" fill="white"></path>
<path d="M10.0018 4.87296V4.8063H9.84626V4.72219H9.99068V4.65632H9.84626V4.58411H9.99782V4.51825H9.75659V4.87296H10.0018Z" fill="white"></path>
<path d="M10.1541 4.87055C10.1748 4.8761 10.197 4.87927 10.2192 4.87927C10.2636 4.87927 10.2985 4.86975 10.3239 4.8515C10.3493 4.83246 10.362 4.80706 10.362 4.77453C10.362 4.75469 10.3581 4.73723 10.3501 4.72216C10.3422 4.70708 10.3303 4.69518 10.3144 4.68565C10.2993 4.67692 10.2747 4.66582 10.2406 4.65312C10.2335 4.65074 10.2279 4.64836 10.2247 4.64756C10.2081 4.64201 10.1962 4.63566 10.1882 4.62931C10.1803 4.62296 10.1763 4.61582 10.1763 4.60868C10.1763 4.59916 10.1811 4.59281 10.1898 4.58805C10.1986 4.58329 10.212 4.58091 10.2295 4.58091C10.2454 4.58091 10.2628 4.58408 10.2819 4.58964C10.3009 4.59519 10.3231 4.60392 10.3469 4.61662V4.54361C10.3271 4.53409 10.3065 4.52695 10.2858 4.52219C10.2652 4.51743 10.2446 4.51505 10.224 4.51505C10.1835 4.51505 10.1509 4.52457 10.1256 4.54361C10.1002 4.56266 10.0875 4.58726 10.0875 4.61741C10.0875 4.64756 10.097 4.66978 10.1168 4.68803C10.1359 4.70629 10.1716 4.72454 10.2232 4.74279C10.2438 4.74993 10.2573 4.75628 10.2628 4.76104C10.2684 4.76659 10.2716 4.77294 10.2716 4.78167C10.2716 4.79199 10.2668 4.79992 10.2581 4.80548C10.2485 4.81103 10.2359 4.81341 10.2176 4.81341C10.1994 4.81341 10.1819 4.81024 10.1636 4.80389C10.1446 4.79754 10.1224 4.78564 10.0946 4.76897V4.84753C10.1136 4.85944 10.1343 4.86737 10.1549 4.87372L10.1541 4.87055Z" fill="white"></path>
</svg>