<svg width="21" height="8" viewBox="0 0 21 8" fill="none" xmlns="http://www.w3.org/2000/svg">
<path d="M18.451 0.75868C18.451 0.958332 18.388 1.08734 18.2575 1.08734C18.1269 1.08734 18.064 0.956797 18.064 0.75868V0.691105C18.064 0.492988 18.1269 0.363982 18.2575 0.363982C18.388 0.363982 18.451 0.49606 18.451 0.692641V0.760216M18.6015 0.743322V0.704927C18.6015 0.420806 18.4694 0.250334 18.2575 0.250334C18.0455 0.250334 17.9135 0.420806 17.9135 0.706463V0.744858C17.9135 1.02898 18.0455 1.19945 18.2575 1.19945C18.4694 1.19945 18.6015 1.02898 18.6015 0.743322ZM17.8597 0.912259L17.7261 0.878471C17.7 1.01209 17.6462 1.08734 17.5464 1.08734C17.4128 1.08734 17.3529 0.950654 17.3529 0.75868V0.691105C17.3529 0.499131 17.4128 0.363982 17.5464 0.363982C17.6416 0.363982 17.6923 0.430021 17.7184 0.563635L17.8566 0.529847C17.8229 0.363982 17.7307 0.251869 17.5464 0.251869C17.3345 0.251869 17.2024 0.422342 17.2024 0.707999V0.746394C17.2024 1.03051 17.3345 1.20099 17.5433 1.20099C17.7246 1.20099 17.8244 1.08887 17.8612 0.912259M17.1502 1.18563V1.12266H17.0227V0.328659H17.1502V0.265692H16.7478V0.328659H16.8753V1.12266H16.7478V1.18563H17.1502ZM16.6418 1.18563V0.265692H16.4145L16.1918 0.998263H16.1826L15.9599 0.265692H15.7296V1.18409H15.8616V0.417735H15.8724L16.1089 1.18409H16.2594L16.4944 0.417735H16.5051V1.18409H16.6418M15.4746 0.75868C15.4746 0.958332 15.4117 1.08734 15.2811 1.08734C15.1506 1.08734 15.0876 0.956797 15.0876 0.75868V0.691105C15.0876 0.492988 15.1506 0.363982 15.2811 0.363982C15.4117 0.363982 15.4746 0.49606 15.4746 0.692641V0.760216M15.6251 0.743322V0.704927C15.6251 0.420806 15.4931 0.250334 15.2811 0.250334C15.0692 0.250334 14.9371 0.420806 14.9371 0.706463V0.744858C14.9371 1.02898 15.0692 1.19945 15.2811 1.19945C15.4931 1.19945 15.6251 1.02898 15.6251 0.743322ZM15.4854 0.207332L15.3349 0H15.2274L15.0753 0.207332H15.1429L15.2796 0.08754L15.4163 0.207332H15.4869H15.4854ZM14.8342 1.18409V0.265692H14.6991V0.942975H14.6898L14.3504 0.265692H14.1876V1.18409H14.3213V0.480702H14.3305L14.6837 1.18409H14.8327M13.9312 0.75868C13.9312 0.958332 13.8682 1.08734 13.7377 1.08734C13.6071 1.08734 13.5441 0.956797 13.5441 0.75868V0.691105C13.5441 0.492988 13.6071 0.363982 13.7377 0.363982C13.8682 0.363982 13.9312 0.49606 13.9312 0.692641V0.760216M14.0817 0.743322V0.704927C14.0817 0.420806 13.9496 0.250334 13.7361 0.250334C13.5226 0.250334 13.3921 0.420806 13.3921 0.706463V0.744858C13.3921 1.02898 13.5242 1.19945 13.7361 1.19945C13.9481 1.19945 14.0817 1.02898 14.0817 0.743322ZM13.3399 0.912259L13.2063 0.878471C13.1802 1.01209 13.1264 1.08734 13.0266 1.08734C12.893 1.08734 12.8331 0.950654 12.8331 0.75868V0.691105C12.8331 0.499131 12.893 0.363982 13.0266 0.363982C13.1218 0.363982 13.1725 0.430021 13.1986 0.563635L13.3368 0.529847C13.303 0.363982 13.2109 0.251869 13.0266 0.251869C12.8146 0.251869 12.6826 0.422342 12.6826 0.707999V0.746394C12.6826 1.03051 12.8146 1.20099 13.0235 1.20099C13.2047 1.20099 13.3046 1.08887 13.3414 0.912259M12.6641 1.18563V1.07198H12.228V0.761751H12.5628V0.65271H12.228V0.37934H12.6488V0.265692H12.0851V1.18409H12.6641" fill="white"></path>
<path d="M17.4665 2.62926C17.4665 2.61544 17.4558 2.60315 17.4404 2.60315H16.7263C16.7125 2.60315 16.7002 2.5924 16.7002 2.57704V2.43729C16.7002 2.42346 16.7125 2.41118 16.7263 2.41118H17.9749C18.1761 2.41118 18.4325 2.3866 18.5462 2.3866C18.5677 2.3866 18.5815 2.40196 18.5815 2.42193V3.36797H18.6107C18.8303 2.82738 19.2911 2.33592 20.0083 2.33592C20.6809 2.33592 20.899 2.75366 20.899 3.16679C20.899 3.61831 20.704 3.83485 20.2693 3.83485C19.8977 3.83485 19.6919 3.61524 19.6919 3.24972C19.6919 3.00399 19.7625 2.83505 19.7625 2.70758C19.7625 2.63847 19.7026 2.61083 19.6305 2.61083C19.3786 2.61083 19.1252 2.90263 18.9332 3.17293C18.7658 3.39562 18.6092 3.83025 18.6092 4.49371V6.85729C18.6092 6.87111 18.6199 6.88339 18.6353 6.88339H19.3663C19.3801 6.88339 19.3924 6.89415 19.3924 6.9095V7.05387C19.3924 7.06769 19.3817 7.07998 19.3663 7.07998H16.7155C16.7017 7.07998 16.6894 7.06769 16.6894 7.05387V6.9095C16.6894 6.89568 16.7017 6.88339 16.7155 6.88339H17.442C17.4558 6.88339 17.4681 6.87264 17.4681 6.85729V2.63233M5.86672 0.628126C5.9005 0.535978 5.9389 0.477618 6.05408 0.477618H6.61772C6.63154 0.477618 6.64382 0.465332 6.64382 0.45151V0.311753C6.64382 0.297931 6.63154 0.285645 6.61772 0.285645H4.92988C4.91606 0.285645 4.90378 0.296395 4.90378 0.311753V0.45151C4.90378 0.465332 4.91453 0.477618 4.92988 0.477618H5.57492C5.63328 0.477618 5.67474 0.508334 5.67474 0.548264C5.67474 0.56823 5.66553 0.612768 5.65478 0.643483L3.91166 5.32457H3.88708L2.12553 0.532907C2.12246 0.523692 2.12093 0.514477 2.12093 0.50987C2.12093 0.49144 2.13014 0.477618 2.15778 0.477618H2.86578C2.87961 0.477618 2.89189 0.466868 2.89189 0.453046V0.313289C2.89189 0.299467 2.87961 0.28718 2.86578 0.28718H0.0261084C0.0122863 0.28718 0 0.297931 0 0.313289V0.453046C0 0.466868 0.0107505 0.477618 0.0261084 0.477618H0.655782C0.691105 0.477618 0.712606 0.502191 0.723357 0.531371L3.24512 7.05847C3.24973 7.07076 3.26509 7.08305 3.27891 7.08305H3.45245C3.46628 7.08305 3.4801 7.07383 3.48624 7.05847L5.86672 0.628126Z" fill="white"></path>
<path d="M15.4577 4.76094C15.4577 3.46473 15.2412 2.9011 14.9417 2.67994C14.8096 2.58319 14.5746 2.52637 14.3704 2.52637C14.1661 2.52637 13.9311 2.58473 13.7991 2.67994C13.498 2.9011 13.2815 3.46473 13.2815 4.76094C13.2815 6.05715 13.498 6.59006 13.7991 6.81122C13.9311 6.90797 14.1661 6.9648 14.3704 6.9648C14.5746 6.9648 14.8096 6.90644 14.9417 6.81122C15.2427 6.59006 15.4577 6.05715 15.4577 4.76094ZM14.3704 7.15523C12.9805 7.15523 12.0237 6.21533 12.0237 4.76094C12.0237 3.30655 12.9851 2.33746 14.3704 2.33746C15.7556 2.33746 16.7171 3.30655 16.7171 4.76094C16.7171 6.21533 15.7603 7.15523 14.3704 7.15523Z" fill="white"></path>
<path d="M7.9646 4.3002C7.78952 4.3601 7.42093 4.45685 7.09841 4.53364C6.55167 4.67801 6.36277 4.96827 6.36277 5.79453C6.36277 6.44724 6.59467 6.88033 6.99244 6.88033C7.63901 6.88033 7.9646 6.31823 7.9646 5.83139V4.30174M11.3787 6.85883C11.3787 6.87265 11.3909 6.88494 11.4048 6.88494H12.1358C12.1496 6.88494 12.1619 6.89722 12.1619 6.91105V7.05541C12.1619 7.06923 12.1496 7.08152 12.1358 7.08152H8.94289C8.21493 7.08152 8.02603 6.75747 7.9861 6.49792H7.95538C7.76187 6.87419 7.31956 7.15524 6.74825 7.15524C5.87746 7.15524 5.13721 6.70525 5.13721 5.78378C5.13721 5.14028 5.5488 4.63501 6.79893 4.40157C7.09687 4.34628 7.47007 4.24952 7.68047 4.19116C7.94309 4.11898 7.96152 4.07291 7.96152 3.95465V3.51695C7.96152 2.8197 7.6943 2.53097 7.08459 2.53097C6.76975 2.53097 6.5701 2.62159 6.5701 2.89035C6.5701 3.09154 6.59928 3.26355 6.59928 3.42634C6.59928 3.7335 6.4073 3.94697 6.02336 3.94697C5.63941 3.94697 5.43515 3.68742 5.43515 3.42327C5.43515 2.64616 6.3213 2.34207 7.13066 2.34207C8.6557 2.34207 9.11951 2.87192 9.11951 4.08827V6.25987C9.11951 6.7759 9.3207 6.88801 9.70464 6.88801H10.213C10.2268 6.88801 10.2391 6.87726 10.2391 6.8619V0.503733C10.2391 0.48991 10.2283 0.477624 10.213 0.477624H9.49885C9.48503 0.477624 9.47274 0.465338 9.47274 0.451516V0.311759C9.47274 0.297937 9.48349 0.285651 9.49885 0.285651H10.7751C10.9763 0.285651 11.2328 0.261078 11.3464 0.261078C11.3679 0.261078 11.3817 0.276436 11.3817 0.296401V6.85729L11.3787 6.85883Z" fill="white"></path>
</svg>