<svg width="23" height="6" viewBox="0 0 23 6" fill="none" xmlns="http://www.w3.org/2000/svg">
<path d="M12.9591 1.86944C12.9591 1.20013 12.9707 0.576987 13.0053 0L11.2397 0.334653V0.496209L11.4128 0.519289C11.5397 0.530828 11.6205 0.576987 11.6667 0.646226C11.7128 0.727004 11.7475 0.842402 11.7705 1.0155C11.7936 1.35015 11.8167 2.11177 11.8052 3.31191C11.8052 4.5005 11.7936 5.25059 11.7705 5.53908C12.4052 5.67756 12.9014 5.73526 13.2707 5.73526C13.9631 5.73526 14.5055 5.53908 14.8978 5.13519C15.2902 4.74284 15.4979 4.18893 15.4979 3.50808C15.4979 2.96572 15.3479 2.51567 15.0478 2.15793C14.7478 1.8002 14.367 1.6271 13.9169 1.6271C13.6169 1.6271 13.3053 1.70788 12.9591 1.86944ZM12.9938 5.42368C12.9707 5.05441 12.9476 3.94659 12.9476 2.13485C13.0515 2.10023 13.1899 2.07715 13.363 2.07715C13.64 2.07715 13.8592 2.21563 14.0208 2.50413C14.1824 2.79262 14.2631 3.13881 14.2631 3.57732C14.2631 4.11969 14.1708 4.5582 13.9862 4.92747C13.8015 5.28521 13.5707 5.46984 13.2823 5.46984C13.1899 5.44676 13.0976 5.43522 12.9938 5.42368ZM4.6159 0.115397H0V0.346192L0.242335 0.369272C0.426971 0.403891 0.553908 0.47313 0.634686 0.576987C0.715464 0.692385 0.761623 0.877021 0.773163 1.1309C0.865481 2.37719 0.865481 3.5427 0.773163 4.6159C0.750084 4.86977 0.703925 5.05441 0.634686 5.16981C0.553908 5.28521 0.426971 5.35444 0.242335 5.37752L0 5.41214V5.64294H2.97725V5.41214L2.66568 5.38906C2.48105 5.36598 2.35411 5.28521 2.27333 5.18135C2.19255 5.06595 2.14639 4.88131 2.13485 4.62744C2.10023 4.16585 2.07715 3.63502 2.07715 3.04649L2.7003 3.05803C3.03495 3.06957 3.26575 3.32345 3.38115 3.8312H3.61194V1.95022H3.38115C3.26575 2.44643 3.04649 2.7003 2.7003 2.71184L2.07715 2.72338C2.07715 1.6848 2.10023 0.94626 2.13485 0.496209H3.04649C3.69272 0.496209 4.13123 0.91164 4.3851 1.7425L4.66206 1.66172L4.6159 0.115397ZM4.07353 3.66964C4.07353 4.26971 4.24663 4.76592 4.58128 5.15827C4.91593 5.55062 5.41214 5.73526 6.03529 5.73526C6.65843 5.73526 7.16618 5.53908 7.53546 5.13519C7.90473 4.74284 8.07782 4.24663 8.07782 3.64656C8.07782 3.04649 7.90473 2.55028 7.57007 2.15793C7.23542 1.76558 6.73921 1.58095 6.11607 1.58095C5.49292 1.58095 4.98517 1.77712 4.6159 2.18101C4.24663 2.57336 4.07353 3.06957 4.07353 3.66964ZM6.64689 2.35411C6.78537 2.68876 6.84307 3.12727 6.84307 3.6581C6.84307 4.88131 6.5892 5.48138 6.09299 5.48138C5.83911 5.48138 5.64294 5.30828 5.50446 4.96209C5.36598 4.6159 5.30828 4.17739 5.30828 3.6581C5.30828 2.44643 5.56216 1.84636 6.05837 1.84636C6.31224 1.83482 6.50842 2.00792 6.64689 2.35411ZM16.398 5.15827C16.7788 5.53908 17.2635 5.73526 17.8405 5.73526C18.1982 5.73526 18.5098 5.66602 18.7867 5.516C19.0637 5.37752 19.2829 5.20443 19.4329 4.99671L19.3175 4.85823C19.0637 5.05441 18.7752 5.14673 18.4405 5.14673C17.9789 5.14673 17.6212 4.99671 17.3789 4.68514C17.125 4.37356 17.0096 3.98121 17.0327 3.47346H19.5022C19.5022 2.91956 19.3637 2.46951 19.0752 2.11177C18.7867 1.76558 18.3828 1.59249 17.8635 1.59249C17.2173 1.59249 16.7211 1.8002 16.3634 2.20409C16.0056 2.60798 15.8325 3.10419 15.8325 3.69272C15.8325 4.29279 16.0172 4.77746 16.398 5.15827ZM17.2519 2.26179C17.3789 1.98484 17.5404 1.84636 17.7597 1.84636C18.1059 1.84636 18.279 2.28487 18.279 3.17343L17.0557 3.19651C17.0673 2.85032 17.125 2.53875 17.2519 2.26179ZM22.6064 1.8002C22.2948 1.66172 21.9024 1.58095 21.4293 1.58095C20.9446 1.58095 20.5638 1.70788 20.2753 1.95022C19.9868 2.19255 19.8368 2.49259 19.8368 2.85032C19.8368 3.16189 19.9291 3.40423 20.1022 3.57732C20.2753 3.75042 20.5523 3.90044 20.91 4.02737C21.2331 4.14277 21.4639 4.25817 21.5793 4.36203C21.6947 4.47742 21.764 4.60436 21.764 4.77746C21.764 4.93901 21.7063 5.08903 21.5793 5.20443C21.4639 5.33136 21.3024 5.38906 21.0947 5.38906C20.5869 5.38906 20.2061 5.01979 19.9407 4.28125L19.7445 4.33895L19.7907 5.49292C20.2061 5.65448 20.6677 5.73526 21.1754 5.73526C21.7063 5.73526 22.1102 5.61986 22.4102 5.37752C22.7102 5.14673 22.8602 4.81208 22.8602 4.39664C22.8602 4.11969 22.791 3.8889 22.641 3.7158C22.491 3.5427 22.2486 3.39269 21.9024 3.25421C21.5216 3.11573 21.2562 2.9888 21.1177 2.8734C20.9793 2.758 20.91 2.61952 20.91 2.44643C20.91 2.27333 20.9562 2.13485 21.06 2.01946C21.1639 1.90406 21.2908 1.8579 21.4524 1.8579C21.914 1.8579 22.2486 2.19255 22.4564 2.85032L22.6525 2.79262L22.6064 1.8002ZM11.5051 1.69634C11.3436 1.61556 11.1705 1.58095 10.9743 1.58095C10.7781 1.58095 10.5819 1.66172 10.3627 1.82328C10.1434 1.98484 9.98188 2.20409 9.85495 2.50413L9.86648 1.58095L8.11244 1.92714V2.08869L8.28554 2.10023C8.50479 2.12331 8.63173 2.29641 8.65481 2.60798C8.72405 3.32345 8.72405 4.08507 8.65481 4.89285C8.63173 5.20443 8.50479 5.36598 8.28554 5.4006L8.11244 5.42368V5.64294H10.5589V5.42368L10.2473 5.4006C10.028 5.37752 9.9011 5.20443 9.87802 4.89285C9.80879 4.22355 9.79725 3.50808 9.85495 2.76954C9.92418 2.65414 10.0742 2.5849 10.305 2.56182C10.5358 2.53875 10.8012 2.60798 11.0782 2.76954L11.5051 1.69634Z" fill="white"></path>
</svg>