<svg width="16" height="6" viewBox="0 0 16 6" fill="none" xmlns="http://www.w3.org/2000/svg">
<path d="M2.76953 5.53906L2.55176 5.53125C2.53409 5.52988 2.51665 5.52614 2.49902 5.52441C2.58808 5.53305 2.67821 5.53906 2.76953 5.53906ZM3.04785 5.52441C2.95556 5.53386 2.86269 5.53898 2.76953 5.53906C2.8635 5.53906 2.95629 5.53355 3.04785 5.52441ZM3.29883 5.48633C3.21773 5.50226 3.13603 5.51484 3.05371 5.52344C3.13665 5.51498 3.21822 5.50194 3.29883 5.48633ZM2.45996 5.51953C2.39216 5.51184 2.32479 5.50226 2.25781 5.48926C2.32446 5.50172 2.39173 5.51194 2.45996 5.51953ZM3.53027 5.43066C3.46862 5.44842 3.40646 5.46413 3.34375 5.47754C3.40684 5.46423 3.46884 5.44819 3.53027 5.43066ZM2.15723 5.46875C2.13271 5.46297 2.10834 5.45669 2.08398 5.4502C2.10837 5.45641 2.13259 5.46318 2.15723 5.46875ZM1.2832 5.10449C1.48192 5.22663 1.69401 5.32671 1.91602 5.40039C1.9714 5.41924 2.02759 5.43516 2.08398 5.4502C1.79632 5.37685 1.52692 5.25995 1.2832 5.10449ZM3.70801 5.37207C3.64946 5.39318 3.59057 5.41346 3.53027 5.43066C3.59021 5.4134 3.64928 5.39339 3.70801 5.37207ZM3.78125 5.34473C3.75699 5.35432 3.7325 5.36318 3.70801 5.37207C3.73259 5.3632 3.757 5.35426 3.78125 5.34473ZM2.76953 0C4.2991 0 5.53906 1.23996 5.53906 2.76953C5.53906 3.94157 4.80976 4.94034 3.78125 5.34473C3.8245 5.32762 3.86773 5.31034 3.91016 5.29102C4.26844 5.1278 4.58805 4.88962 4.84668 4.59277C5.02662 4.39387 5.17463 4.16822 5.28516 3.92383C5.29667 3.87779 5.31949 3.84286 5.33105 3.79688C5.45799 3.32375 5.3541 2.91909 5.07715 2.67676C5.08667 2.60816 5.09075 2.53895 5.08887 2.46973C5.08887 1.85456 4.84417 1.26409 4.40918 0.829102C3.97424 0.394347 3.38451 0.150402 2.76953 0.150391C2.15645 0.153441 1.5692 0.398457 1.13672 0.833008C0.704223 1.26767 0.461906 1.85655 0.461914 2.46973C0.461927 2.59658 0.472842 2.712 0.484375 2.83887C0.784401 2.05418 1.60393 1.48831 2.57324 1.48828C2.94357 1.48247 3.30929 1.56998 3.6377 1.74121C3.92514 1.8911 4.17601 2.10139 4.37305 2.35742L4.4541 2.46973C3.77332 2.46985 3.05828 3.05841 2.85059 3.79688C2.79695 3.95983 2.78078 4.13286 2.80469 4.30273C2.82868 4.47271 2.8916 4.6355 2.98828 4.77734H2.76953C2.22155 4.77431 1.69226 4.57817 1.27441 4.22363C0.856611 3.86911 0.576606 3.379 0.484375 2.83887C0.41077 3.05027 0.371924 3.27226 0.369141 3.49609C0.370902 3.77026 0.431549 4.04131 0.546875 4.29004C0.634651 4.47921 0.752494 4.65313 0.895508 4.80371C0.346461 4.29763 0 3.57511 0 2.76953C4.50977e-06 1.23996 1.23996 4.50984e-06 2.76953 0ZM1.2832 5.10449C1.26565 5.0937 1.2478 5.08341 1.23047 5.07227C1.24758 5.08372 1.26583 5.09341 1.2832 5.10449ZM0.895508 4.80371C0.993554 4.89408 1.09572 4.98006 1.20605 5.05566C1.14922 5.01833 1.0924 4.98062 1.03809 4.93945C0.988128 4.89665 0.940621 4.85121 0.895508 4.80371Z" fill="white"></path>
<path d="M15.3594 3.51961C14.9324 3.51961 14.7362 3.28882 14.7362 2.86184V0.207703H13.4092V2.181C13.2586 1.85474 13.0177 1.57844 12.7151 1.38478C12.4124 1.19111 12.0606 1.08819 11.7013 1.08819C11.342 1.08819 10.9902 1.19111 10.6875 1.38478C10.3848 1.57844 10.144 1.85474 9.99339 2.181V1.13088H8.6894V2.97724C8.6894 3.3119 8.50477 3.54269 8.21627 3.54269C7.92778 3.54269 7.74314 3.3119 7.74314 2.97724V1.13088H6.42761V3.00032C6.42761 4.14276 7.13154 4.85822 8.21627 4.85822C9.09329 4.85822 9.71644 4.37355 9.91262 3.58885C10.04 3.95818 10.2786 4.27903 10.5957 4.50736C10.9127 4.73569 11.2926 4.8603 11.6833 4.86409C12.074 4.86788 12.4562 4.75067 12.7777 4.52854C13.0991 4.30642 13.3438 3.99026 13.4784 3.62347C13.6746 4.46587 14.3093 4.83514 15.1632 4.83514H15.4979V3.51961H15.3594ZM11.7013 3.54269C11.5894 3.54269 11.4801 3.50953 11.3871 3.4474C11.2941 3.38526 11.2217 3.29695 11.1789 3.19363C11.1361 3.09031 11.1249 2.97662 11.1467 2.86693C11.1685 2.75724 11.2224 2.65649 11.3014 2.57741C11.3805 2.49833 11.4813 2.44448 11.591 2.42266C11.7006 2.40084 11.8143 2.41204 11.9177 2.45484C12.021 2.49763 12.1093 2.57011 12.1714 2.6631C12.2336 2.75608 12.2667 2.86541 12.2667 2.97724C12.2667 3.12721 12.2072 3.27103 12.1011 3.37707C11.9951 3.48312 11.8512 3.54269 11.7013 3.54269Z" fill="white"></path>
</svg>