<svg width="26" height="7" viewBox="0 0 26 7" fill="none" xmlns="http://www.w3.org/2000/svg">
<path d="M0 5.12121V1.1574H2.03972V1.82679H0.744566V2.73836H1.7319V3.40796H0.744566V4.45122H2.09327V5.12101L0 5.12121ZM4.02034 2.26096C3.95905 2.07412 3.88547 1.93886 3.79899 1.85476C3.71272 1.77047 3.60462 1.72842 3.47511 1.72842C3.34579 1.72842 3.24047 1.7669 3.17026 1.84385C3.10005 1.92061 3.06514 2.02692 3.06514 2.16219C3.06514 2.26096 3.10619 2.34823 3.1891 2.423C3.27201 2.49837 3.37435 2.57037 3.49672 2.63979C3.6189 2.70921 3.75219 2.78358 3.89598 2.86193C4.03853 2.93983 4.17231 3.03279 4.29504 3.13921C4.41856 3.24689 4.52263 3.37504 4.60266 3.51803C4.68557 3.66481 4.72683 3.84014 4.72683 4.04522C4.72683 4.21718 4.69906 4.37248 4.64313 4.51171C4.5899 4.64736 4.50686 4.7693 4.40016 4.86853C4.29425 4.9671 4.16354 5.04346 4.00884 5.09662C3.85413 5.14957 3.67959 5.17595 3.48522 5.17595C3.17978 5.17595 2.91638 5.08829 2.69504 4.91256C2.47369 4.73663 2.31284 4.4532 2.21228 4.06168L2.94613 3.90242C2.96775 4.0234 2.99909 4.12456 3.04074 4.20726C3.082 4.28957 3.12999 4.35661 3.18355 4.40759C3.27404 4.49738 3.39583 4.54858 3.5233 4.55039C3.65302 4.55039 3.76171 4.50914 3.84997 4.42683C3.93783 4.34451 3.98226 4.22849 3.98226 4.07834C3.98226 3.95398 3.941 3.84668 3.8583 3.75703C3.76719 3.66049 3.66368 3.57645 3.55047 3.50713C3.42045 3.42598 3.28733 3.34989 3.15142 3.27904C3.01041 3.20613 2.87677 3.11978 2.75236 3.02119C2.63185 2.92633 2.52784 2.8122 2.44453 2.68342C2.36183 2.55529 2.32057 2.39821 2.32057 2.21137C2.32057 1.86765 2.41875 1.59652 2.61451 1.39898C2.81027 1.20143 3.10282 1.10226 3.49117 1.10226C3.65659 1.10226 3.80594 1.12606 3.93902 1.17366C4.07211 1.22126 4.18893 1.2883 4.29008 1.37399C4.39044 1.46026 4.47454 1.56161 4.54078 1.67883C4.60703 1.79625 4.65681 1.92418 4.68914 2.06321L4.02034 2.26096ZM7.31674 1.1572V1.82679H6.44801V5.12121H5.70365V1.82679H4.83492V1.1572H7.31674ZM6.83081 5.12121L7.79672 1.1572H8.75153L9.69027 5.12141H8.97803L8.78921 4.2866H7.75864L7.5484 5.12141L6.83081 5.12121ZM7.89351 3.61701H8.63292L8.27155 2.01363H8.26044L7.89351 3.61701ZM9.84716 1.1572H10.8833C11.0955 1.1572 11.2843 1.1816 11.4499 1.23118C11.6152 1.28077 11.7556 1.3601 11.8706 1.47018C11.9857 1.58006 12.0747 1.72207 12.138 1.89582C12.2007 2.06976 12.236 2.28099 12.2431 2.53011V3.7491C12.236 3.99821 12.2007 4.20945 12.138 4.38339C12.0751 4.55733 11.986 4.69915 11.8706 4.80903C11.7556 4.9191 11.6152 4.99864 11.4499 5.04802C11.2843 5.09761 11.0955 5.12201 10.8833 5.12201H9.84716V1.1572ZM10.5915 4.45162H10.8506C11.0554 4.45162 11.2149 4.3939 11.3282 4.27847C11.4416 4.16303 11.4981 3.95716 11.4981 3.66064V2.61737C11.4981 2.33573 11.4487 2.13343 11.3498 2.01085C11.251 1.88848 11.0846 1.82679 10.8506 1.82679H10.5915V4.45162ZM12.2322 5.12399L13.1981 1.15978H14.1527L15.0916 5.12399H14.3792L14.1904 4.28938H13.1598L12.9496 5.12399H12.2322ZM14.6494 0.198824C14.6322 0.283774 14.6086 0.367312 14.5789 0.448732C14.5504 0.527472 14.5135 0.598081 14.4683 0.659963C14.4239 0.721822 14.3658 0.772539 14.2985 0.808123C14.2301 0.844815 14.1474 0.863063 14.0504 0.863063C13.9786 0.863063 13.9076 0.852947 13.8373 0.832717C13.7669 0.812883 13.6995 0.790669 13.6346 0.766868C13.5713 0.743586 13.5075 0.721566 13.4432 0.700821C13.3831 0.681424 13.3204 0.671389 13.2572 0.67107C13.189 0.67107 13.1348 0.693879 13.0956 0.739497C13.0555 0.786004 13.0277 0.841769 13.0146 0.901739H12.6749C12.6894 0.813875 12.7118 0.729779 12.7423 0.649054C12.7711 0.571741 12.812 0.499501 12.8635 0.435046C12.9139 0.372768 12.9742 0.323579 13.0446 0.286887C13.1148 0.250194 13.1983 0.231947 13.2953 0.231947C13.3671 0.231947 13.4381 0.242855 13.5083 0.264673C13.5787 0.28649 13.6461 0.309497 13.7108 0.333298C13.7757 0.357099 13.837 0.380106 13.8941 0.401924C13.9516 0.423741 14.0022 0.43465 14.0452 0.43465C14.1101 0.43465 14.165 0.411642 14.2098 0.366024C14.2545 0.320406 14.2842 0.264276 14.2989 0.198427H14.6497L14.6494 0.198824ZM13.2947 3.61958H14.0341L13.6725 2.01621H13.662L13.2947 3.61958ZM15.1032 2.43074C15.1032 2.18559 15.1337 1.97852 15.195 1.81013C15.2563 1.64174 15.3406 1.50529 15.4485 1.40116C15.5584 1.2957 15.6915 1.21756 15.8372 1.17307C15.998 1.12413 16.1654 1.10011 16.3335 1.10186C16.5137 1.10186 16.679 1.12566 16.8299 1.17327C16.981 1.22087 17.1105 1.29683 17.2186 1.40136C17.3265 1.50568 17.4108 1.64214 17.4721 1.81013C17.5332 1.97872 17.5639 2.18559 17.5639 2.43094V3.84748C17.5639 4.09262 17.5332 4.29969 17.4721 4.46808C17.4108 4.63647 17.3265 4.77293 17.2184 4.87706C17.1087 4.98262 16.9756 5.06077 16.8299 5.10515C16.679 5.15275 16.5133 5.17655 16.3335 5.17655C16.1538 5.17655 15.9883 5.15275 15.837 5.10515C15.6913 5.06077 15.5582 4.98262 15.4485 4.87706C15.3406 4.77253 15.2561 4.63647 15.195 4.46808C15.1337 4.29949 15.1032 4.09322 15.1032 3.84728V2.43074ZM15.8477 3.94605C15.8477 4.16561 15.8908 4.31397 15.9772 4.39093C16.0635 4.46768 16.1821 4.50616 16.3331 4.50616C16.4842 4.50616 16.6028 4.46768 16.6891 4.39093C16.7754 4.31397 16.8186 4.16601 16.8186 3.94605V2.33177C16.8186 2.1122 16.7754 1.96385 16.6891 1.88689C16.6028 1.81013 16.4842 1.77166 16.3331 1.77166C16.1821 1.77166 16.0635 1.81013 15.9772 1.88689C15.8908 1.96385 15.8477 2.11201 15.8477 2.33177V3.94605ZM25.3686 1.49001C25.3876 1.45431 25.3924 1.41266 25.3821 1.37379C25.3821 1.37379 25.3035 1.12685 25.2698 1.0144C25.2877 0.963819 25.3595 0.812486 25.3815 0.76667C25.3823 0.765088 25.3826 0.763346 25.3826 0.761587C25.3826 0.759829 25.3821 0.758104 25.3813 0.756555C25.3805 0.755005 25.3793 0.753676 25.3778 0.752676C25.3764 0.751676 25.3747 0.751034 25.373 0.750803C25.3153 0.742869 25.1052 0.730175 24.9705 0.931887C24.1958 0.861476 23.7872 1.06854 23.5119 1.35356C23.1567 1.72148 23.1111 2.16357 23.094 2.21871C23.0905 2.1965 23.0486 2.13462 23.0486 2.13462C23.0486 2.13462 22.9108 2.16496 22.8473 2.20701C22.8151 2.18268 22.7812 2.16055 22.746 2.14077L22.764 1.39184L23.0702 1.52472C23.1073 1.50529 23.2404 1.3845 23.2684 1.2645C23.2785 0.834502 23.1831 0.6078 23.1861 0.598478C23.1887 0.590544 23.1127 0.577652 23.0177 0.616527C23.0086 0.597371 22.9989 0.578519 22.9885 0.56C23.1363 0.512399 23.2872 0.422352 23.3741 0.253566C23.4251 0.154793 23.1367 -0.0766695 23.1038 0.0254753C23.0486 0.196047 22.9586 0.312274 22.8677 0.391015C22.8644 0.385602 22.86 0.380949 22.8548 0.37736C22.8496 0.373771 22.8436 0.371327 22.8374 0.370189C22.7957 0.364041 22.6581 0.446153 22.6478 0.480863C22.6438 0.493556 22.6506 0.507043 22.6569 0.519539C22.6279 0.531635 22.5977 0.54074 22.5669 0.546711L22.5649 0.522911L22.5768 0.49911C22.5797 0.493539 22.5803 0.487087 22.5786 0.481052C22.5769 0.475016 22.573 0.469846 22.5677 0.466582C22.5373 0.44774 22.4804 0.406287 22.4552 0.350157C22.445 0.314377 22.4283 0.280767 22.406 0.250987L22.3503 0.219055C22.3207 0.202167 22.2962 0.177729 22.2793 0.148247L22.2577 0.110563C22.2577 0.110563 22.1793 0.0887456 22.1111 0.108976C22.1004 0.112348 22.0871 0.111356 22.076 0.112943C22.0418 0.117913 22.0083 0.12697 21.9762 0.139917C21.9365 0.155784 21.8995 0.177998 21.8667 0.205369C21.8054 0.256739 21.7604 0.326555 21.7406 0.403709C21.712 0.514779 21.7453 0.624064 21.8187 0.710341C21.8334 0.727597 21.8493 0.744456 21.8657 0.759926C21.8693 0.762901 21.9133 0.796817 21.9137 0.796222C21.8895 0.837477 21.8592 0.86822 21.8479 0.886467C21.8572 0.894599 21.9365 0.919788 21.9365 0.919788C21.9365 0.919788 21.8858 0.927325 21.8649 0.944977C21.8544 0.998925 21.8092 1.02352 21.814 1.02471H21.8152L21.7503 1.06081C21.6573 1.10405 21.5988 1.22622 21.6027 1.32797L21.5607 2.13997C21.5861 2.18837 21.6341 2.22665 21.6868 2.25501L21.709 2.20899L22.1855 2.29329L22.4715 2.34386L22.4455 2.40674L22.4157 2.47933L22.3136 2.72686L22.2081 2.98331L21.9986 2.8409L21.7991 2.70524L21.6741 2.62035L21.5516 2.53705L21.6011 2.43391L21.6486 2.33494C21.5996 2.31233 21.547 2.27107 21.4972 2.22982C21.4548 2.25997 21.4232 2.31074 21.3875 2.34843H21.3869C21.2979 2.31341 21.2055 2.28743 21.1112 2.27088C20.9553 2.2437 20.7961 2.24116 20.6394 2.26334C20.516 2.28131 20.3956 2.31559 20.2812 2.36529V2.36667C20.2282 2.38948 20.1777 2.41626 20.1295 2.4472C20.1295 2.4472 20.1043 2.46505 20.0686 2.49123C19.9418 2.20404 19.7046 1.84345 19.3062 1.8974C18.9813 1.94104 18.7615 2.28932 18.8153 2.67251C18.8238 2.73281 18.8385 2.79033 18.8585 2.84428L18.8599 2.84765C18.8623 2.8651 19.0644 3.38872 19.09 3.44068C19.0993 3.47162 19.107 3.50217 19.111 3.53013C19.1298 3.66421 19.0529 3.78559 18.9392 3.80146C18.8793 3.80939 18.8216 3.78678 18.7772 3.74394C18.8335 3.95081 19.0188 4.03154 19.2038 4.0004C19.4006 3.96747 19.5065 3.81753 19.5245 3.57436C19.5412 3.35262 19.3944 3.02199 19.3944 3.02199C19.47 3.06701 19.588 3.04004 19.6122 2.98906C19.5382 2.91548 19.5182 2.89168 19.5124 2.83892C19.4944 2.67093 19.6061 2.56402 19.726 2.54756C19.7927 2.53824 19.8607 2.57791 19.9103 2.63523C19.751 2.81571 19.6544 3.05174 19.6554 3.31017C19.6572 3.74553 19.7945 4.02737 19.7861 4.18307C19.7643 4.57439 19.4343 4.6333 19.4093 4.66563C19.4748 4.75111 19.6507 5.08928 19.6568 5.09701C19.6592 5.11229 19.6237 5.5286 19.6237 5.54923C19.6237 5.56986 19.6098 5.59207 19.6011 5.61547C19.5797 5.67418 19.5452 5.76939 19.5452 5.82671C19.5452 5.82928 19.5452 5.83147 19.5464 5.83325C19.5465 5.84506 19.5495 5.85665 19.5553 5.86697C19.5704 5.88125 19.585 5.89692 19.5985 5.91358C19.6562 5.98101 19.7066 6.0661 19.7433 6.16408C19.7641 6.21981 19.7768 6.293 19.7852 6.34695H20.1418C20.1333 6.27611 20.1154 6.20673 20.0884 6.14068C20.0378 6.02723 19.9627 5.9352 19.8794 5.8755C19.8772 5.87292 19.8772 5.87153 19.8772 5.86994C19.8772 5.84773 19.8163 5.64622 19.8163 5.62519C19.8163 5.60437 19.825 5.51928 19.825 5.49925C19.825 5.47763 19.8671 5.26263 19.901 5.147C19.9186 5.08591 19.9446 5.01113 19.9879 4.94568C20.0162 4.9462 20.0445 4.94341 20.0721 4.93735C20.1213 4.90403 20.16 4.86793 20.1969 4.81359C20.2046 4.76876 20.2005 4.73604 20.1973 4.70787C20.2132 4.70291 20.2288 4.69617 20.2449 4.68963C20.3 4.66721 20.3524 4.63964 20.4032 4.60672C20.4498 4.57657 20.4938 4.54266 20.5353 4.50517H20.5333C20.5333 4.50517 20.7634 4.2985 20.9024 3.88933C20.9024 3.88933 21.1349 3.80503 21.1862 3.73383C21.1862 3.73383 21.135 3.84549 20.9004 3.95061C20.8836 4.24812 20.7685 4.40302 20.7084 4.46451C20.7344 4.49743 20.8754 4.69062 20.8796 4.69696C20.9175 4.82886 20.8673 4.95401 20.8673 4.95401L20.8744 4.95481C20.8744 4.95481 21.1053 4.9435 21.2275 5.0385C21.2741 5.0748 21.361 5.16703 21.4115 5.23327C21.4409 5.27056 21.5651 5.48992 21.6039 5.55736C21.711 5.70274 21.4847 6.00184 21.471 6.03734L21.4788 6.04329L21.7975 6.30113C21.8056 6.28745 21.8134 6.27337 21.8197 6.25829C21.8463 6.18689 21.8626 6.10974 21.8665 6.02723V6.02564C21.8645 5.75372 21.8294 5.54209 21.783 5.46275C21.7509 5.40801 21.5956 5.15037 21.3104 4.80982C21.3231 4.78721 21.3502 4.76182 21.3556 4.74119C21.3544 4.68266 21.3444 4.62464 21.3261 4.56903C21.3084 4.54206 21.2701 4.52738 21.258 4.51886L21.263 4.50894C21.289 4.47502 21.3126 4.43773 21.3332 4.3939C21.3748 4.30782 21.4046 4.20488 21.4165 4.09282C21.4199 4.06624 21.4224 4.03868 21.4224 4.01091V3.98969C21.4236 3.9877 21.4244 3.98532 21.4266 3.98354C21.4647 3.99861 21.5042 4.01428 21.5456 4.02915C21.7584 4.10611 22.0101 4.17394 22.2838 4.22472C22.4383 4.25249 22.553 4.25625 22.6708 4.25625C22.6708 4.3102 22.6752 4.4183 22.695 4.4423C22.81 4.42425 22.8951 4.40461 22.9401 4.3941C23.1065 4.35522 23.3636 4.31853 23.3803 4.30405C23.3827 4.30355 23.3851 4.30328 23.3876 4.30326L23.3981 4.31318C23.3812 4.34372 23.3267 4.3945 23.3362 4.41294C23.3981 4.52857 23.4156 4.68427 23.4179 4.69181C23.4326 4.78384 23.4685 4.96452 23.4685 4.98535C23.4685 5.00598 23.4421 5.50599 23.4421 5.50599C23.4411 5.50718 23.3687 5.62737 23.3461 5.70334C23.3229 5.7799 23.3186 5.84614 23.3128 5.88303C23.4037 6.00224 23.4402 6.32335 23.4358 6.34695H23.8535C23.844 6.2696 23.7986 5.99053 23.6242 5.80965C23.6242 5.78843 23.6502 5.42685 23.6502 5.40543C23.6502 5.38084 23.6528 5.35386 23.6571 5.3257C23.673 5.21641 23.7113 5.08849 23.7113 4.95937C23.7113 4.95639 23.9675 4.286 24.0126 4.12079C23.9576 4.10723 23.9079 4.07769 23.8698 4.0359C23.8457 4.00999 23.827 3.9796 23.8146 3.94645C23.8023 3.9133 23.7966 3.87805 23.798 3.84272C23.7987 3.83022 23.7997 3.81832 23.8015 3.80662C23.7271 3.75921 23.6643 3.65469 23.6187 3.57714L23.6216 3.57516C23.6561 3.61939 23.6974 3.65846 23.7434 3.69059C23.7686 3.70844 23.795 3.72391 23.8225 3.73799C23.8517 3.75247 23.8819 3.76437 23.9134 3.7735C23.8717 3.87326 23.9025 4.03451 24.0897 4.04839C24.1095 4.04978 24.8488 3.98354 24.8664 3.99643C24.9212 4.03749 25.0298 4.06684 25.0677 4.07081C25.0889 4.25903 25.0255 4.93814 25.0255 4.95163C25.0173 4.95798 24.9354 5.02819 24.7434 5.25093L24.7456 5.25489L24.9235 5.59286L24.9261 5.59683C25.2101 5.33066 25.2139 4.90125 25.2139 4.89352C25.2139 4.89253 25.3069 4.15252 25.3313 4.00337C25.3353 3.96549 25.3363 3.9518 25.3369 3.92086C25.2972 3.85303 25.2557 3.78361 25.1849 3.7491C25.1225 3.74275 25.0673 3.76279 25.0049 3.77647C25.0049 3.77647 24.6871 3.72173 24.6147 3.70626C24.5901 3.7013 24.4679 3.66243 24.467 3.66243C24.4592 3.65985 24.4517 3.65747 24.4459 3.6541C24.4364 3.64795 24.4273 3.64081 24.419 3.63446C24.3691 3.59567 24.329 3.54574 24.3019 3.48868L24.3124 3.47916L24.4961 3.60907C24.7698 3.02754 24.4029 2.15723 24.4029 2.15723C24.4029 2.15723 24.582 1.88788 24.6032 1.86468C24.6242 1.84167 24.8503 2.22942 24.8503 2.22942L24.868 2.45295C24.868 2.45295 24.9182 2.59655 25.104 2.5664C25.3252 2.5307 25.3631 2.37798 25.3631 2.37798L25.3045 1.65007C25.3027 1.62801 25.3074 1.60591 25.3178 1.58641L25.3694 1.48962L25.3686 1.49001ZM19.2671 2.25382C19.1824 2.29904 19.0555 2.45196 19.0826 2.6981C18.9858 2.62908 18.9616 2.38591 19.0872 2.25541C19.066 2.24787 18.9979 2.27187 18.9676 2.29269C19.0251 2.1848 19.1495 2.00708 19.3762 2.01978C19.5394 2.0287 19.6614 2.08206 19.7967 2.26274C19.6705 2.17488 19.4303 2.16714 19.2671 2.25382ZM22.3219 3.80146L21.1158 3.52537C21.1521 3.39725 21.2691 3.14119 21.3536 2.95812C21.3816 2.89545 21.3911 2.87502 21.3911 2.87502C21.3266 2.73102 20.9181 2.59873 20.5934 2.63304C20.2324 2.67073 19.8954 2.87303 19.7504 3.20109C19.847 2.68501 20.3179 2.43808 20.6396 2.39543C20.7909 2.3756 21.0795 2.37282 21.3457 2.47279C21.2973 2.67708 21.4052 2.83575 21.5355 2.92103C21.5355 2.92103 21.3584 3.11977 21.2671 3.45278C21.3266 3.49185 22.2888 3.76199 22.2888 3.76199L22.3757 3.35302L22.3219 3.80146ZM23.1474 0.0653415C23.1474 0.0653415 23.2031 0.110365 23.1996 0.138727C23.1958 0.167486 23.1833 0.292638 22.9144 0.446947L22.9124 0.43703C22.9124 0.43703 23.1524 0.231748 23.1474 0.0653415ZM22.625 0.851757C22.6315 0.845728 22.6359 0.837811 22.6376 0.829127C22.6394 0.820443 22.6384 0.81143 22.6347 0.803363L22.5649 0.649054L22.572 0.609387C22.5774 0.609783 22.6139 0.61256 22.6692 0.61137C22.6706 0.633584 22.6565 0.659765 22.6813 0.667698C22.737 0.685351 22.7483 0.685351 22.8219 0.698639C22.8271 0.699631 22.8318 0.700028 22.8364 0.699829C22.8484 0.70476 22.859 0.712517 22.8673 0.72244C22.8554 0.735134 22.8437 0.749018 22.8324 0.764091C22.8287 0.769577 22.8264 0.77592 22.8257 0.782537C22.938 0.95053 22.9044 1.07925 22.8973 1.13102L22.8965 1.14847C22.8963 1.15204 22.8959 1.1451 22.8965 1.14847C22.896 1.14264 22.8963 1.13678 22.8973 1.13102C22.899 1.07482 22.8903 1.0188 22.8715 0.965803L22.6801 0.898962C22.6717 0.896077 22.6629 0.894992 22.654 0.895778C22.6452 0.896564 22.6367 0.899204 22.6289 0.903524C22.6166 0.910466 22.6028 0.918598 22.5895 0.925143C22.527 0.956084 22.4344 0.916614 22.3826 0.902136C22.3263 0.880318 22.2475 0.860484 22.1916 0.820618C22.1874 0.801379 22.1712 0.77262 22.1696 0.750009C22.1692 0.742671 22.1779 0.734142 22.1803 0.733547C22.1803 0.733547 22.1809 0.766471 22.1954 0.798007C22.2277 0.836485 22.3844 0.878335 22.454 0.894797C22.5123 0.904119 22.5847 0.88845 22.625 0.851757ZM22.3556 0.319018C22.3556 0.319018 22.3947 0.326951 22.3951 0.353132C22.3949 0.366024 22.3961 0.384073 22.3911 0.394783C22.384 0.404304 22.4221 0.437426 22.4159 0.449327C22.4014 0.476896 22.3681 0.45726 22.38 0.487804C22.4048 0.5003 22.4153 0.50268 22.4264 0.508233C22.5201 0.553852 22.4671 0.611965 22.4492 0.631601H22.4488C22.4267 0.643867 22.401 0.648072 22.3761 0.643501C22.3524 0.638268 22.3284 0.634623 22.3043 0.632592C22.2598 0.586542 22.2218 0.534545 22.1916 0.478086C22.2106 0.391412 22.2406 0.306721 22.2509 0.218261C22.2799 0.245037 22.2769 0.280143 22.3556 0.319018ZM22.1446 0.17185C22.1446 0.143884 22.2172 0.146066 22.211 0.1778C22.1924 0.276375 22.0456 0.643898 22.0456 0.643898L22.1446 0.17185ZM21.8824 0.45964C21.8778 0.479226 21.8742 0.499016 21.8715 0.518944C21.8694 0.535042 21.8675 0.551176 21.8659 0.567339C21.863 0.597288 21.856 0.656591 21.8758 0.68297C21.7689 0.540959 21.7701 0.415807 21.8828 0.278755C21.9157 0.242657 21.9728 0.194262 22.0559 0.174428C22.0366 0.196684 22.0197 0.221032 22.0058 0.24702C21.9436 0.303385 21.9005 0.377688 21.8824 0.45964ZM22.0133 1.02233C22.0359 1.02054 22.141 1.0382 22.1626 1.04434C22.2114 1.05843 22.1851 1.10345 22.2293 1.12844C22.3247 1.18239 22.3503 1.18854 22.4147 1.2766C22.4768 1.36089 22.5197 1.4325 22.6026 1.57054C22.6049 1.57451 22.6141 1.5991 22.6143 1.60386C22.6149 1.6116 22.6149 1.62012 22.6095 1.62588C22.528 1.49259 22.413 1.37458 22.2739 1.23237C22.239 1.19707 22.2031 1.31329 22.2051 1.31805C22.1781 1.25458 22.1648 1.05823 21.8522 1.03443C21.8312 1.03284 21.9831 1.02451 22.0133 1.02253V1.02233ZM22.0315 1.96067C22.0315 1.94798 21.9296 1.86011 21.9308 1.83274L22.0639 1.52849L22.6831 1.84564L22.5803 2.06183L22.1565 1.92815C22.317 1.99717 22.4407 2.05409 22.5803 2.1249C22.6654 2.17547 22.7682 2.19828 22.8344 2.2443C22.8517 2.2562 22.9245 2.30221 22.9393 2.31292C22.785 2.26731 22.2967 2.06738 22.0315 1.96067ZM23.0603 4.12317C23.0312 4.12674 23.0413 4.04601 23.0191 4.04601C22.8929 4.1194 22.9399 3.93494 22.9399 3.93494C23.1714 2.97101 22.9727 3.00275 23.2097 2.86312C23.5141 2.68322 22.8574 2.55748 22.7529 2.45176C22.9845 2.50475 23.2104 2.58014 23.4275 2.67688C23.4356 2.68045 23.0488 3.9163 23.0488 3.9163V3.91947L23.1202 4.02499C23.2622 4.06545 23.3836 4.0718 23.4457 4.11008C23.4336 4.10254 23.3023 4.09362 23.0603 4.12317ZM23.8025 2.07075C23.9356 2.13085 24.1353 2.26889 24.1776 2.46089C24.1784 2.46485 23.984 2.22883 23.5361 2.17686C23.3925 2.1602 23.3144 2.1967 23.2297 2.24073C23.3094 1.94163 23.3406 1.78058 23.5242 1.52452C23.7412 1.22186 24.1566 1.05942 24.4469 1.05942C23.9227 1.16494 23.3977 1.88828 23.8025 2.07095V2.07075ZM25.1417 1.52849C25.1417 1.52849 25.244 2.23398 25.2542 2.27464C25.2579 2.28892 25.25 2.2919 25.2387 2.28992C25.1951 2.28198 25.157 2.31987 25.1697 2.36211C25.1788 2.39186 25.1881 2.40833 25.1314 2.41011C25.0288 2.41328 25.08 2.31987 25.08 2.31987L25.1314 2.20364C25.1108 1.44182 24.8446 1.49239 24.8446 1.49239C25.1006 1.44182 25.0084 1.16732 25.0084 1.16732C25.1685 1.19905 25.1746 1.12626 25.1903 1.20044C25.201 1.25201 25.2746 1.33134 25.2911 1.40473C25.3085 1.48188 25.1455 1.42912 25.1417 1.52849Z" fill="white"></path>
</svg>