<svg width="18" height="6" viewBox="0 0 18 6" fill="none" xmlns="http://www.w3.org/2000/svg">
<path d="M0.00644842 0.238822V0H3.03708V1.49103H2.7856L2.36647 0.342097H1.53466V2.35596H2.18592L2.33423 1.72986H2.58571V3.36934H2.33423L2.18592 2.69805H1.53466V4.72482L2.13433 4.83454V5.06692H0V4.83454L0.477163 4.72482V0.329187L0.00644842 0.238822ZM3.32079 2.82068C3.32079 1.18766 4.03655 0.548645 5.06825 0.548645C6.2547 0.548645 6.73186 1.27157 6.73186 2.86587C6.73186 4.486 6.01612 5.14437 4.98442 5.14437C3.80441 5.14437 3.32079 4.42144 3.32079 2.82068ZM14.85 5.06691H13.7088V4.86682L14.0376 4.77645L15.1209 0.613191H15.6819L16.9328 4.77645L17.2682 4.86682V5.06691H15.54V4.86682L15.9399 4.77645L15.5916 3.71144H14.6502L14.4052 4.77645L14.85 4.86682V5.06691ZM9.59484 5.06691H7.00269V4.86682L7.38958 4.77645V0.903656L7.02203 0.832652V0.626101H8.73079V0.832652L8.33101 0.903656V4.76354H9.02741L9.39495 3.72434H9.59484V5.06691ZM9.85921 0.832652V0.626101H11.4841V0.832652L11.1617 0.903656V2.71742H12.1419V0.903656L11.8387 0.832652V0.626101H13.425V0.832652L13.0898 0.903656V4.77645L13.4573 4.86682V5.06691H11.8387V4.86682L12.1419 4.77645V3.02078H11.1617V4.77645L11.4841 4.86682V5.06691H9.85921V4.86682L10.2268 4.77645V0.916557L9.85921 0.832652ZM5.7324 2.87878C5.7324 1.07793 5.41645 0.806837 5.04891 0.806837C4.6749 0.806837 4.31381 1.0392 4.31381 2.81423C4.31381 4.60863 4.63622 4.89263 5.00376 4.89263C5.36486 4.89263 5.7324 4.64736 5.7324 2.87878ZM15.0758 1.98803L14.7211 3.40807H15.5078L15.0758 1.98803Z" fill="white"></path>
</svg>