<svg width="25" height="4" viewBox="0 0 25 4" fill="none" xmlns="http://www.w3.org/2000/svg">
<path d="M3.62287 3.83423V3.76817C4.28075 3.76817 4.67168 3.37996 5.4843 2.21713L4.35315 0.577853C4.15768 0.290992 4.04683 0.178328 3.71562 0.178328V0.112722H6.14445V0.178328C5.86935 0.178328 5.82094 0.286467 5.82094 0.42311C5.82094 0.529439 5.87795 0.632149 5.94084 0.733048L6.48379 1.52938C6.84576 1.01222 7.09326 0.642554 7.09326 0.414061C7.09326 0.240315 6.95752 0.178328 6.72722 0.178328V0.112722H8.11854V0.178328C7.61812 0.178328 7.35886 0.449806 6.53764 1.60856L7.71766 3.33788C7.92172 3.63243 8.12759 3.76817 8.38142 3.76817V3.83423H6.05667V3.76817C6.26616 3.76817 6.34127 3.69125 6.34127 3.56275C6.34127 3.47769 6.27702 3.3614 6.18879 3.23698L5.53815 2.2954C5.07392 2.96957 4.94497 3.18494 4.94497 3.37679C4.94497 3.60528 5.12595 3.76817 5.44268 3.76817V3.83423H3.62287ZM21.1784 1.65064C21.2128 0.55523 21.4282 0.262034 21.687 0.262034C21.9458 0.262034 22.2037 0.500934 22.1938 1.65064H21.1784ZM19.7595 1.9737C19.7595 3.56863 21.3829 4.37175 22.7878 3.67315L22.7426 3.6279C21.8223 3.9392 21.1716 3.25281 21.1716 1.9728C21.1716 1.91398 21.1716 1.85697 21.1716 1.80176H23.4195C23.4195 0.685086 22.786 0.00051028 21.6838 0.00051028C20.645 0.00141521 19.7595 0.894576 19.7595 1.9737ZM13.0707 0.480573V0.415871L14.8028 0.00141471V0.61224C15.1874 0.324021 15.5964 0.00412938 16.0339 0.00412938C16.4991 0.00412938 16.8067 0.224931 16.9212 0.641649C17.3171 0.346644 17.7393 0.00412938 18.1922 0.00412938C18.7921 0.00412938 19.1306 0.371982 19.1297 1.05339V3.38765C19.1297 3.7089 19.1966 3.76862 19.4202 3.76862V3.83423H17.5334V3.76862C17.7343 3.76862 17.8085 3.67179 17.8085 3.43244V0.86019C17.8085 0.398678 17.3424 0.458855 16.9488 0.754314C16.9657 0.853104 16.9738 0.953177 16.9732 1.05339V3.38765C16.9732 3.7089 17.0402 3.76862 17.2637 3.76862V3.83423H15.3751V3.76862C15.5765 3.76862 15.6507 3.67179 15.6507 3.43244V0.86019C15.6507 0.404107 15.196 0.457045 14.8032 0.743906V3.49986C14.8032 3.70935 14.9299 3.76907 15.0937 3.76907V3.83468H13.0707V3.76907C13.3458 3.76907 13.478 3.56818 13.478 3.26186V0.916748C13.4798 0.626719 13.1997 0.48193 13.0707 0.48193V0.480573ZM9.91301 2.88768C9.91301 2.41621 10.1198 1.96103 10.8012 1.80538L10.8062 2.93337C10.7854 3.22431 10.5641 3.38584 10.3537 3.38312C10.1062 3.38131 9.91301 3.22838 9.91301 2.88903V2.88768ZM8.54386 3.08133C8.54386 3.77315 9.2135 3.94463 9.52615 3.94463C10.0886 3.94463 10.6419 3.6279 10.822 3.19128C10.8921 3.70663 11.1957 3.94463 11.7722 3.94463C12.278 3.94463 12.6056 3.73604 12.8128 3.34919L12.7608 3.31209C12.4857 3.55008 12.1274 3.37136 12.1274 2.88768V1.11764C12.1274 0.223122 10.9867 -0.239747 9.94966 0.12539L9.96052 0.186925C10.5433 0.191449 10.7953 0.583735 10.7953 1.27284V1.7253C9.11713 1.93162 8.54386 2.38137 8.54386 3.08269V3.08133ZM1.41847 1.65064C1.45331 0.55523 1.66823 0.262034 1.92749 0.262034C2.18675 0.262034 2.44375 0.500934 2.43425 1.65064H1.41847ZM0 1.9737C0 3.7098 1.9388 4.53419 3.40705 3.47226L3.3618 3.42701C2.23064 4.09666 1.41214 3.42973 1.41214 1.97325C1.41214 1.91443 1.41214 1.85742 1.41214 1.80222H3.66314C3.66314 0.685539 3.02969 0.000963185 1.92749 0.000963185C0.88547 0.00141565 0 0.894576 0 1.9737ZM9.442 1.46378C9.51567 1.46506 9.58885 1.4515 9.65718 1.4239C9.7255 1.39629 9.78756 1.35521 9.83967 1.30311C9.89177 1.251 9.93285 1.18894 9.96046 1.12062C9.98806 1.05229 10.0016 0.979113 10.0003 0.905436C10.0003 0.795007 9.96759 0.687058 9.90624 0.595239C9.84489 0.503421 9.75769 0.431858 9.65566 0.389598C9.55364 0.347339 9.44138 0.336281 9.33307 0.357824C9.22476 0.379368 9.12528 0.432545 9.04719 0.51063C8.9691 0.588715 8.91593 0.688203 8.89438 0.79651C8.87284 0.904817 8.8839 1.01708 8.92616 1.1191C8.96842 1.22113 9.03998 1.30833 9.1318 1.36968C9.22362 1.43103 9.33157 1.46378 9.442 1.46378ZM23.791 3.97178C23.8645 3.97318 23.9376 3.95978 24.0058 3.93236C24.0741 3.90495 24.1361 3.86408 24.1882 3.8122C24.2404 3.76032 24.2815 3.69848 24.3093 3.63036C24.337 3.56225 24.3508 3.48924 24.3497 3.4157C24.3498 3.30525 24.3172 3.19726 24.2559 3.10538C24.1946 3.0135 24.1074 2.94187 24.0054 2.89954C23.9034 2.85721 23.7911 2.84609 23.6828 2.86758C23.5744 2.88907 23.4749 2.94221 23.3968 3.02028C23.3186 3.09835 23.2654 3.19783 23.2438 3.30615C23.2222 3.41447 23.2333 3.52676 23.2755 3.62881C23.3178 3.73086 23.3893 3.81809 23.4812 3.87946C23.573 3.94083 23.681 3.97359 23.7914 3.97359L23.791 3.97178Z" fill="white"></path>
</svg>