<svg width="21" height="10" viewBox="0 0 21 10" fill="none" xmlns="http://www.w3.org/2000/svg">
<path d="M0.185181 3.73257L2.48834 3.74646V2.86159H1.16173V2.20315H2.04382L2.04938 1.42246H1.15757V0.859866H2.42444L2.43 0H0.185181V3.73257Z" fill="white"></path>
<path d="M2.77588 3.74646H3.68575L3.67464 1.68639C3.82467 1.6211 3.73576 1.64194 3.88301 1.61833C4.03026 1.59471 4.05943 1.79752 4.05943 1.91421V3.74646H5.02764L5.02209 1.72251C5.13738 1.59888 5.17489 1.64194 5.27907 1.64194C5.33047 1.64194 5.39576 1.70723 5.39576 1.84058V3.74785H6.32925V2.01422C6.32925 1.82808 6.31953 1.4808 6.26257 1.30994C6.17506 1.04323 5.94724 0.898761 5.67497 0.898761C5.20545 0.898761 5.1999 1.22382 5.06515 1.42663L4.98736 1.42107C4.87623 1.06268 4.75399 0.898761 4.35948 0.911263C4.23584 0.91543 3.87745 1.08212 3.7566 1.42107L3.68992 1.42663V0.891815H2.77727V3.74646H2.77588Z" fill="white"></path>
<path d="M6.53764 0.891815H7.24332V1.44469L7.30722 1.43913C7.46141 1.11685 7.61421 0.893204 7.93927 0.893204C8.40323 0.893204 8.56854 1.28216 8.61994 1.48775C8.67689 1.71417 8.72273 2.02256 8.72273 2.4254C8.72273 3.01856 8.61438 3.28527 8.47963 3.4853C8.38101 3.63116 8.21709 3.74924 7.91287 3.74924C7.58226 3.74924 7.45724 3.5242 7.335 3.26999H7.29888V4.50631H6.53625V0.891815H6.53764ZM7.32389 2.90604C7.37806 3.04356 7.39751 3.13802 7.55031 3.12552C7.63783 3.11858 7.81008 3.01995 7.81008 2.52264C7.81008 2.43235 7.81008 1.93921 7.80174 1.87392C7.76563 1.61833 7.63922 1.55581 7.5517 1.55581C7.37112 1.55581 7.37667 1.685 7.32944 1.81141L7.32389 2.90743V2.90604Z" fill="white"></path>
<path d="M8.90051 3.75893H9.89512V2.22256C10.1021 2.01697 10.5008 1.94613 10.7369 1.98502V0.890397C10.4133 0.90151 10.0035 1.46549 9.91874 1.85861L9.87012 1.88917V0.889008L8.9019 1.02097V3.75615L8.90051 3.75893Z" fill="white"></path>
<path d="M11.7899 2.59071C11.7844 2.87548 11.8622 3.07412 12.1858 3.07412C12.4303 3.07412 12.5428 3.0394 12.9012 2.87687L13.1652 3.55198C12.8582 3.652 12.5151 3.75201 12.1178 3.75201C11.7483 3.75201 11.2107 3.71729 11.0301 3.07412C10.9731 2.86853 10.9328 2.49764 10.9328 2.4768C10.9328 1.98644 10.8856 1.73779 11.0912 1.42802C11.3246 1.06962 11.7274 0.891815 11.9719 0.891815C12.4609 0.891815 12.7234 1.13769 12.8721 1.34328C13.054 1.59054 13.0693 1.86976 13.0693 2.59071H11.7913H11.7899ZM12.2233 2.20592C12.2233 1.78502 12.2331 1.47108 12.0066 1.47108C11.7399 1.47108 11.7927 1.85309 11.7983 2.20592H12.2233Z" fill="white"></path>
<path d="M15.3502 1.36136C15.1918 1.23495 14.9682 0.890446 14.4403 0.875165C14.282 0.870998 14.0764 0.875165 13.8333 1.01269C13.5318 1.18077 13.3763 1.49888 13.3763 1.77809C13.3763 2.21567 13.4193 2.55045 14.2875 2.78104C14.539 2.8505 14.5598 2.87133 14.6529 2.97552C14.7195 3.05053 14.5862 3.19222 14.3945 3.19222C14.093 3.19222 13.8958 2.99219 13.743 2.84494L13.2762 3.31168C13.4346 3.43254 13.7333 3.85344 14.4112 3.81455C14.7459 3.7951 15.4405 3.76037 15.4488 2.83938C15.4544 2.24484 15.0099 2.11704 14.5834 1.93784C14.35 1.84338 14.2014 1.8156 14.2042 1.68641C14.207 1.54194 14.2375 1.50999 14.425 1.50999C14.6126 1.50999 14.6418 1.65307 14.9085 1.82116L15.3502 1.36275V1.36136Z" fill="white"></path>
<path d="M15.7767 1.29605C16.0211 1.1113 16.2962 0.891815 16.9088 0.891815C17.1102 0.891815 17.3589 0.905706 17.5922 1.13213C17.8089 1.34328 17.8089 1.55304 17.8089 1.70028V3.28666C17.8089 3.30194 17.9006 3.37695 18.0465 3.38251V3.75896L17.7548 3.74785C17.3866 3.74785 17.4283 3.75896 17.2255 3.6645L17.0949 3.57143C17.0255 3.49364 17.0032 3.35473 16.9921 3.39918C16.981 3.44085 16.6268 3.78952 16.3768 3.78952C16.0725 3.78952 15.6072 3.63672 15.6072 2.99494C15.6072 2.73657 15.7364 2.43513 16.2559 2.20315C16.5323 2.08229 16.7171 2.12535 16.9713 2.10869C16.9713 1.83503 16.9866 1.79474 16.9324 1.72112C16.8838 1.65305 16.8421 1.60721 16.6949 1.60721C16.3642 1.60721 16.1503 1.75724 15.9934 1.8892L15.7753 1.29466L15.7767 1.29605ZM16.9435 2.46013C16.7754 2.49208 16.474 2.55181 16.499 2.90048C16.5129 3.08802 16.5198 3.16442 16.6935 3.18803C17.0116 3.23248 16.9421 2.95188 16.9421 2.76713V2.46013H16.9435Z" fill="white"></path>
<path d="M20.2163 1.3155C20.0579 1.18909 19.6634 0.891815 19.2828 0.891815C19.1245 0.891815 18.9189 0.898761 18.6758 1.03628C18.3743 1.20437 18.2493 1.43774 18.2493 1.71695C18.2493 2.15453 18.3785 2.57543 19.0758 2.76574C19.3273 2.83658 19.5106 2.86437 19.5106 3.02273C19.5106 3.12274 19.4995 3.17692 19.2606 3.17692C18.9591 3.17692 18.7549 2.95466 18.6008 2.80602L18.1493 3.31861C18.4563 3.60338 18.6688 3.8437 19.4398 3.75896C19.7732 3.72145 20.2274 3.62977 20.3135 2.9241C20.3913 2.29066 19.7815 2.08229 19.355 1.90587C19.2147 1.85031 19.0689 1.79891 19.0689 1.7239C19.0689 1.58638 19.1189 1.55443 19.3064 1.55443C19.494 1.55443 19.5856 1.65861 19.7898 1.87392L20.2163 1.3155Z" fill="white"></path>
<path d="M1.94101 7.34843C1.77015 7.58458 1.38258 7.75128 0.915836 7.65404C0.40464 7.54708 0.112925 7.33315 0.0129079 6.62609C-0.0732176 6.02182 0.287954 5.58564 0.611619 5.32031C0.479652 5.09528 0.228222 4.81884 0.243502 4.41044C0.272673 3.63253 0.693577 3.45889 1.0992 3.45889C1.57289 3.45889 2.00769 3.75339 2.00769 4.42155C2.00769 4.91747 1.67985 5.11611 1.42009 5.34532L2.02158 6.23436C2.06881 6.05099 2.02158 5.6801 2.04102 5.47034H2.71753C2.61612 6.15934 2.52305 6.48162 2.34941 6.78167L2.98702 7.66237H2.19105L1.9424 7.34982L1.94101 7.34843ZM0.814431 5.82734C0.675519 5.94264 0.614397 6.24964 0.614397 6.48579C0.614397 6.73305 0.803318 6.95114 0.949175 6.95114C1.03113 6.95114 1.06169 6.96226 1.21866 6.87891C1.29784 6.83585 1.48121 6.72749 1.41731 6.6636L0.814431 5.82734ZM0.890832 4.48962C0.890832 4.6966 1.0103 4.77161 1.13115 4.90358C1.29784 4.77717 1.42425 4.70216 1.36036 4.36321C1.32424 4.2368 1.22144 4.12428 1.13948 4.12428C1.01446 4.12428 0.890832 4.25903 0.890832 4.48962Z" fill="white"></path>
<path d="M2.11328 8.39445H3.05649L3.05094 6.74834C3.05094 6.64832 3.05788 6.66499 3.05094 6.55386L3.08567 6.54275C3.30098 7.01088 3.34821 7.13729 3.4385 7.2901L3.93998 8.39445H4.79984L4.79428 4.62299H3.87885V5.34116C3.87885 5.48841 3.88441 5.86347 3.8733 6.07462V6.23714L3.86774 6.35383C3.85107 6.32744 3.78856 6.18019 3.7705 6.14824C3.73022 6.06906 3.48712 5.53842 3.44267 5.45924L3.06761 4.62299H2.11328V8.39445Z" fill="white"></path>
<path d="M2.11609 5.47034H2.71619C2.61478 6.15934 2.52171 6.48162 2.34807 6.78167L2.98568 7.66237H2.18971L2.11331 7.56374C2.11331 7.56374 2.09803 5.68148 2.11748 5.47034H2.11609Z" fill="white"></path>
<path d="M5.84308 7.24149C5.83752 7.52626 5.84308 7.68462 6.40012 7.68462C6.6446 7.68462 6.63349 7.65962 6.99049 7.49709L7.20997 8.14303C6.90298 8.24305 6.58348 8.39446 6.15702 8.40835C5.78751 8.41946 5.23325 8.33473 5.05128 7.69156C4.99433 7.48597 4.95404 7.15397 4.95404 7.13314C4.95404 6.64278 4.97766 6.26633 5.18186 5.95655C5.41523 5.59816 5.80557 5.52454 6.04867 5.52454C6.53764 5.52454 6.68072 5.68429 6.84741 5.87459C7.053 6.10519 7.1044 6.35662 7.12802 7.24705L5.84308 7.24149ZM6.2487 6.83726C6.2487 6.41635 6.27787 6.1038 6.03756 6.11213C5.77918 6.12047 5.82641 6.48442 5.83197 6.83726H6.2487Z" fill="white"></path>
<path d="M7.56281 8.55142C7.70589 8.61671 7.96566 8.82091 8.23793 8.82091C8.3685 8.82091 8.54909 8.80979 8.64494 8.67644C8.69912 8.60004 8.71301 8.49585 8.72551 8.39445V7.95132H8.6505C8.47963 8.18886 8.39906 8.3625 8.01289 8.3625C7.67255 8.3625 7.5267 8.13051 7.44752 7.93604C7.38501 7.78323 7.33917 7.57764 7.33917 7.45123V6.67194C7.33917 6.40384 7.28082 5.52313 8.04206 5.52313C8.3435 5.52313 8.50881 5.71483 8.5866 5.83152C8.61021 5.86486 8.55881 5.81485 8.65605 5.97737L8.70189 5.99543V5.52313L9.65483 5.62037V8.0305C9.65483 8.56253 9.62566 9.32932 8.47547 9.32932C7.79341 9.32932 7.95177 9.31821 7.55309 9.22514L7.5642 8.55003L7.56281 8.55142ZM8.70189 6.48718C8.69217 6.34549 8.59354 6.16907 8.46852 6.16907C8.28655 6.16907 8.26571 6.36911 8.26015 6.48163C8.25321 6.59414 8.23793 6.97615 8.23793 7.07061C8.23793 7.17063 8.2671 7.48457 8.30599 7.58459C8.36295 7.73183 8.3824 7.71517 8.50186 7.71517C8.62132 7.71517 8.63244 7.5957 8.7005 7.46235V6.48857L8.70189 6.48718Z" fill="white"></path>
<path d="M10.7286 6.75528C10.7286 6.53997 10.7189 6.14963 10.9342 6.10934C11.1259 6.07322 11.1981 6.30938 11.1981 6.74556C11.1981 7.49846 11.2037 7.80963 10.9689 7.7749C10.9133 7.76656 10.8078 7.75684 10.7744 7.60404C10.7536 7.51374 10.7341 7.29148 10.7341 7.19147L10.7286 6.75389V6.75528ZM9.80621 6.92198C9.80621 7.60126 9.85761 7.84435 10.3049 8.2472C10.466 8.39306 10.7341 8.39445 10.9161 8.39445C11.4495 8.39445 11.7357 8.17774 11.826 8.07634C12.1149 7.74573 12.1094 7.54708 12.1385 6.99004C12.1649 6.48996 12.0344 6.17324 11.8871 5.9482C11.6204 5.54814 11.3176 5.52035 10.9814 5.52174C9.95068 5.52452 9.80621 6.3955 9.80621 6.92198Z" fill="white"></path>
<path d="M10.9578 4.51047L10.6619 5.31477L11.2648 5.32171L11.9538 4.51047H10.9578Z" fill="white"></path>
<path d="M14.5223 6.55804C14.5167 6.38996 14.4584 6.07185 14.2709 5.8607C14.0097 5.56065 13.6596 5.52454 13.4721 5.52454C12.6609 5.52454 12.3469 6.06074 12.3469 6.71362V7.37207C12.3469 7.70407 12.5178 7.99023 12.7845 8.2111C13.0568 8.44308 13.354 8.37918 13.5124 8.39446C14.332 8.47364 14.5265 7.70685 14.5376 7.42208L13.7124 7.26372C13.7124 7.48459 13.6527 7.78464 13.4943 7.76658C13.3554 7.7513 13.2471 7.55682 13.2471 7.44708L13.2512 6.53165C13.2512 6.37329 13.2762 6.18437 13.4402 6.15659C13.6471 6.12186 13.6749 6.58027 13.686 6.72751L14.5223 6.55943V6.55804Z" fill="white"></path>
<path d="M14.7015 8.39446H15.6475L15.6433 5.52454H14.7056L14.7015 8.39446Z" fill="white"></path>
<path d="M15.6419 4.62299H14.7015V5.32449H15.6419V4.62299Z" fill="white"></path>
<path d="M16.8199 6.69416C16.8477 6.47885 16.788 6.10656 17.0353 6.1274C17.27 6.14685 17.2464 6.40245 17.252 6.92892C17.2575 7.56514 17.2561 7.77073 17.0297 7.79018C16.9727 7.79434 16.8436 7.69294 16.8324 7.52763C16.8255 7.43873 16.8255 7.34705 16.8255 7.24842L16.8213 6.69555L16.8199 6.69416ZM15.8642 6.96921C15.9253 7.66238 15.8837 7.90131 16.4115 8.28193C16.588 8.40834 16.8811 8.39444 17.0616 8.39444C17.5951 8.39444 17.6576 8.29304 17.759 8.20414C18.0715 7.91937 18.1896 7.61237 18.1896 7.03866C18.1896 6.53858 18.1493 6.21075 17.9979 5.9871C17.7076 5.56897 17.3131 5.52591 16.988 5.52591C16.0587 5.52591 15.817 6.4469 15.8628 6.9706L15.8642 6.96921Z" fill="white"></path>
<path d="M20.2872 5.9885C20.0858 5.75513 19.769 5.52454 19.3898 5.52454C19.2314 5.52454 18.9328 5.54676 18.6897 5.6829C18.3883 5.85098 18.3146 6.22743 18.3146 6.50664C18.3146 6.94422 18.58 7.15953 19.2384 7.4443C19.4773 7.54987 19.5537 7.54987 19.5398 7.6485C19.5259 7.74713 19.494 7.74435 19.237 7.77491C19.0453 7.79853 18.7911 7.56932 18.6383 7.42208L18.1868 7.93188C18.3452 8.05274 18.7036 8.39446 19.3092 8.39446C19.6357 8.39446 20.2622 8.40835 20.3636 7.64989C20.4608 6.9206 19.9816 6.75946 19.5551 6.58027C19.3217 6.48581 19.1106 6.45386 19.087 6.33856C19.0592 6.20382 19.1314 6.13714 19.3092 6.14131C19.4968 6.14686 19.6315 6.28716 19.7968 6.48859L20.2872 5.9885Z" fill="white"></path>
<path d="M2.89395 0.672314H2.75781V0.0499878H3.05647C3.18288 0.0499878 3.25928 0.127779 3.25928 0.250021C3.25928 0.306975 3.22595 0.448665 3.05092 0.448665H2.89395V0.673703V0.672314ZM3.02036 0.340314C3.12176 0.340314 3.12176 0.270858 3.12176 0.243076C3.12176 0.181954 3.08565 0.15695 3.00091 0.15695H2.89256V0.340314H3.01897H3.02036Z" fill="white"></path>
<path d="M3.89273 0.0499878H3.41071V0.672314H3.90801V0.562573H3.54406V0.401435H3.86356V0.291695H3.54406V0.159728H3.89273V0.0499878Z" fill="white"></path>
<path d="M4.35812 0.504237L4.42341 0.563969C4.3984 0.576471 4.37201 0.580639 4.34978 0.580639C4.27616 0.580639 4.17198 0.537576 4.17198 0.362547C4.17198 0.187518 4.27616 0.144455 4.34978 0.144455C4.42341 0.144455 4.52759 0.187518 4.52759 0.362547C4.52759 0.42089 4.51509 0.463953 4.49703 0.495902L4.42757 0.434781L4.35673 0.505626L4.35812 0.504237ZM4.66789 0.647317L4.59705 0.583417C4.63733 0.534798 4.66511 0.463953 4.66511 0.361158C4.66511 0.0694423 4.4373 0.0333252 4.35117 0.0333252C4.26505 0.0333252 4.03723 0.0694423 4.03723 0.361158C4.03723 0.652873 4.26505 0.68899 4.35117 0.68899C4.39007 0.68899 4.45675 0.682045 4.51926 0.647317L4.59705 0.718162L4.66928 0.647317H4.66789Z" fill="white"></path>
<path d="M5.33464 0.0499878H5.19573V0.459778C5.19573 0.534791 5.15684 0.579243 5.06376 0.579243C4.99987 0.579243 4.94708 0.541737 4.94708 0.454222V0.0499878H4.80817V0.462557C4.80956 0.525067 4.82345 0.575076 4.85956 0.613971C4.91791 0.675092 5.00681 0.688983 5.06793 0.688983C5.23324 0.688983 5.33742 0.618138 5.33742 0.454222V0.0499878H5.33464Z" fill="white"></path>
<path d="M5.99588 0.0499878H5.51385V0.672314H6.01116V0.562573H5.6486V0.401435H5.9681V0.291695H5.6486V0.159728H5.99588V0.0499878Z" fill="white"></path>
<path d="M6.56822 0.483394H6.56544L6.30568 0.0499878H6.1626V0.672314H6.2904V0.229184H6.29179L6.5585 0.672314H6.69602V0.0499878H6.56822V0.483394Z" fill="white"></path>
<path d="M6.96551 0.672314H6.82104L7.05442 0.0499878H7.21278L7.44337 0.672314H7.29474L7.25306 0.544515H7.01135L6.96551 0.672314ZM7.04747 0.436163H7.21417L7.1336 0.190289H7.13221L7.04886 0.436163H7.04747Z" fill="white"></path>
<path d="M7.5434 0.480623C7.5434 0.558414 7.58507 0.688991 7.824 0.688991C7.88095 0.688991 8.08237 0.672322 8.08237 0.484791C8.08237 0.372272 8.00042 0.337544 7.91151 0.316707L7.75176 0.279201C7.72398 0.273644 7.68231 0.262531 7.68231 0.213912C7.68231 0.156958 7.74482 0.1389 7.79622 0.1389C7.91568 0.1389 7.92679 0.204188 7.92957 0.231971H8.06154C8.06154 0.155569 8.00736 0.0305481 7.80594 0.0305481C7.5934 0.0305481 7.55451 0.152791 7.55451 0.222247C7.55451 0.35977 7.6573 0.381996 7.76288 0.405611L7.83372 0.420891C7.90318 0.436171 7.9518 0.450063 7.9518 0.498682C7.9518 0.56397 7.87956 0.579251 7.81427 0.579251C7.69481 0.579251 7.67675 0.513962 7.67536 0.479234H7.5434V0.480623Z" fill="white"></path>
<path d="M5.68467 4.98418H5.43602V5.10086H5.52353V5.17865C5.50825 5.18421 5.49297 5.18977 5.47769 5.19255C5.46241 5.19532 5.44713 5.1981 5.43185 5.1981C5.3735 5.1981 5.32627 5.18143 5.29155 5.1467C5.25682 5.11198 5.24015 5.06614 5.24015 5.00779C5.24015 4.94945 5.25821 4.90083 5.29432 4.86749C5.33044 4.83276 5.38045 4.81609 5.44435 4.81609C5.47769 4.81609 5.51242 4.82165 5.55131 4.83137C5.58882 4.84249 5.6291 4.85777 5.67078 4.8786V4.74247C5.63049 4.72302 5.5916 4.70913 5.5527 4.69941C5.51381 4.68968 5.47491 4.68552 5.43602 4.68552C5.32766 4.68552 5.24154 4.71469 5.17486 4.77442C5.10957 4.83276 5.07623 4.91055 5.07623 5.00779C5.07623 5.05363 5.08457 5.0967 5.10124 5.13698C5.11791 5.17727 5.14152 5.21199 5.17347 5.24116C5.20403 5.26895 5.24015 5.29117 5.28182 5.30645C5.3235 5.32173 5.36934 5.32868 5.41796 5.32868C5.46658 5.32868 5.51658 5.32173 5.55965 5.30784C5.60271 5.29395 5.64438 5.27311 5.68189 5.24394V4.98418H5.68467Z" fill="white"></path>
<path d="M6.02785 4.95222V4.80775H6.10425C6.13204 4.80775 6.15426 4.81331 6.16815 4.82581C6.18343 4.83832 6.19038 4.85637 6.19038 4.87999C6.19038 4.9036 6.18343 4.92305 6.16954 4.93416C6.15565 4.94667 6.13343 4.95222 6.10425 4.95222H6.02785ZM6.02785 5.31756V5.06474C6.02785 5.06474 6.03341 5.06474 6.03619 5.06474C6.04035 5.06474 6.04313 5.06474 6.04591 5.06474C6.07647 5.06474 6.10009 5.0703 6.11676 5.08002C6.13343 5.09113 6.14871 5.11058 6.16121 5.13837L6.24178 5.31756H6.41958L6.31818 5.10503C6.30845 5.08419 6.29734 5.06752 6.28484 5.05502C6.27234 5.04113 6.25845 5.03279 6.24317 5.02724C6.28067 5.01057 6.30845 4.98973 6.32651 4.96473C6.34457 4.93972 6.35291 4.91055 6.35291 4.87721C6.35291 4.81609 6.33207 4.77025 6.29178 4.74108C6.2515 4.71191 6.1876 4.69662 6.10148 4.69662H5.8681V5.31756H6.02646H6.02785Z" fill="white"></path>
<path d="M6.82101 4.85498L6.90991 5.09114H6.72377L6.8224 4.85498H6.82101ZM6.62653 5.31756L6.67654 5.19671H6.94881L6.99465 5.31756H7.16273L6.91686 4.69662H6.73489L6.45984 5.31756H6.62792H6.62653Z" fill="white"></path>
<path d="M7.78508 5.31756H7.90871V4.69662H7.75313V5.06752L7.41418 4.69662H7.27527V5.31756H7.43224V4.92722L7.78508 5.31756Z" fill="white"></path>
<path d="M8.37818 4.82303C8.43236 4.82303 8.47542 4.8397 8.50876 4.87443C8.5421 4.90916 8.56016 4.95361 8.56016 5.00779C8.56016 5.06196 8.54349 5.10642 8.50876 5.14114C8.47542 5.17587 8.43097 5.19254 8.37818 5.19254H8.26011V4.82303H8.37818ZM8.33929 5.31756C8.40318 5.31756 8.4518 5.31339 8.48514 5.30645C8.51848 5.2995 8.54765 5.287 8.57544 5.27033C8.62267 5.23977 8.66017 5.20226 8.68518 5.15781C8.71018 5.11336 8.72268 5.06196 8.72268 5.00779C8.72268 4.95778 8.71157 4.91055 8.69212 4.86888C8.67267 4.8272 8.64072 4.79108 8.60044 4.76191C8.56849 4.7383 8.53515 4.72163 8.49764 4.7119C8.46014 4.70218 8.40735 4.69662 8.33929 4.69662H8.10175V5.31756H8.33929Z" fill="white"></path>
<path d="M9.3159 5.31756V5.20088H9.04363V5.05363H9.29645V4.93833H9.04363V4.81192H9.30895V4.69662H8.88666V5.31756H9.3159Z" fill="white"></path>
<path d="M9.58263 5.31337C9.61875 5.32309 9.65764 5.32865 9.69654 5.32865C9.77433 5.32865 9.83545 5.31198 9.8799 5.28003C9.92435 5.24669 9.94658 5.20224 9.94658 5.14528C9.94658 5.11055 9.93963 5.07999 9.92574 5.0536C9.91185 5.02721 9.89101 5.00637 9.86323 4.9897C9.83684 4.97442 9.79377 4.95497 9.73404 4.93275C9.72154 4.92858 9.71182 4.92441 9.70626 4.92302C9.67709 4.9133 9.65625 4.90219 9.64236 4.89107C9.62847 4.87996 9.62152 4.86746 9.62152 4.85496C9.62152 4.83829 9.62986 4.82717 9.64514 4.81884C9.66042 4.8105 9.68403 4.80634 9.7146 4.80634C9.74238 4.80634 9.77294 4.81189 9.80628 4.82162C9.83962 4.83134 9.87851 4.84662 9.92018 4.86885V4.74105C9.88546 4.72438 9.84934 4.71188 9.81322 4.70354C9.77711 4.69521 9.74099 4.69104 9.70487 4.69104C9.63403 4.69104 9.57707 4.70771 9.53262 4.74105C9.48817 4.77439 9.46594 4.81745 9.46594 4.87024C9.46594 4.92302 9.48261 4.96192 9.51734 4.99387C9.55068 5.02582 9.61319 5.05777 9.70348 5.08972C9.7396 5.10222 9.76321 5.11333 9.77294 5.12167C9.78266 5.13139 9.78822 5.1425 9.78822 5.15778C9.78822 5.17584 9.77988 5.18973 9.7646 5.19946C9.74793 5.20918 9.72571 5.21335 9.69376 5.21335C9.66181 5.21335 9.63125 5.20779 9.5993 5.19668C9.56596 5.18557 9.52706 5.16473 9.47844 5.13556V5.27308C9.51178 5.29392 9.5479 5.30781 9.58402 5.31892L9.58263 5.31337Z" fill="white"></path>
</svg>