<svg width="19" height="7" viewBox="0 0 19 7" fill="none" xmlns="http://www.w3.org/2000/svg">
<path d="M3.31348 0C5.14298 0.000256645 6.62598 1.48391 6.62598 3.31348C6.62572 5.14282 5.14282 6.62572 3.31348 6.62598L3.3125 6.625C3.7834 6.62461 4.24919 6.5243 4.67773 6.3291C5.10632 6.13386 5.48847 5.84924 5.79785 5.49414C6.0132 5.25611 6.19003 4.98585 6.32227 4.69336C6.33605 4.63826 6.3641 4.59704 6.37793 4.54199C6.52977 3.97604 6.4055 3.49204 6.07422 3.20215C6.08563 3.12 6.09015 3.037 6.08789 2.9541C6.08789 2.21834 5.79557 1.51251 5.27539 0.992188C4.75504 0.471842 4.04838 0.179688 3.3125 0.179688C2.57927 0.183461 1.87759 0.477337 1.36035 0.99707C0.842988 1.51702 0.551749 2.22061 0.551758 2.9541C0.551759 3.10585 0.566283 3.24378 0.580078 3.39551C0.939087 2.45707 1.91881 1.78034 3.07812 1.78027C3.52099 1.77332 3.9588 1.87731 4.35156 2.08203C4.69529 2.26128 4.99578 2.5132 5.23145 2.81934L5.32812 2.9541C4.51376 2.95425 3.65763 3.65862 3.40918 4.54199C3.34506 4.73698 3.32679 4.94421 3.35547 5.14746C3.38419 5.3509 3.45943 5.54511 3.5752 5.71484H3.3125C2.65718 5.7111 2.02412 5.47672 1.52441 5.05273C1.02458 4.62863 0.690403 4.04167 0.580078 3.39551C0.491931 3.64862 0.444684 3.91462 0.441406 4.18262C0.443515 4.51079 0.516166 4.83512 0.654297 5.13281C0.776587 5.39629 0.950589 5.63095 1.16113 5.83008C0.451154 5.22254 0.000141357 4.32115 0 3.31348C0 1.48376 1.48376 0 3.31348 0ZM3.09766 6.61816C3.06863 6.61634 3.03969 6.61397 3.01074 6.61133C3.03962 6.61394 3.06857 6.6163 3.09766 6.61816ZM2.80273 6.58691C2.7929 6.58534 2.78325 6.58272 2.77344 6.58105C2.78325 6.58266 2.79289 6.58539 2.80273 6.58691ZM1.49707 6.08398C1.74528 6.24071 2.0117 6.36721 2.29102 6.45996C2.44836 6.51353 2.61014 6.55337 2.77344 6.58105C2.30824 6.50483 1.87566 6.33259 1.49707 6.08398ZM1.49707 6.08398C1.48951 6.07921 1.48213 6.07416 1.47461 6.06934C1.48204 6.0743 1.4896 6.07908 1.49707 6.08398ZM1.16113 5.83008C1.24625 5.90291 1.3345 5.97211 1.42676 6.03613C1.36448 5.99474 1.30191 5.95346 1.24219 5.9082C1.21365 5.88375 1.18837 5.85584 1.16113 5.83008Z" fill="white"></path>
<path d="M18.3733 4.21027C17.8626 4.21027 17.6279 3.93419 17.6279 3.42343V0.248474H16.0404V2.60899C15.8603 2.21871 15.5722 1.88819 15.2101 1.65652C14.8481 1.42486 14.4272 1.30174 13.9974 1.30174C13.5676 1.30174 13.1467 1.42486 12.7847 1.65652C12.4226 1.88819 12.1345 2.21871 11.9544 2.60899V1.35281H10.3945V3.56148C10.3945 3.9618 10.1737 4.23788 9.82855 4.23788C9.48345 4.23788 9.26258 3.9618 9.26258 3.56148V1.35281H7.6889V3.58908C7.6889 4.9557 8.53096 5.81156 9.82855 5.81156C10.8777 5.81156 11.6231 5.23178 11.8578 4.2931C12.0102 4.73491 12.2956 5.11871 12.6748 5.39184C13.0541 5.66497 13.5086 5.81404 13.9759 5.81858C14.4432 5.82311 14.9005 5.6829 15.285 5.41719C15.6695 5.15147 15.9623 4.77328 16.1233 4.33451C16.3579 5.34221 17.1172 5.78395 18.1387 5.78395H18.539V4.21027H18.3733ZM13.9974 4.23788C13.8636 4.23788 13.7329 4.19821 13.6216 4.12389C13.5104 4.04956 13.4237 3.94392 13.3725 3.82032C13.3213 3.69673 13.3079 3.56073 13.334 3.42952C13.3601 3.29831 13.4245 3.17778 13.5191 3.08319C13.6137 2.98859 13.7342 2.92417 13.8655 2.89807C13.9967 2.87197 14.1327 2.88536 14.2563 2.93656C14.3799 2.98776 14.4855 3.07445 14.5598 3.18569C14.6341 3.29692 14.6738 3.4277 14.6738 3.56148C14.6738 3.74087 14.6026 3.91292 14.4757 4.03977C14.3489 4.16662 14.1768 4.23788 13.9974 4.23788Z" fill="white"></path>
</svg>