<svg width="28" height="7" viewBox="0 0 28 7" fill="none" xmlns="http://www.w3.org/2000/svg">
<path d="M15.5021 2.23628C15.5021 1.43563 15.5159 0.690209 15.5573 0L13.4453 0.400321V0.59358L13.6523 0.621188C13.8042 0.634992 13.9008 0.690209 13.956 0.773034C14.0112 0.869663 14.0526 1.0077 14.0803 1.21477C14.1079 1.61509 14.1355 2.52616 14.1217 3.9618C14.1217 5.38363 14.1079 6.2809 14.0803 6.626C14.8395 6.79165 15.4331 6.86068 15.8748 6.86068C16.703 6.86068 17.3518 6.626 17.8212 6.14286C18.2905 5.67352 18.539 5.01092 18.539 4.19647C18.539 3.54767 18.3595 3.00931 18.0006 2.58138C17.6417 2.15345 17.1862 1.94639 16.6478 1.94639C16.2889 1.94639 15.9162 2.04302 15.5021 2.23628ZM15.5435 6.48796C15.5159 6.04623 15.4883 4.72103 15.4883 2.55377C15.6125 2.51236 15.7782 2.48475 15.9852 2.48475C16.3165 2.48475 16.5788 2.6504 16.7721 2.99551C16.9653 3.34061 17.062 3.75474 17.062 4.27929C17.062 4.92809 16.9515 5.45265 16.7307 5.89438C16.5098 6.32231 16.2337 6.54318 15.8886 6.54318C15.7782 6.51557 15.6677 6.50177 15.5435 6.48796ZM5.52167 0.138042H0V0.414125L0.289888 0.441734C0.510754 0.483146 0.6626 0.565971 0.75923 0.690209C0.855859 0.82825 0.911075 1.04912 0.92488 1.35281C1.03531 2.84366 1.03531 4.23788 0.92488 5.52167C0.897271 5.82536 0.842055 6.04623 0.75923 6.18427C0.6626 6.32231 0.510754 6.40514 0.289888 6.43275L0 6.47416V6.75024H3.56148V6.47416L3.18876 6.44655C2.9679 6.41894 2.81605 6.32231 2.71942 6.19807C2.62279 6.06003 2.56758 5.83917 2.55377 5.53547C2.51236 4.98331 2.48475 4.34832 2.48475 3.6443L3.23018 3.65811C3.6305 3.67191 3.90658 3.9756 4.04462 4.58299H4.32071V2.33291H4.04462C3.90658 2.92649 3.6443 3.23018 3.23018 3.24398L2.48475 3.25779C2.48475 2.01541 2.51236 1.13194 2.55377 0.59358H3.6443C4.41734 0.59358 4.94189 1.09053 5.24559 2.08443L5.57689 1.9878L5.52167 0.138042ZM4.87287 4.38973C4.87287 5.10754 5.07994 5.70112 5.48026 6.17047C5.88058 6.63981 6.47416 6.86068 7.21958 6.86068C7.96501 6.86068 8.57239 6.626 9.01413 6.14286C9.45586 5.67352 9.66292 5.07994 9.66292 4.36212C9.66292 3.6443 9.45586 3.05072 9.05554 2.58138C8.65522 2.11204 8.06164 1.89117 7.31621 1.89117C6.57079 1.89117 5.9634 2.12584 5.52167 2.60899C5.07994 3.07833 4.87287 3.67191 4.87287 4.38973ZM7.9512 2.81605C8.11685 3.21637 8.18587 3.74093 8.18587 4.37592C8.18587 5.83917 7.88218 6.55698 7.2886 6.55698C6.98491 6.55698 6.75024 6.34992 6.58459 5.9358C6.41894 5.52167 6.34992 4.99711 6.34992 4.37592C6.34992 2.92649 6.65361 2.20867 7.24719 2.20867C7.55088 2.19486 7.78555 2.40193 7.9512 2.81605ZM19.6157 6.17047C20.0713 6.626 20.651 6.86068 21.3413 6.86068C21.7692 6.86068 22.1419 6.77785 22.4732 6.5984C22.8045 6.43275 23.0668 6.22568 23.2462 5.97721L23.1082 5.81156C22.8045 6.04623 22.4594 6.15666 22.0591 6.15666C21.5069 6.15666 21.079 5.97721 20.7891 5.60449C20.4854 5.23178 20.3474 4.76244 20.375 4.15506H23.3291C23.3291 3.49246 23.1634 2.95409 22.8183 2.52616C22.4732 2.11204 21.99 1.90498 21.3689 1.90498C20.5958 1.90498 20.0022 2.15345 19.5743 2.6366C19.1464 3.11974 18.9393 3.71332 18.9393 4.41734C18.9393 5.13515 19.1602 5.71493 19.6157 6.17047ZM20.6372 2.70562C20.7891 2.37432 20.9823 2.20867 21.2446 2.20867C21.6587 2.20867 21.8658 2.73323 21.8658 3.79615L20.4026 3.82376C20.4164 3.40963 20.4854 3.03692 20.6372 2.70562ZM27.0424 2.15345C26.6697 1.9878 26.2003 1.89117 25.6343 1.89117C25.0546 1.89117 24.599 2.04302 24.2539 2.33291C23.9088 2.62279 23.7294 2.9817 23.7294 3.40963C23.7294 3.78234 23.8398 4.07223 24.0469 4.27929C24.2539 4.48636 24.5852 4.66581 25.0132 4.81766C25.3997 4.9557 25.6758 5.09374 25.8138 5.21798C25.9518 5.35602 26.0347 5.50787 26.0347 5.71493C26.0347 5.90819 25.9657 6.08764 25.8138 6.22568C25.6758 6.37753 25.4825 6.44655 25.234 6.44655C24.6266 6.44655 24.1711 6.00482 23.8536 5.12135L23.6189 5.19037L23.6742 6.57079C24.1711 6.76405 24.7233 6.86068 25.3307 6.86068C25.9657 6.86068 26.4488 6.72263 26.8077 6.43275C27.1666 6.15666 27.3461 5.75634 27.3461 5.25939C27.3461 4.92809 27.2632 4.65201 27.0838 4.44494C26.9043 4.23788 26.6144 4.05843 26.2003 3.89278C25.7448 3.72713 25.4273 3.57528 25.2616 3.43724C25.096 3.2992 25.0132 3.13355 25.0132 2.92649C25.0132 2.71942 25.0684 2.55377 25.1926 2.41573C25.3169 2.27769 25.4687 2.22247 25.662 2.22247C26.2141 2.22247 26.6144 2.62279 26.8629 3.40963L27.0976 3.34061L27.0424 2.15345ZM13.7628 2.02921C13.5695 1.93258 13.3624 1.89117 13.1278 1.89117C12.8931 1.89117 12.6584 1.9878 12.3961 2.18106C12.1339 2.37432 11.9406 2.6366 11.7888 2.99551L11.8026 1.89117L9.70433 2.3053V2.49856L9.9114 2.51236C10.1737 2.53997 10.3255 2.74703 10.3531 3.11974C10.436 3.9756 10.436 4.88668 10.3531 5.85297C10.3255 6.22568 10.1737 6.41894 9.9114 6.46035L9.70433 6.48796V6.75024H12.6308V6.48796L12.2581 6.46035C11.9958 6.43275 11.844 6.22568 11.8164 5.85297C11.7335 5.05233 11.7197 4.19647 11.7888 3.313C11.8716 3.17496 12.051 3.09214 12.3271 3.06453C12.6032 3.03692 12.9207 3.11974 13.252 3.313L13.7628 2.02921Z" fill="white"></path>
</svg>