<svg width="31" height="8" viewBox="0 0 31 8" fill="none" xmlns="http://www.w3.org/2000/svg">
<path d="M0 6.12614V1.38451H2.43997V2.18526H0.890671V3.27571H2.07175V4.07669H0.890671V5.32468H2.50403V6.1259L0 6.12614ZM4.80924 2.70462C4.73593 2.48112 4.64791 2.31931 4.54446 2.21872C4.44126 2.11788 4.31195 2.06758 4.15702 2.06758C4.00233 2.06758 3.87634 2.11361 3.79235 2.20567C3.70836 2.29749 3.6666 2.42466 3.6666 2.58647C3.6666 2.70462 3.71572 2.80902 3.81489 2.89846C3.91407 2.98862 4.03649 3.07475 4.18288 3.15779C4.32903 3.24083 4.48847 3.3298 4.66048 3.42352C4.831 3.51671 4.99104 3.6279 5.13785 3.75521C5.28561 3.88402 5.41009 4.03732 5.50584 4.20837C5.60501 4.38394 5.65436 4.59368 5.65436 4.83901C5.65436 5.04471 5.62115 5.23048 5.55424 5.39704C5.49057 5.5593 5.39124 5.70517 5.2636 5.82387C5.1369 5.94179 4.98055 6.03313 4.79548 6.09672C4.61042 6.16007 4.40163 6.19162 4.16912 6.19162C3.80374 6.19162 3.48866 6.08675 3.22388 5.87654C2.9591 5.66609 2.76668 5.32705 2.64639 4.8587L3.52425 4.66818C3.55011 4.81291 3.5876 4.93391 3.63742 5.03285C3.68677 5.13131 3.74419 5.2115 3.80825 5.27248C3.91649 5.3799 4.06219 5.44114 4.21467 5.44331C4.36984 5.44331 4.49986 5.39396 4.60544 5.29549C4.71054 5.19703 4.76369 5.05823 4.76369 4.87863C4.76369 4.72987 4.71434 4.60151 4.6154 4.49427C4.50642 4.37878 4.3826 4.27825 4.24718 4.19532C4.09163 4.09825 3.93239 4.00723 3.76981 3.92247C3.60113 3.83527 3.44127 3.73197 3.29245 3.61404C3.14829 3.50055 3.02387 3.36403 2.92422 3.20999C2.82528 3.05672 2.77593 2.86881 2.77593 2.64531C2.77593 2.23414 2.89338 1.9098 3.12755 1.67349C3.36173 1.43718 3.71168 1.31855 4.17624 1.31855C4.37411 1.31855 4.55277 1.34703 4.71197 1.40397C4.87117 1.46091 5.01091 1.5411 5.13192 1.6436C5.25197 1.74681 5.35257 1.86805 5.43181 2.00827C5.51106 2.14872 5.57061 2.30176 5.60928 2.46808L4.80924 2.70462ZM8.75249 1.38428V2.18526H7.7133V6.12614H6.82286V2.18526H5.78367V1.38428H8.75249ZM8.17121 6.12614L9.32666 1.38428H10.4688L11.5918 6.12638H10.7398L10.5139 5.12775H9.28111L9.02961 6.12638L8.17121 6.12614ZM9.44244 4.32676H10.3269L9.89466 2.40876H9.88137L9.44244 4.32676ZM11.7794 1.38428H13.0189C13.2728 1.38428 13.4986 1.41346 13.6967 1.47277C13.8944 1.53209 14.0624 1.62699 14.2 1.75867C14.3376 1.89011 14.4441 2.05999 14.5198 2.26783C14.5948 2.47591 14.637 2.72859 14.6455 3.02658V4.48478C14.637 4.78278 14.5948 5.03546 14.5198 5.24353C14.4446 5.45161 14.338 5.62125 14.2 5.75269C14.0624 5.88437 13.8944 5.97951 13.6967 6.03859C13.4986 6.0979 13.2728 6.12709 13.0189 6.12709H11.7794V1.38428ZM12.6699 5.32515H12.9797C13.2248 5.32515 13.4156 5.25611 13.5511 5.11802C13.6868 4.97994 13.7544 4.73366 13.7544 4.37896V3.13098C13.7544 2.79407 13.6953 2.55207 13.5769 2.40544C13.4588 2.25905 13.2597 2.18526 12.9797 2.18526H12.6699V5.32515ZM14.6325 6.12946L15.7879 1.38736H16.9299L18.0531 6.12946H17.2008L16.9749 5.13107H15.7422L15.4907 6.12946H14.6325ZM17.524 0.237839C17.5034 0.339458 17.4753 0.439389 17.4397 0.536785C17.4056 0.630977 17.3614 0.715442 17.3073 0.789467C17.2543 0.863464 17.1848 0.924133 17.1043 0.966699C17.0224 1.01059 16.9235 1.03242 16.8074 1.03242C16.7216 1.03242 16.6366 1.02032 16.5526 0.996119C16.4684 0.972393 16.3877 0.94582 16.3101 0.917349C16.2344 0.889498 16.158 0.863157 16.0812 0.838342C16.0093 0.815138 15.9342 0.803135 15.8586 0.802753C15.777 0.802753 15.7123 0.830038 15.6653 0.884607C15.6174 0.940241 15.5841 1.00695 15.5685 1.07869H15.1621C15.1794 0.97358 15.2062 0.872982 15.2427 0.776417C15.2772 0.683932 15.3261 0.597517 15.3877 0.520415C15.4479 0.445915 15.5201 0.387075 15.6043 0.343182C15.6883 0.299289 15.7882 0.277461 15.9042 0.277461C15.9901 0.277461 16.075 0.29051 16.159 0.316609C16.2432 0.342707 16.3239 0.370229 16.4013 0.398701C16.4788 0.427172 16.5522 0.454694 16.6205 0.480792C16.6893 0.506891 16.7498 0.51994 16.8013 0.51994C16.8789 0.51994 16.9446 0.492418 16.9982 0.437848C17.0516 0.383279 17.0872 0.316134 17.1047 0.237364H17.5244L17.524 0.237839ZM15.9035 4.32985H16.788L16.3555 2.41185H16.3429L15.9035 4.32985ZM18.0668 2.90772C18.0668 2.61446 18.1034 2.36677 18.1767 2.16533C18.25 1.9639 18.3508 1.80067 18.4799 1.6761C18.6114 1.54995 18.7707 1.45648 18.9449 1.40326C19.1373 1.34471 19.3375 1.31599 19.5385 1.31808C19.7542 1.31808 19.9518 1.34655 20.1324 1.40349C20.3132 1.46044 20.4681 1.55131 20.5974 1.67634C20.7265 1.80114 20.8273 1.96437 20.9006 2.16533C20.9737 2.367 21.0105 2.61446 21.0105 2.90795V4.60246C21.0105 4.89571 20.9737 5.14341 20.9006 5.34484C20.8273 5.54628 20.7265 5.70951 20.5972 5.83407C20.4659 5.96035 20.3066 6.05383 20.1324 6.10692C19.9518 6.16386 19.7537 6.19233 19.5385 6.19233C19.3236 6.19233 19.1257 6.16386 18.9447 6.10692C18.7704 6.05384 18.6112 5.96035 18.4799 5.83407C18.3508 5.70904 18.2497 5.54628 18.1767 5.34484C18.1034 5.14317 18.0668 4.89642 18.0668 4.60222V2.90772ZM18.9575 4.72038C18.9575 4.98302 19.009 5.16049 19.1124 5.25255C19.2156 5.34437 19.3575 5.3904 19.5381 5.3904C19.7189 5.3904 19.8607 5.34437 19.9639 5.25255C20.0671 5.16049 20.1189 4.9835 20.1189 4.72038V2.78932C20.1189 2.52668 20.0671 2.34921 19.9639 2.25715C19.8607 2.16533 19.7189 2.1193 19.5381 2.1193C19.3575 2.1193 19.2156 2.16533 19.1124 2.25715C19.009 2.34921 18.9575 2.52644 18.9575 2.78932V4.72038ZM30.3466 1.7824C30.3694 1.73969 30.3751 1.68987 30.3628 1.64336C30.3628 1.64336 30.2688 1.34797 30.2285 1.21345C30.2498 1.15295 30.3357 0.971919 30.3621 0.917112C30.363 0.91522 30.3634 0.913136 30.3634 0.911032C30.3634 0.908929 30.3628 0.906865 30.3618 0.905012C30.3608 0.903159 30.3594 0.901568 30.3577 0.900372C30.3559 0.899176 30.3539 0.898408 30.3519 0.898131C30.2828 0.888641 30.0316 0.873456 29.8705 1.11475C28.9437 1.03052 28.455 1.27822 28.1257 1.61916C27.7007 2.05928 27.6462 2.58813 27.6258 2.65409C27.6215 2.62751 27.5714 2.55349 27.5714 2.55349C27.5714 2.55349 27.4065 2.58979 27.3306 2.64009C27.292 2.61098 27.2515 2.58451 27.2094 2.56084L27.231 1.66495L27.5973 1.82392C27.6417 1.80067 27.8009 1.65617 27.8343 1.51263C27.8464 0.998255 27.7323 0.727067 27.7358 0.715916C27.7389 0.706426 27.6481 0.691004 27.5344 0.737507C27.5235 0.714593 27.5119 0.692041 27.4995 0.669888C27.6763 0.612946 27.8568 0.50523 27.9608 0.303322C28.0217 0.185167 27.6768 -0.0917143 27.6374 0.0304743C27.5714 0.234517 27.4637 0.373551 27.355 0.467743C27.3511 0.461268 27.3458 0.455701 27.3396 0.451408C27.3333 0.447115 27.3262 0.444192 27.3187 0.442831C27.2689 0.435476 27.1043 0.533701 27.0919 0.575221C27.0872 0.590406 27.0952 0.60654 27.1028 0.621487C27.0681 0.635957 27.032 0.646848 26.9951 0.653992L26.9927 0.62552L27.007 0.597049C27.0104 0.590385 27.0112 0.582667 27.0092 0.575447C27.0072 0.568228 27.0025 0.562044 26.9961 0.558139C26.9598 0.535599 26.8917 0.486012 26.8615 0.418868C26.8493 0.376067 26.8294 0.335862 26.8027 0.300238L26.736 0.262039C26.7007 0.241837 26.6714 0.212604 26.6511 0.177338L26.6252 0.132258C26.6252 0.132258 26.5315 0.10616 26.4499 0.13036C26.4371 0.134394 26.4212 0.133208 26.4079 0.135106C26.367 0.141051 26.3269 0.151885 26.2886 0.167373C26.2411 0.186354 26.1967 0.212927 26.1576 0.245668C26.0843 0.307119 26.0304 0.390634 26.0067 0.482928C25.9725 0.615793 26.0124 0.746523 26.1002 0.84973C26.1177 0.870372 26.1367 0.890539 26.1564 0.909045C26.1607 0.912604 26.2133 0.953175 26.2138 0.952464C26.1849 1.00181 26.1486 1.03859 26.1351 1.06042C26.1462 1.07014 26.2411 1.10028 26.2411 1.10028C26.2411 1.10028 26.1804 1.10929 26.1555 1.13041C26.1429 1.19494 26.0888 1.22436 26.0945 1.22579H26.0959L26.0183 1.26897C25.907 1.32069 25.8371 1.46684 25.8418 1.58856L25.7915 2.55989C25.8219 2.61779 25.8793 2.66358 25.9424 2.69751L25.969 2.64246L26.5389 2.7433L26.881 2.8038L26.8499 2.87901L26.8143 2.96585L26.6921 3.26195L26.5659 3.56872L26.3154 3.39837L26.0767 3.23608L25.9272 3.13454L25.7806 3.03489L25.8399 2.91151L25.8966 2.79312C25.838 2.76607 25.7751 2.71672 25.7156 2.66737C25.6648 2.70344 25.6271 2.76418 25.5844 2.80925H25.5837C25.4771 2.76737 25.3666 2.73629 25.2539 2.71649C25.0674 2.68398 24.8769 2.68093 24.6894 2.70747C24.5418 2.72897 24.3977 2.76998 24.2609 2.82942V2.83108C24.1976 2.85837 24.1371 2.8904 24.0794 2.92741C24.0794 2.92741 24.0493 2.94876 24.0066 2.98008C23.855 2.63653 23.5712 2.20519 23.0946 2.26973C22.7059 2.32192 22.4431 2.73855 22.5074 3.19694C22.5176 3.26906 22.5351 3.33787 22.5591 3.4024L22.5607 3.40644C22.5636 3.42731 22.8054 4.05368 22.836 4.11584C22.8471 4.15285 22.8564 4.18939 22.8611 4.22285C22.8837 4.38323 22.7916 4.52843 22.6556 4.54742C22.584 4.55691 22.515 4.52986 22.4618 4.47861C22.5292 4.72607 22.7508 4.82264 22.9722 4.78539C23.2075 4.746 23.3342 4.56663 23.3558 4.27575C23.3757 4.0105 23.2002 3.61499 23.2002 3.61499C23.2906 3.66884 23.4317 3.63658 23.4607 3.5756C23.3722 3.48758 23.3482 3.45911 23.3413 3.396C23.3197 3.19504 23.4533 3.06716 23.5969 3.04746C23.6766 3.03631 23.758 3.08376 23.8173 3.15233C23.6268 3.36824 23.5112 3.65058 23.5124 3.95972C23.5145 4.48051 23.6787 4.81765 23.6687 5.0039C23.6426 5.47201 23.2478 5.54248 23.218 5.58115C23.2962 5.68341 23.5067 6.08794 23.5141 6.09719C23.5169 6.11546 23.4744 6.61347 23.4744 6.63814C23.4744 6.66282 23.4578 6.68939 23.4474 6.71739C23.4218 6.78762 23.3805 6.9015 23.3805 6.97007C23.3805 6.97315 23.3805 6.97576 23.3819 6.9779C23.382 6.99202 23.3857 7.00589 23.3926 7.01823C23.4106 7.03532 23.4282 7.05406 23.4443 7.07399C23.5133 7.15466 23.5736 7.25644 23.6175 7.37365C23.6424 7.44032 23.6576 7.52787 23.6676 7.5924H24.0942C24.084 7.50766 24.0626 7.42467 24.0303 7.34565C23.9698 7.20994 23.8799 7.09985 23.7803 7.02844C23.7776 7.02535 23.7776 7.02369 23.7776 7.02179C23.7776 6.99522 23.7048 6.75416 23.7048 6.72901C23.7048 6.7041 23.7152 6.60232 23.7152 6.57835C23.7152 6.55249 23.7655 6.2953 23.8061 6.15698C23.8272 6.08391 23.8583 5.99446 23.91 5.91616C23.9439 5.91679 23.9778 5.91344 24.0109 5.9062C24.0697 5.86634 24.116 5.82316 24.1601 5.75815C24.1694 5.70453 24.1644 5.66538 24.1606 5.63169C24.1796 5.62576 24.1983 5.61769 24.2175 5.60986C24.2835 5.58305 24.3461 5.55007 24.4069 5.51069C24.4626 5.47462 24.5153 5.43405 24.5649 5.38921H24.5625C24.5625 5.38921 24.8377 5.14199 25.004 4.65252C25.004 4.65252 25.2821 4.55169 25.3436 4.46651C25.3436 4.46651 25.2823 4.60009 25.0017 4.72583C24.9815 5.08172 24.8439 5.26702 24.772 5.34057C24.8031 5.37996 24.9718 5.61105 24.9768 5.61864C25.0221 5.77642 24.962 5.92613 24.962 5.92613L24.9706 5.92708C24.9706 5.92708 25.2468 5.91355 25.3929 6.0272C25.4487 6.07062 25.5526 6.18095 25.6131 6.26019C25.6482 6.30479 25.7967 6.5672 25.8432 6.64787C25.9713 6.82178 25.7006 7.17957 25.6843 7.22204L25.6935 7.22916L26.0748 7.53759C26.0845 7.52122 26.0938 7.50438 26.1014 7.48635C26.1332 7.40093 26.1526 7.30864 26.1574 7.20994V7.20804C26.155 6.88276 26.113 6.6296 26.0575 6.5347C26.019 6.46922 25.8333 6.16102 25.4921 5.75364C25.5073 5.72659 25.5398 5.69622 25.5462 5.67155C25.5447 5.60153 25.5328 5.53212 25.5108 5.46561C25.4897 5.43334 25.4439 5.41578 25.4294 5.40558L25.4354 5.39372C25.4665 5.35315 25.4947 5.30854 25.5194 5.25611C25.5692 5.15314 25.6048 5.03 25.619 4.89595C25.623 4.86416 25.6261 4.83118 25.6261 4.79796V4.77257C25.6276 4.7702 25.6285 4.76735 25.6311 4.76522C25.6767 4.78325 25.7239 4.80199 25.7735 4.81979C26.028 4.91185 26.3291 4.99299 26.6565 5.05373C26.8414 5.08694 26.9785 5.09145 27.1194 5.09145C27.1194 5.15599 27.1247 5.28529 27.1484 5.314C27.286 5.29241 27.3878 5.26892 27.4416 5.25635C27.6407 5.20984 27.9482 5.16595 27.9681 5.14863C27.971 5.14803 27.9739 5.14771 27.9769 5.14768L27.9895 5.15954C27.9693 5.19608 27.9041 5.25682 27.9154 5.27889C27.9895 5.41721 28.0104 5.60346 28.0132 5.61247C28.0308 5.72256 28.0737 5.9387 28.0737 5.96362C28.0737 5.98829 28.0421 6.58642 28.0421 6.58642C28.041 6.58785 27.9544 6.73162 27.9273 6.82249C27.8996 6.91408 27.8943 6.99332 27.8875 7.03745C27.9961 7.18004 28.0398 7.56417 28.0346 7.5924H28.5342C28.5228 7.49987 28.4685 7.16605 28.2599 6.94967C28.2599 6.92428 28.291 6.49176 28.291 6.46613C28.291 6.43671 28.2941 6.40444 28.2993 6.37075C28.3183 6.24002 28.3641 6.08699 28.3641 5.93253C28.3641 5.92898 28.6706 5.12704 28.7245 4.9294C28.6588 4.91319 28.5993 4.87785 28.5537 4.82786C28.5249 4.79687 28.5025 4.76051 28.4877 4.72086C28.473 4.68121 28.4662 4.63904 28.4678 4.59677C28.4687 4.58182 28.4699 4.56758 28.4721 4.55358C28.3831 4.49688 28.3079 4.37184 28.2533 4.27908L28.2569 4.2767C28.2981 4.32961 28.3475 4.37635 28.4025 4.41479C28.4327 4.43614 28.4642 4.45465 28.4972 4.47149C28.5321 4.48881 28.5681 4.50305 28.6059 4.51396C28.556 4.6333 28.5928 4.8262 28.8168 4.8428C28.8405 4.84446 29.7248 4.76522 29.7459 4.78064C29.8114 4.82975 29.9414 4.86487 29.9867 4.86961C30.0121 5.09477 29.9362 5.90715 29.9362 5.92328C29.9265 5.93087 29.8285 6.01486 29.5988 6.28131L29.6014 6.28605L29.8142 6.69034L29.8173 6.69509C30.1571 6.37668 30.1616 5.86302 30.1616 5.85377C30.1616 5.85258 30.2729 4.96736 30.302 4.78895C30.3068 4.74363 30.308 4.72726 30.3087 4.69025C30.2612 4.6091 30.2116 4.52606 30.1269 4.48478C30.0522 4.47719 29.9862 4.50115 29.9115 4.51752C29.9115 4.51752 29.5314 4.45204 29.4448 4.43353C29.4154 4.4276 29.2692 4.3811 29.2681 4.3811C29.2588 4.37801 29.2498 4.37517 29.2429 4.37113C29.2315 4.36378 29.2206 4.35524 29.2106 4.34764C29.151 4.30124 29.1031 4.24152 29.0707 4.17326L29.0832 4.16187L29.3029 4.31727C29.6304 3.62163 29.1914 2.58054 29.1914 2.58054C29.1914 2.58054 29.4057 2.25834 29.4311 2.23058C29.4562 2.20306 29.7267 2.6669 29.7267 2.6669L29.7478 2.93429C29.7478 2.93429 29.8078 3.10607 30.0301 3.07C30.2947 3.0273 30.34 2.84461 30.34 2.84461L30.27 1.97386C30.2679 1.94748 30.2734 1.92103 30.2859 1.8977L30.3476 1.78192L30.3466 1.7824ZM23.0478 2.69608C22.9465 2.75018 22.7947 2.9331 22.8272 3.22754C22.7114 3.14498 22.6825 2.8541 22.8326 2.69798C22.8073 2.68896 22.7259 2.71767 22.6896 2.74258C22.7584 2.61352 22.9071 2.40093 23.1783 2.41612C23.3736 2.42679 23.5195 2.49062 23.6813 2.70676C23.5304 2.60165 23.2431 2.5924 23.0478 2.69608ZM26.7021 4.54742L25.2593 4.21715C25.3027 4.06388 25.4427 3.75758 25.5438 3.53859C25.5773 3.46362 25.5886 3.43918 25.5886 3.43918C25.5115 3.26693 25.0228 3.10868 24.6344 3.14972C24.2026 3.1948 23.7995 3.43681 23.626 3.82923C23.7416 3.21188 24.3048 2.9165 24.6897 2.86548C24.8707 2.84176 25.2159 2.83844 25.5343 2.95802C25.4764 3.20239 25.6055 3.3922 25.7614 3.49422C25.7614 3.49422 25.5495 3.73196 25.4404 4.13031C25.5115 4.17705 26.6625 4.5002 26.6625 4.5002L26.7664 4.01097L26.7021 4.54742ZM27.6896 0.0781634C27.6896 0.0781634 27.7562 0.132021 27.752 0.165949C27.7475 0.200352 27.7325 0.350062 27.4108 0.53465L27.4084 0.522787C27.4084 0.522787 27.6955 0.277224 27.6896 0.0781634ZM27.0646 1.0189C27.0724 1.01168 27.0777 1.00221 27.0798 0.991825C27.0819 0.981437 27.0806 0.970655 27.0763 0.961005L26.9927 0.776417L27.0013 0.728965C27.0077 0.72944 27.0513 0.732762 27.1175 0.731338C27.1192 0.757911 27.1024 0.789229 27.132 0.79872C27.1987 0.819836 27.2122 0.819836 27.3002 0.835732C27.3064 0.836918 27.3121 0.837393 27.3176 0.837156C27.3319 0.843053 27.3446 0.852333 27.3546 0.864203C27.3403 0.879388 27.3263 0.895996 27.3128 0.914028C27.3083 0.92059 27.3055 0.928178 27.3047 0.936093C27.439 1.13705 27.3989 1.29103 27.3904 1.35296L27.3894 1.37384C27.3892 1.37811 27.3887 1.3698 27.3894 1.37384C27.3889 1.36686 27.3892 1.35985 27.3904 1.35296C27.3925 1.28574 27.382 1.21872 27.3595 1.15532L27.1306 1.07536C27.1206 1.07191 27.11 1.07061 27.0994 1.07155C27.0889 1.0725 27.0786 1.07565 27.0694 1.08082C27.0547 1.08912 27.0381 1.09885 27.0222 1.10668C26.9474 1.14369 26.8366 1.09648 26.7747 1.07916C26.7073 1.05306 26.6131 1.02934 26.5462 0.981647C26.5412 0.958632 26.5218 0.92423 26.5199 0.897182C26.5194 0.888404 26.5299 0.878201 26.5327 0.87749C26.5327 0.87749 26.5334 0.916875 26.5507 0.954599C26.5894 1.00063 26.7768 1.05069 26.8601 1.07038C26.9299 1.08153 27.0165 1.06279 27.0646 1.0189ZM26.7424 0.381618C26.7424 0.381618 26.7892 0.391108 26.7897 0.422427C26.7894 0.437848 26.7908 0.459439 26.7849 0.472251C26.7764 0.483639 26.8219 0.523262 26.8146 0.537497C26.7972 0.570476 26.7574 0.546988 26.7716 0.583526C26.8013 0.598473 26.8139 0.60132 26.8271 0.607963C26.9391 0.662533 26.8758 0.73205 26.8544 0.755538H26.8539C26.8274 0.770212 26.7967 0.775243 26.7669 0.769774C26.7386 0.763514 26.7099 0.759155 26.681 0.756725C26.6277 0.701638 26.5824 0.639438 26.5462 0.5719C26.569 0.468218 26.6048 0.366908 26.6172 0.26109C26.6518 0.29312 26.6482 0.335115 26.7424 0.381618ZM26.49 0.205572C26.49 0.172118 26.5768 0.174728 26.5695 0.212689C26.5472 0.330607 26.3716 0.770249 26.3716 0.770249L26.49 0.205572ZM26.1763 0.549835C26.1709 0.573264 26.1665 0.596937 26.1633 0.620775C26.1607 0.640033 26.1585 0.659333 26.1566 0.678666C26.1531 0.714493 26.1448 0.785433 26.1685 0.816989C26.0406 0.647111 26.042 0.4974 26.1768 0.333454C26.2162 0.290273 26.2845 0.232382 26.3839 0.208656C26.3608 0.235279 26.3406 0.264405 26.3239 0.295493C26.2495 0.362917 26.198 0.451801 26.1763 0.549835ZM26.3329 1.22294C26.36 1.2208 26.4857 1.24192 26.5116 1.24927C26.5699 1.26612 26.5384 1.31998 26.5913 1.34987C26.7054 1.41441 26.736 1.42176 26.8131 1.52711C26.8874 1.62794 26.9387 1.71359 27.0378 1.87872C27.0407 1.88347 27.0516 1.91289 27.0518 1.91858C27.0525 1.92784 27.0525 1.93804 27.0461 1.94492C26.9486 1.78548 26.811 1.64431 26.6447 1.4742C26.6029 1.43196 26.56 1.571 26.5624 1.57669C26.5301 1.50077 26.5142 1.26588 26.1403 1.23741C26.1151 1.23551 26.2969 1.22555 26.3329 1.22318V1.22294ZM26.3548 2.34541C26.3548 2.33023 26.2328 2.22512 26.2342 2.19238L26.3934 1.82842L27.1342 2.2078L27.0113 2.46641L26.5042 2.3065C26.6962 2.38907 26.8442 2.45716 27.0113 2.54186C27.113 2.60236 27.2359 2.62965 27.3152 2.68469C27.3358 2.69893 27.4229 2.75397 27.4407 2.76679C27.2561 2.71222 26.672 2.47306 26.3548 2.34541ZM27.5854 4.93225C27.5505 4.93652 27.5626 4.83996 27.5361 4.83996C27.3852 4.92774 27.4414 4.70709 27.4414 4.70709C27.7183 3.55401 27.4806 3.59197 27.7641 3.42494C28.1283 3.20975 27.3427 3.05933 27.2177 2.93287C27.4947 2.99625 27.765 3.08644 28.0246 3.20216C28.0343 3.20643 27.5717 4.68479 27.5717 4.68479V4.68858L27.6571 4.81481C27.8269 4.86321 27.9722 4.8708 28.0464 4.91659C28.0319 4.90758 27.8749 4.8969 27.5854 4.93225ZM28.4732 2.47709C28.6324 2.54898 28.8714 2.71411 28.9219 2.94378C28.9229 2.94853 28.6903 2.66619 28.1546 2.60403C27.9828 2.5841 27.8893 2.62775 27.788 2.68042C27.8834 2.32264 27.9207 2.12998 28.1404 1.82368C28.3999 1.46162 28.8968 1.26731 29.2441 1.26731C28.617 1.39353 27.989 2.25881 28.4732 2.47733V2.47709ZM30.0752 1.82842C30.0752 1.82842 30.1976 2.67236 30.2097 2.72099C30.2143 2.73808 30.2048 2.74164 30.1912 2.73926C30.139 2.72977 30.0935 2.77509 30.1087 2.82563C30.1196 2.86121 30.1307 2.88091 30.0629 2.88304C29.9402 2.88684 30.0014 2.77509 30.0014 2.77509L30.0629 2.63606C30.0382 1.72474 29.7198 1.78524 29.7198 1.78524C30.0261 1.72474 29.9158 1.39638 29.9158 1.39638C30.1072 1.43434 30.1146 1.34726 30.1333 1.436C30.1462 1.49769 30.2342 1.59259 30.2539 1.68037C30.2748 1.77267 30.0797 1.70956 30.0752 1.82842Z" fill="white"></path>
</svg>