<svg width="21" height="7" viewBox="0 0 21 7" fill="none" xmlns="http://www.w3.org/2000/svg">
<path d="M0.00771378 0.285686V0H3.63304V1.78361H3.33222L2.83084 0.409226H1.8358V2.81826H2.61486L2.79227 2.0693H3.0931V4.0305H2.79227L2.61486 3.22749H1.8358V5.65197L2.55315 5.78322V6.06119H0V5.78322L0.570796 5.65197V0.393783L0.00771378 0.285686ZM3.97243 3.37418C3.97243 1.42071 4.82863 0.656304 6.06278 0.656304C7.48205 0.656304 8.05284 1.52108 8.05284 3.42824C8.05284 5.36628 7.19665 6.15385 5.96251 6.15385C4.55095 6.15385 3.97243 5.28906 3.97243 3.37418ZM17.764 6.06118H16.3988V5.82183L16.7922 5.71373L18.088 0.733517H18.7592L20.2556 5.71373L20.6567 5.82183V6.06118H18.5894V5.82183L19.0677 5.71373L18.6511 4.43973H17.5249L17.2319 5.71373L17.764 5.82183V6.06118ZM11.4776 6.06118H8.37681V5.82183L8.83963 5.71373V1.08098L8.39995 0.996042V0.748959H10.444V0.996042L9.96578 1.08098V5.69828H10.7988L11.2385 4.45516H11.4776V6.06118ZM11.7939 0.996042V0.748959H13.7376V0.996042L13.352 1.08098V3.25065H14.5245V1.08098L14.1618 0.996042V0.748959H16.0594V0.996042L15.6583 1.08098V5.71373L16.098 5.82183V6.06118H14.1618V5.82183L14.5245 5.71373V3.61355H13.352V5.71373L13.7376 5.82183V6.06118H11.7939V5.82183L12.2335 5.71373V1.09641L11.7939 0.996042ZM6.85726 3.44367C6.85726 1.28945 6.47931 0.965162 6.03964 0.965162C5.59225 0.965162 5.1603 1.24312 5.1603 3.36647C5.1603 5.51297 5.54598 5.85271 5.98564 5.85271C6.4176 5.85271 6.85726 5.5593 6.85726 3.44367ZM18.034 2.37814L17.6098 4.07683H18.5509L18.034 2.37814Z" fill="white"></path>
</svg>