<svg width="30" height="5" viewBox="0 0 30 5" fill="none" xmlns="http://www.w3.org/2000/svg">
<path d="M4.33378 4.58661V4.50759C5.12076 4.50759 5.5884 4.0432 6.56048 2.65219L5.20736 0.691245C4.97354 0.348093 4.84093 0.213321 4.44474 0.213321V0.134841H7.35016V0.213321C7.02108 0.213321 6.96317 0.34268 6.96317 0.506137C6.96317 0.63333 7.03136 0.756194 7.1066 0.876893L7.7561 1.82949C8.1891 1.21084 8.48516 0.768642 8.48516 0.495311C8.48516 0.287472 8.32278 0.213321 8.04729 0.213321V0.134841H9.71163V0.213321C9.11301 0.213321 8.80287 0.538071 7.82051 1.92421L9.23208 3.99286C9.47619 4.34522 9.72245 4.50759 10.0261 4.50759V4.58661H7.24516V4.50759C7.49576 4.50759 7.5856 4.41558 7.5856 4.26186C7.5856 4.16011 7.50875 4.02101 7.4032 3.87216L6.62489 2.74582C6.06957 3.55229 5.91531 3.80992 5.91531 4.03941C5.91531 4.31274 6.13181 4.50759 6.51068 4.50759V4.58661H4.33378ZM25.3342 1.97455C25.3754 0.664182 25.633 0.313452 25.9426 0.313452C26.2522 0.313452 26.5607 0.599232 26.5488 1.97455H25.3342ZM23.6369 2.361C23.6369 4.2689 25.5789 5.22962 27.2595 4.39393L27.2053 4.3398C26.1044 4.71218 25.3261 3.89111 25.3261 2.35991C25.3261 2.28955 25.3261 2.22135 25.3261 2.15532H28.015C28.015 0.81952 27.2573 0.000610412 25.9388 0.000610412C24.6961 0.00169291 23.6369 1.07012 23.6369 2.361ZM15.6356 0.574875V0.497477L17.7075 0.00169232V0.732378C18.1676 0.387603 18.6568 0.00493968 19.1802 0.00493968C19.7366 0.00493968 20.1047 0.269069 20.2416 0.767559C20.7152 0.414665 21.2202 0.00493968 21.762 0.00493968C22.4797 0.00493968 22.8845 0.444975 22.8835 1.2601V4.0524C22.8835 4.43669 22.9636 4.50813 23.2309 4.50813V4.58661H20.9739V4.50813C21.2143 4.50813 21.303 4.3923 21.303 4.10598V1.02898C21.303 0.476909 20.7455 0.548896 20.2746 0.902331C20.2948 1.02051 20.3046 1.14022 20.3039 1.2601V4.0524C20.3039 4.43669 20.384 4.50813 20.6514 4.50813V4.58661H18.3922V4.50813C18.633 4.50813 18.7218 4.3923 18.7218 4.10598V1.02898C18.7218 0.483404 18.1778 0.54673 17.708 0.889882V4.18663C17.708 4.43723 17.8596 4.50867 18.0555 4.50867V4.58715H15.6356V4.50867C15.9647 4.50867 16.1227 4.26836 16.1227 3.90193V1.09664C16.1249 0.749699 15.7899 0.576498 15.6356 0.576498V0.574875ZM11.8582 3.45432C11.8582 2.89034 12.1056 2.34584 12.9207 2.15965L12.9266 3.50899C12.9018 3.85701 12.6371 4.05024 12.3854 4.04699C12.0893 4.04482 11.8582 3.86188 11.8582 3.45594V3.45432ZM10.2204 3.68597C10.2204 4.51354 11.0215 4.71868 11.3955 4.71868C12.0682 4.71868 12.7302 4.3398 12.9456 3.8175C13.0295 4.43398 13.3927 4.71868 14.0822 4.71868C14.6873 4.71868 15.0792 4.46916 15.3271 4.00639L15.2648 3.96201C14.9358 4.24671 14.5071 4.03291 14.5071 3.45432V1.33695C14.5071 0.266905 13.1426 -0.286792 11.9021 0.149996L11.9151 0.223605C12.6122 0.229017 12.9137 0.69828 12.9137 1.5226V2.06385C10.9062 2.31066 10.2204 2.84866 10.2204 3.6876V3.68597ZM1.69682 1.97455C1.73849 0.664182 1.99558 0.313452 2.30572 0.313452C2.61586 0.313452 2.92329 0.599232 2.91192 1.97455H1.69682ZM0 2.361C0 4.43777 2.31925 5.42393 4.0756 4.15361L4.02148 4.09949C2.66836 4.90054 1.68924 4.10274 1.68924 2.36046C1.68924 2.29009 1.68924 2.2219 1.68924 2.15586H4.38195C4.38195 0.820062 3.6242 0.00115219 2.30572 0.00115219C1.05922 0.00169344 0 1.07012 0 2.361ZM11.2948 1.75101C11.3829 1.75255 11.4705 1.73632 11.5522 1.7033C11.6339 1.67028 11.7082 1.62115 11.7705 1.55882C11.8328 1.49649 11.882 1.42224 11.915 1.34051C11.948 1.25878 11.9642 1.17124 11.9627 1.08311C11.9627 0.95101 11.9235 0.821878 11.8501 0.712042C11.7767 0.602206 11.6724 0.5166 11.5504 0.466048C11.4283 0.415497 11.294 0.402269 11.1645 0.42804C11.0349 0.453811 10.9159 0.517423 10.8225 0.61083C10.7291 0.704238 10.6655 0.823247 10.6397 0.952807C10.6139 1.08237 10.6272 1.21666 10.6777 1.3387C10.7283 1.46075 10.8139 1.56506 10.9237 1.63845C11.0336 1.71184 11.1627 1.75101 11.2948 1.75101ZM28.4594 4.75115C28.5474 4.75283 28.6348 4.7368 28.7164 4.704C28.7981 4.67121 28.8723 4.62233 28.9346 4.56026C28.997 4.4982 29.0463 4.42423 29.0794 4.34274C29.1126 4.26126 29.1291 4.17393 29.1278 4.08596C29.128 3.95384 29.0889 3.82465 29.0155 3.71474C28.9422 3.60484 28.8379 3.51915 28.7159 3.46851C28.5939 3.41788 28.4596 3.40457 28.33 3.43028C28.2004 3.45599 28.0813 3.51956 27.9879 3.61295C27.8944 3.70633 27.8307 3.82534 27.8049 3.95492C27.7791 4.08449 27.7923 4.21881 27.8428 4.34089C27.8934 4.46296 27.979 4.5673 28.0888 4.64072C28.1987 4.71413 28.3278 4.75332 28.4599 4.75332L28.4594 4.75115Z" fill="white"></path>
</svg>