<svg width="25" height="12" viewBox="0 0 25 12" fill="none" xmlns="http://www.w3.org/2000/svg">
<path d="M0.221497 4.465L2.9766 4.48162V3.42311H1.38968V2.63547H2.44486L2.45151 1.70159H1.38469V1.0286H2.90017L2.90681 0H0.221497V4.465Z" fill="white"></path>
<path d="M3.32056 4.48161H4.40897L4.39568 2.0173C4.57514 1.9392 4.4688 1.96412 4.64494 1.93588C4.82108 1.90763 4.85597 2.15024 4.85597 2.28982V4.48161H6.01418L6.00753 2.0605C6.14546 1.91261 6.19032 1.96412 6.31495 1.96412C6.37643 1.96412 6.45453 2.04222 6.45453 2.20175V4.48327H7.5712V2.40946C7.5712 2.18679 7.55957 1.77137 7.49144 1.56698C7.38675 1.24793 7.11423 1.07511 6.78854 1.07511C6.22688 1.07511 6.22023 1.46395 6.05905 1.70656L5.96599 1.69991C5.83306 1.27119 5.68683 1.07511 5.2149 1.09007C5.06701 1.09505 4.63829 1.29446 4.49372 1.69991L4.41396 1.70656V1.0668H3.32222V4.48161H3.32056Z" fill="white"></path>
<path d="M7.82045 1.0668H8.66459V1.72816L8.74103 1.72152C8.92548 1.336 9.10827 1.06846 9.49711 1.06846C10.0521 1.06846 10.2499 1.53374 10.3113 1.77967C10.3795 2.05053 10.4343 2.41943 10.4343 2.90133C10.4343 3.61087 10.3047 3.92992 10.1435 4.16921C10.0255 4.34369 9.82945 4.48493 9.46554 4.48493C9.07005 4.48493 8.9205 4.21574 8.77427 3.91164H8.73106V5.39056H7.81879V1.0668H7.82045ZM8.76097 3.47628C8.82578 3.64079 8.84904 3.75378 9.03183 3.73883C9.13652 3.73052 9.34257 3.61254 9.34257 3.01765C9.34257 2.90963 9.34257 2.31973 9.3326 2.24163C9.2894 1.93588 9.13818 1.8611 9.03349 1.8611C8.81747 1.8611 8.82412 2.01564 8.76762 2.16685L8.76097 3.47794V3.47628Z" fill="white"></path>
<path d="M10.647 4.49656H11.8368V2.65871C12.0844 2.41278 12.5613 2.32803 12.8438 2.37456V1.06514C12.4566 1.07843 11.9664 1.75308 11.8651 2.22335L11.8069 2.2599V1.06348L10.6487 1.22134V4.49324L10.647 4.49656Z" fill="white"></path>
<path d="M14.1034 3.09907C14.0967 3.43972 14.1898 3.67734 14.577 3.67734C14.8694 3.67734 15.004 3.6358 15.4327 3.44138L15.7485 4.24897C15.3812 4.36861 14.9708 4.48825 14.4955 4.48825C14.0535 4.48825 13.4105 4.44671 13.1944 3.67734C13.1263 3.43141 13.0781 2.98773 13.0781 2.96281C13.0781 2.37623 13.0216 2.07878 13.2675 1.70822C13.5467 1.2795 14.0286 1.0668 14.3211 1.0668C14.906 1.0668 15.22 1.36092 15.3979 1.60686C15.6155 1.90264 15.6338 2.23664 15.6338 3.09907H14.105H14.1034ZM14.6218 2.63878C14.6218 2.13528 14.6335 1.75973 14.3626 1.75973C14.0436 1.75973 14.1067 2.2167 14.1134 2.63878H14.6218Z" fill="white"></path>
<path d="M18.3623 1.62848C18.1729 1.47727 17.9054 1.06517 17.2739 1.04689C17.0845 1.0419 16.8386 1.04689 16.5478 1.2114C16.1872 1.41246 16.0011 1.79299 16.0011 2.127C16.0011 2.65043 16.0526 3.0509 17.0911 3.32675C17.3919 3.40983 17.4168 3.43476 17.5282 3.55939C17.6079 3.64912 17.4484 3.81861 17.2191 3.81861C16.8585 3.81861 16.6225 3.57933 16.4397 3.40319L15.8814 3.96152C16.0708 4.10609 16.4281 4.60958 17.239 4.56306C17.6395 4.53979 18.4703 4.49825 18.4803 3.39654C18.487 2.68533 17.9552 2.53245 17.4451 2.31809C17.1659 2.2051 16.9881 2.17186 16.9914 2.01732C16.9948 1.84451 17.0313 1.80629 17.2556 1.80629C17.48 1.80629 17.5149 1.97744 17.8339 2.17851L18.3623 1.63015V1.62848Z" fill="white"></path>
<path d="M18.8725 1.55036C19.1649 1.32935 19.4939 1.0668 20.2268 1.0668C20.4677 1.0668 20.7651 1.08342 21.0443 1.35428C21.3035 1.60686 21.3035 1.85777 21.3035 2.03392V3.93158C21.3035 3.94986 21.4132 4.03959 21.5877 4.04624V4.49656L21.2387 4.48327C20.7984 4.48327 20.8482 4.49656 20.6056 4.38357L20.4494 4.27223C20.3663 4.17918 20.3398 4.01301 20.3265 4.06618C20.3132 4.11603 19.8894 4.53312 19.5903 4.53312C19.2264 4.53312 18.6697 4.35033 18.6697 3.58263C18.6697 3.27355 18.8243 2.91296 19.4458 2.63545C19.7764 2.49088 19.9974 2.5424 20.3015 2.52246C20.3015 2.1951 20.3198 2.14691 20.255 2.05884C20.1968 1.97742 20.147 1.92258 19.9709 1.92258C19.5754 1.92258 19.3195 2.10205 19.1317 2.25991L18.8708 1.5487L18.8725 1.55036ZM20.2683 2.94287C20.0672 2.98109 19.7066 3.05254 19.7366 3.46963C19.7532 3.69396 19.7615 3.78535 19.9692 3.8136C20.3497 3.86678 20.2666 3.53111 20.2666 3.31011V2.94287H20.2683Z" fill="white"></path>
<path d="M24.1833 1.57362C23.9939 1.42241 23.522 1.0668 23.0666 1.0668C22.8772 1.0668 22.6313 1.07511 22.3405 1.23962C21.9799 1.44069 21.8303 1.71985 21.8303 2.05386C21.8303 2.57729 21.9849 3.08079 22.8191 3.30844C23.1198 3.39319 23.3392 3.42643 23.3392 3.61586C23.3392 3.7355 23.3259 3.80031 23.0401 3.80031C22.6795 3.80031 22.4352 3.53444 22.2507 3.35663L21.7107 3.9698C22.0779 4.31045 22.3322 4.59793 23.2544 4.49656C23.6532 4.4517 24.1966 4.34202 24.2996 3.49788C24.3927 2.74014 23.6632 2.49088 23.1531 2.27985C22.9852 2.21338 22.8107 2.1519 22.8107 2.06216C22.8107 1.89766 22.8706 1.85944 23.0949 1.85944C23.3192 1.85944 23.4289 1.98406 23.6732 2.24163L24.1833 1.57362Z" fill="white"></path>
<path d="M2.32189 8.79041C2.1175 9.0729 1.65388 9.27231 1.09555 9.15599C0.484042 9.02803 0.135084 8.77213 0.0154407 7.92632C-0.087585 7.20348 0.344458 6.68171 0.731636 6.36432C0.573774 6.09512 0.273005 5.76444 0.291284 5.2759C0.32618 4.34535 0.829677 4.13763 1.31489 4.13763C1.88154 4.13763 2.40165 4.48992 2.40165 5.2892C2.40165 5.88243 2.00949 6.12005 1.69875 6.39423L2.41827 7.45772C2.47477 7.23838 2.41827 6.7947 2.44153 6.54378H3.25078C3.12948 7.36799 3.01814 7.75351 2.81043 8.11243L3.57315 9.16596H2.621L2.32355 8.79207L2.32189 8.79041ZM0.974245 6.97084C0.808074 7.10876 0.734959 7.476 0.734959 7.75849C0.734959 8.05427 0.960951 8.31516 1.13543 8.31516C1.23347 8.31516 1.27003 8.32846 1.4578 8.22875C1.55252 8.17724 1.77186 8.04763 1.69543 7.97119L0.974245 6.97084ZM1.06564 5.37062C1.06564 5.61821 1.20855 5.70795 1.35311 5.86581C1.55252 5.71459 1.70373 5.62486 1.6273 5.2194C1.58409 5.06819 1.46112 4.93359 1.36308 4.93359C1.21353 4.93359 1.06564 5.09478 1.06564 5.37062Z" fill="white"></path>
<path d="M2.52795 10.0417H3.65625L3.64961 8.07256C3.64961 7.95292 3.65791 7.97286 3.64961 7.83992L3.69115 7.82663C3.94871 8.38662 4.00521 8.53784 4.11322 8.72063L4.7131 10.0417H5.74169L5.73505 5.53015H4.63998V6.38925C4.63998 6.56539 4.64663 7.01405 4.63334 7.26663V7.46105L4.62669 7.60064C4.60675 7.56906 4.53197 7.39292 4.51037 7.3547C4.46218 7.25999 4.17138 6.62522 4.11821 6.5305L3.66955 5.53015H2.52795V10.0417Z" fill="white"></path>
<path d="M2.53127 6.54379H3.24912C3.12782 7.368 3.01649 7.75351 2.80877 8.11244L3.5715 9.16596H2.61934L2.52794 9.04798C2.52794 9.04798 2.50967 6.79637 2.53293 6.54379H2.53127Z" fill="white"></path>
<path d="M6.98964 8.66248C6.98299 9.00313 6.98964 9.19256 7.65598 9.19256C7.94844 9.19256 7.93515 9.16265 8.36221 8.96823L8.62476 9.74093C8.25752 9.86057 7.87533 10.0417 7.36519 10.0583C6.92317 10.0716 6.26015 9.97024 6.04247 9.20087C5.97434 8.95494 5.92615 8.55779 5.92615 8.53287C5.92615 7.94628 5.9544 7.49596 6.19867 7.1254C6.47783 6.69668 6.94477 6.60861 7.23557 6.60861C7.82049 6.60861 7.99165 6.79971 8.19105 7.02736C8.43698 7.30321 8.49847 7.60397 8.52672 8.66913L6.98964 8.66248ZM7.47486 8.17892C7.47486 7.67543 7.50975 7.30154 7.22228 7.31151C6.9132 7.32148 6.9697 7.75685 6.97635 8.17892H7.47486Z" fill="white"></path>
<path d="M9.04678 10.2295C9.21794 10.3076 9.52868 10.5518 9.85437 10.5518C10.0106 10.5518 10.2266 10.5385 10.3413 10.379C10.4061 10.2876 10.4227 10.163 10.4376 10.0417V9.5116H10.3479C10.1435 9.79575 10.0471 10.0035 9.58518 10.0035C9.17806 10.0035 9.00358 9.72596 8.90886 9.49332C8.83408 9.31053 8.77925 9.0646 8.77925 8.91338V7.98116C8.77925 7.66046 8.70946 6.60693 9.62007 6.60693C9.98066 6.60693 10.1784 6.83625 10.2715 6.97583C10.2997 7.01571 10.2382 6.95589 10.3545 7.15031L10.4094 7.17191V6.60693L11.5493 6.72325V9.60631C11.5493 10.2427 11.5144 11.16 10.1385 11.16C9.32263 11.16 9.51206 11.1467 9.03515 11.0354L9.04844 10.2278L9.04678 10.2295ZM10.4094 7.76016C10.3977 7.59066 10.2798 7.37963 10.1302 7.37963C9.91253 7.37963 9.88761 7.61891 9.88096 7.75351C9.87265 7.88811 9.85437 8.34508 9.85437 8.45807C9.85437 8.57772 9.88927 8.95326 9.9358 9.07291C10.0039 9.24905 10.0272 9.22911 10.1701 9.22911C10.313 9.22911 10.3263 9.0862 10.4077 8.92668V7.76182L10.4094 7.76016Z" fill="white"></path>
<path d="M12.8338 8.08087C12.8338 7.82331 12.8222 7.35637 13.0798 7.30818C13.3091 7.26498 13.3955 7.54747 13.3955 8.06924C13.3955 8.96989 13.4021 9.34211 13.1213 9.30057C13.0548 9.2906 12.9286 9.27896 12.8887 9.09618C12.8638 8.98817 12.8405 8.72229 12.8405 8.60265L12.8338 8.07921V8.08087ZM11.7305 8.28028C11.7305 9.09285 11.792 9.38365 12.327 9.86555C12.5198 10.04 12.8405 10.0417 13.0582 10.0417C13.6963 10.0417 14.0386 9.78246 14.1466 9.66116C14.4922 9.26567 14.4856 9.02805 14.5205 8.3617C14.552 7.76349 14.3958 7.38462 14.2197 7.11542C13.9007 6.63685 13.5384 6.60362 13.1363 6.60528C11.9033 6.6086 11.7305 7.65049 11.7305 8.28028Z" fill="white"></path>
<path d="M13.108 5.39557L12.7541 6.3577L13.4753 6.366L14.2995 5.39557H13.108Z" fill="white"></path>
<path d="M17.3719 7.84492C17.3653 7.64385 17.2955 7.26332 17.0712 7.01074C16.7588 6.65182 16.34 6.60861 16.1157 6.60861C15.1453 6.60861 14.7697 7.25003 14.7697 8.03103V8.81868C14.7697 9.21583 14.9741 9.55814 15.2932 9.82235C15.6188 10.0999 15.9745 10.0234 16.1639 10.0417C17.1443 10.1364 17.3769 9.21915 17.3902 8.8785L16.4032 8.68907C16.4032 8.95328 16.3317 9.31221 16.1423 9.29061C15.9761 9.27233 15.8465 9.03969 15.8465 8.90841L15.8515 7.81335C15.8515 7.62391 15.8814 7.39792 16.0775 7.36469C16.3251 7.32315 16.3583 7.87151 16.3716 8.04765L17.3719 7.84658V7.84492Z" fill="white"></path>
<path d="M17.5863 10.0417H18.7179L18.7129 6.60861H17.5913L17.5863 10.0417Z" fill="white"></path>
<path d="M18.7113 5.53015H17.5863V6.36931H18.7113V5.53015Z" fill="white"></path>
<path d="M20.1204 8.00775C20.1537 7.75019 20.0822 7.30485 20.378 7.32978C20.6588 7.35304 20.6306 7.6588 20.6372 8.28858C20.6439 9.04964 20.6422 9.29558 20.3713 9.31884C20.3032 9.32383 20.1487 9.20252 20.1354 9.00478C20.1271 8.89843 20.1271 8.78876 20.1271 8.67078L20.1221 8.00942L20.1204 8.00775ZM18.9772 8.33677C19.0503 9.16596 19.0004 9.45178 19.6319 9.90708C19.8429 10.0583 20.1935 10.0417 20.4096 10.0417C21.0477 10.0417 21.1224 9.92038 21.2437 9.81403C21.6176 9.47338 21.7589 9.10614 21.7589 8.41986C21.7589 7.82164 21.7107 7.42948 21.5296 7.16195C21.1823 6.66177 20.7103 6.61026 20.3215 6.61026C19.2098 6.61026 18.9207 7.71197 18.9755 8.33843L18.9772 8.33677Z" fill="white"></path>
<path d="M24.2681 7.16362C24.0271 6.88446 23.6482 6.60861 23.1946 6.60861C23.0052 6.60861 22.6479 6.6352 22.3571 6.79805C21.9965 6.99911 21.9084 7.44944 21.9084 7.78344C21.9084 8.30688 22.2258 8.56444 23.0135 8.90509C23.2993 9.03138 23.3907 9.03138 23.3741 9.14936C23.3574 9.26734 23.3192 9.26402 23.0118 9.30058C22.7825 9.32882 22.4784 9.05464 22.2956 8.8785L21.7556 9.48835C21.945 9.63292 22.3737 10.0417 23.0982 10.0417C23.4887 10.0417 24.2381 10.0583 24.3594 9.15102C24.4758 8.27863 23.9025 8.08587 23.3923 7.87151C23.1132 7.75851 22.8606 7.72029 22.8323 7.58237C22.7991 7.42119 22.8855 7.34142 23.0982 7.34641C23.3225 7.35306 23.4837 7.52089 23.6815 7.76184L24.2681 7.16362Z" fill="white"></path>
<path d="M3.4618 0.804259H3.29895V0.0598145H3.65622C3.80743 0.0598145 3.89883 0.15287 3.89883 0.2991C3.89883 0.36723 3.85894 0.536724 3.64957 0.536724H3.4618V0.80592V0.804259ZM3.61301 0.407111C3.73432 0.407111 3.73432 0.324026 3.73432 0.290792C3.73432 0.217677 3.69111 0.187766 3.58975 0.187766H3.46014V0.407111H3.61135H3.61301Z" fill="white"></path>
<path d="M4.65657 0.0598145H4.07996V0.804259H4.67485V0.672984H4.23948V0.480226H4.62167V0.348951H4.23948V0.191089H4.65657V0.0598145Z" fill="white"></path>
<path d="M5.21326 0.603205L5.29136 0.674658C5.26145 0.689613 5.22988 0.694598 5.20329 0.694598C5.11522 0.694598 4.99059 0.643086 4.99059 0.433711C4.99059 0.224336 5.11522 0.172823 5.20329 0.172823C5.29136 0.172823 5.41599 0.224336 5.41599 0.433711C5.41599 0.503502 5.40103 0.555015 5.37943 0.593234L5.29635 0.520119L5.2116 0.604866L5.21326 0.603205ZM5.58382 0.77436L5.49907 0.697922C5.54726 0.639762 5.5805 0.555015 5.5805 0.432049C5.5805 0.0830908 5.30798 0.0398865 5.20495 0.0398865C5.10193 0.0398865 4.82941 0.0830908 4.82941 0.432049C4.82941 0.781007 5.10193 0.824212 5.20495 0.824212C5.25148 0.824212 5.33124 0.815903 5.40602 0.77436L5.49907 0.859107L5.58548 0.77436H5.58382Z" fill="white"></path>
<path d="M6.38143 0.0598145H6.21526V0.550018C6.21526 0.63975 6.16874 0.692924 6.0574 0.692924C5.98096 0.692924 5.91782 0.648058 5.91782 0.543371V0.0598145H5.75165V0.553341C5.75331 0.628118 5.76993 0.687939 5.81313 0.734467C5.88292 0.807582 5.98927 0.824199 6.06239 0.824199C6.26013 0.824199 6.38476 0.739452 6.38476 0.543371V0.0598145H6.38143Z" fill="white"></path>
<path d="M7.17244 0.0598145H6.59583V0.804259H7.19072V0.672984H6.75701V0.480226H7.1392V0.348951H6.75701V0.191089H7.17244V0.0598145Z" fill="white"></path>
<path d="M7.85704 0.578267H7.85372L7.54298 0.0598145H7.37183V0.804259H7.5247V0.274174H7.52636L7.84541 0.804259H8.00992V0.0598145H7.85704V0.578267Z" fill="white"></path>
<path d="M8.3323 0.804259H8.15948L8.43865 0.0598145H8.62809L8.90393 0.804259H8.72613L8.67628 0.651382H8.38714L8.3323 0.804259ZM8.43034 0.521769H8.62975L8.53337 0.227647H8.53171L8.432 0.521769H8.43034Z" fill="white"></path>
<path d="M9.02356 0.574953C9.02356 0.668008 9.07341 0.824209 9.35922 0.824209C9.42735 0.824209 9.6683 0.804268 9.6683 0.579938C9.6683 0.44534 9.57026 0.403797 9.46391 0.378871L9.27282 0.334005C9.23958 0.327359 9.18973 0.314065 9.18973 0.255905C9.18973 0.187775 9.26451 0.166173 9.32599 0.166173C9.4689 0.166173 9.48219 0.244273 9.48551 0.277507H9.64338C9.64338 0.186114 9.57857 0.0365601 9.33762 0.0365601C9.08338 0.0365601 9.03685 0.18279 9.03685 0.265875C9.03685 0.430384 9.15982 0.456972 9.28611 0.485221L9.37086 0.503499C9.45394 0.521778 9.5121 0.538395 9.5121 0.596555C9.5121 0.674655 9.42569 0.692934 9.34759 0.692934C9.20468 0.692934 9.18308 0.614834 9.18142 0.573291H9.02356V0.574953Z" fill="white"></path>
<path d="M6.80015 5.96222H6.50271V6.1018H6.6074V6.19486C6.58912 6.2015 6.57084 6.20815 6.55256 6.21147C6.53428 6.2148 6.516 6.21812 6.49772 6.21812C6.42793 6.21812 6.37143 6.19818 6.32989 6.15664C6.28835 6.11509 6.26841 6.06026 6.26841 5.99047C6.26841 5.92067 6.29001 5.86251 6.33321 5.82263C6.37642 5.78109 6.43624 5.76115 6.51268 5.76115C6.55256 5.76115 6.5941 5.7678 6.64063 5.77943C6.6855 5.79272 6.73369 5.811 6.78354 5.83593V5.67308C6.73535 5.64982 6.68882 5.6332 6.64229 5.62157C6.59576 5.60994 6.54924 5.60495 6.50271 5.60495C6.3731 5.60495 6.27007 5.63985 6.19031 5.7113C6.11221 5.78109 6.07233 5.87415 6.07233 5.99047C6.07233 6.0453 6.0823 6.09681 6.10224 6.145C6.12218 6.19319 6.15043 6.23474 6.18865 6.26963C6.2252 6.30287 6.26841 6.32945 6.31826 6.34773C6.36811 6.36601 6.42295 6.37432 6.48111 6.37432C6.53927 6.37432 6.59909 6.36601 6.6506 6.34939C6.70211 6.33278 6.75196 6.30785 6.79683 6.27296V5.96222H6.80015Z" fill="white"></path>
<path d="M7.21063 5.92398V5.75116H7.30202C7.33526 5.75116 7.36184 5.75781 7.37846 5.77276C7.39674 5.78772 7.40505 5.80932 7.40505 5.83757C7.40505 5.86582 7.39674 5.88908 7.38012 5.90238C7.3635 5.91733 7.33692 5.92398 7.30202 5.92398H7.21063ZM7.21063 6.36101V6.05858C7.21063 6.05858 7.21727 6.05858 7.2206 6.05858C7.22558 6.05858 7.22891 6.05858 7.23223 6.05858C7.26879 6.05858 7.29704 6.06522 7.31698 6.07686C7.33692 6.09015 7.3552 6.11341 7.37015 6.14665L7.46653 6.36101H7.67923L7.55792 6.10677C7.54629 6.08184 7.533 6.0619 7.51804 6.04694C7.50309 6.03033 7.48647 6.02036 7.46819 6.01371C7.51306 5.99377 7.54629 5.96885 7.56789 5.93893C7.5895 5.90902 7.59947 5.87413 7.59947 5.83425C7.59947 5.76113 7.57454 5.7063 7.52635 5.6714C7.47816 5.6365 7.40172 5.61823 7.2987 5.61823H7.01953V6.36101H7.20897H7.21063Z" fill="white"></path>
<path d="M8.15946 5.80766L8.26581 6.09015H8.04314L8.16112 5.80766H8.15946ZM7.92682 6.36101L7.98664 6.21644H8.31234L8.36717 6.36101H8.56824L8.27412 5.61823H8.05644L7.72742 6.36101H7.92848H7.92682Z" fill="white"></path>
<path d="M9.31267 6.36101H9.46056V5.61823H9.27445V6.0619L8.86899 5.61823H8.70282V6.36101H8.89059V5.89407L9.31267 6.36101Z" fill="white"></path>
<path d="M10.0222 5.76944C10.087 5.76944 10.1385 5.78938 10.1784 5.83092C10.2183 5.87247 10.2399 5.92564 10.2399 5.99045C10.2399 6.05525 10.22 6.10843 10.1784 6.14997C10.1385 6.19151 10.0854 6.21145 10.0222 6.21145H9.88096V5.76944H10.0222ZM9.97568 6.36101C10.0521 6.36101 10.1103 6.35602 10.1502 6.34771C10.19 6.33941 10.2249 6.32445 10.2582 6.30451C10.3147 6.26795 10.3595 6.22309 10.3894 6.16991C10.4194 6.11674 10.4343 6.05525 10.4343 5.99045C10.4343 5.93063 10.421 5.87413 10.3978 5.82428C10.3745 5.77443 10.3363 5.73122 10.2881 5.69632C10.2499 5.66808 10.21 5.64814 10.1651 5.6365C10.1202 5.62487 10.0571 5.61823 9.97568 5.61823H9.69153V6.36101H9.97568Z" fill="white"></path>
<path d="M11.1439 6.36101V6.22142H10.8182V6.04528H11.1206V5.90736H10.8182V5.75615H11.1356V5.61823H10.6304V6.36101H11.1439Z" fill="white"></path>
<path d="M11.4629 6.35602C11.5062 6.36765 11.5527 6.3743 11.5992 6.3743C11.6923 6.3743 11.7654 6.35435 11.8186 6.31614C11.8717 6.27625 11.8983 6.22308 11.8983 6.15495C11.8983 6.11341 11.89 6.07685 11.8734 6.04528C11.8568 6.01371 11.8318 5.98878 11.7986 5.96884C11.767 5.95056 11.7155 5.9273 11.6441 5.90071C11.6291 5.89572 11.6175 5.89074 11.6108 5.88908C11.5759 5.87744 11.551 5.86415 11.5344 5.85086C11.5178 5.83756 11.5095 5.82261 11.5095 5.80765C11.5095 5.78771 11.5194 5.77442 11.5377 5.76445C11.556 5.75448 11.5843 5.74949 11.6208 5.74949C11.654 5.74949 11.6906 5.75614 11.7305 5.76777C11.7704 5.7794 11.8169 5.79768 11.8667 5.82427V5.67139C11.8252 5.65145 11.782 5.6365 11.7388 5.62653C11.6956 5.61656 11.6524 5.61157 11.6092 5.61157C11.5244 5.61157 11.4563 5.63151 11.4031 5.67139C11.35 5.71127 11.3234 5.76279 11.3234 5.82593C11.3234 5.88908 11.3433 5.9356 11.3848 5.97382C11.4247 6.01204 11.4995 6.05026 11.6075 6.08848C11.6507 6.10344 11.679 6.11673 11.6906 6.1267C11.7022 6.13833 11.7089 6.15163 11.7089 6.16991C11.7089 6.19151 11.6989 6.20812 11.6806 6.21976C11.6607 6.23139 11.6341 6.23637 11.5959 6.23637C11.5577 6.23637 11.5211 6.22973 11.4829 6.21643C11.443 6.20314 11.3965 6.17821 11.3383 6.14332V6.30783C11.3782 6.33275 11.4214 6.34937 11.4646 6.36266L11.4629 6.35602Z" fill="white"></path>
</svg>